<svg width="824" height="541" viewBox="0 0 824 541" fill="none" xmlns="http://www.w3.org/2000/svg">
<path d="M765.454 427.312C764.709 427.312 763.963 427.196 763.241 426.916L758.301 425.099C754.899 423.84 753.175 420.089 754.387 416.548L772.537 363.47C773.26 361.373 774.798 359.649 776.801 358.717C778.735 357.832 780.856 357.762 782.789 358.531L794.859 363.307C796.769 364.076 798.261 365.544 799.076 367.478C799.892 369.482 799.868 371.765 799.006 373.769L777.57 423.444C777.361 423.91 776.825 424.12 776.359 423.91C775.893 423.701 775.683 423.165 775.893 422.699L797.329 373.023C798.004 371.439 798.028 369.715 797.375 368.154C796.769 366.686 795.628 365.544 794.183 364.985L782.114 360.208C780.646 359.626 779.038 359.673 777.57 360.348C776.032 361.047 774.844 362.399 774.285 364.03L756.134 417.107C755.249 419.693 756.484 422.442 758.954 423.351L763.893 425.169C766.316 426.077 769.136 424.749 770.114 422.233L786.471 380.945C787.612 378.079 786.284 374.864 783.558 373.769C782.23 373.233 780.739 373.28 779.411 373.909C778.013 374.561 776.918 375.773 776.405 377.264L764.266 412.936C764.103 413.402 763.59 413.658 763.101 413.495C762.635 413.332 762.379 412.82 762.542 412.33L774.681 376.658C775.357 374.701 776.801 373.093 778.642 372.231C780.436 371.392 782.417 371.346 784.234 372.068C787.915 373.536 789.686 377.8 788.195 381.621L771.838 422.908C770.767 425.611 768.18 427.289 765.501 427.289L765.454 427.312Z" fill="#0F172A"/>
<path d="M704.495 38.6775H693.312V49.8614H704.495V38.6775Z" fill="#0F172A"/>
<path d="M704.495 50.7704H693.311C692.798 50.7704 692.402 50.351 692.402 49.8617V38.6777C692.402 38.1651 692.822 37.769 693.311 37.769H704.495C705.008 37.769 705.404 38.1884 705.404 38.6777V49.8617C705.404 50.3743 704.984 50.7704 704.495 50.7704ZM694.22 48.953H703.563V39.6097H694.22V48.953Z" fill="#0F172A"/>
<path d="M93.1761 123.07H81.9922V134.254H93.1761V123.07Z" fill="#0F172A"/>
<path d="M93.1532 135.162H81.9692C81.4566 135.162 81.0605 134.743 81.0605 134.254V123.07C81.0605 122.557 81.4799 122.161 81.9692 122.161H93.1532C93.6658 122.161 94.0619 122.581 94.0619 123.07V134.254C94.0619 134.766 93.6425 135.162 93.1532 135.162ZM82.8779 133.345H92.2212V124.002H82.8779V133.345Z" fill="#0F172A"/>
<path d="M696.62 192.527C696.62 191.268 697.645 190.243 698.903 190.243C700.162 190.243 701.187 191.268 701.187 192.527C701.187 193.785 700.162 194.81 698.903 194.81C697.645 194.81 696.62 193.785 696.62 192.527Z" fill="#0F172A"/>
<path d="M698.903 195.719C697.132 195.719 695.711 194.298 695.711 192.527C695.711 190.756 697.132 189.335 698.903 189.335C700.674 189.335 702.095 190.756 702.095 192.527C702.095 194.298 700.674 195.719 698.903 195.719ZM698.903 191.152C698.157 191.152 697.528 191.758 697.528 192.527C697.528 193.296 698.134 193.902 698.903 193.902C699.672 193.902 700.278 193.296 700.278 192.527C700.278 191.758 699.672 191.152 698.903 191.152Z" fill="#0F172A"/>
<path d="M720.293 192.527C720.293 191.268 721.318 190.243 722.576 190.243C723.835 190.243 724.86 191.268 724.86 192.527C724.86 193.785 723.835 194.81 722.576 194.81C721.318 194.81 720.293 193.785 720.293 192.527Z" fill="#0F172A"/>
<path d="M722.576 195.719C720.805 195.719 719.384 194.298 719.384 192.527C719.384 190.756 720.805 189.335 722.576 189.335C724.347 189.335 725.768 190.756 725.768 192.527C725.768 194.298 724.347 195.719 722.576 195.719ZM722.576 191.152C721.83 191.152 721.201 191.758 721.201 192.527C721.201 193.296 721.807 193.902 722.576 193.902C723.345 193.902 723.951 193.296 723.951 192.527C723.951 191.758 723.345 191.152 722.576 191.152Z" fill="#0F172A"/>
<path d="M409.845 37.8852C409.845 36.627 410.87 35.6018 412.128 35.6018C413.386 35.6018 414.412 36.627 414.412 37.8852C414.412 39.1434 413.386 40.1686 412.128 40.1686C410.87 40.1686 409.845 39.1434 409.845 37.8852Z" fill="#0F172A"/>
<path d="M412.128 41.0775C410.357 41.0775 408.936 39.6562 408.936 37.8854C408.936 36.1147 410.357 34.6934 412.128 34.6934C413.898 34.6934 415.32 36.1147 415.32 37.8854C415.32 39.6562 413.898 41.0775 412.128 41.0775ZM412.128 36.5107C411.382 36.5107 410.753 37.1165 410.753 37.8854C410.753 38.6543 411.359 39.2601 412.128 39.2601C412.897 39.2601 413.502 38.6543 413.502 37.8854C413.502 37.1165 412.897 36.5107 412.128 36.5107Z" fill="#0F172A"/>
<path d="M403.252 521.87C404.513 521.87 405.536 520.848 405.536 519.587C405.536 518.326 404.513 517.303 403.252 517.303C401.991 517.303 400.969 518.326 400.969 519.587C400.969 520.848 401.991 521.87 403.252 521.87Z" fill="#0F172A"/>
<path d="M403.252 522.779C401.481 522.779 400.06 521.358 400.06 519.587C400.06 517.816 401.481 516.395 403.252 516.395C405.022 516.395 406.444 517.816 406.444 519.587C406.444 521.358 405.022 522.779 403.252 522.779ZM403.252 518.212C402.506 518.212 401.877 518.818 401.877 519.587C401.877 520.356 402.483 520.962 403.252 520.962C404.021 520.962 404.626 520.356 404.626 519.587C404.626 518.818 404.021 518.212 403.252 518.212Z" fill="#0F172A"/>
<path d="M161.398 457.982C161.398 456.724 162.424 455.699 163.682 455.699C164.94 455.699 165.965 456.724 165.965 457.982C165.965 459.24 164.94 460.265 163.682 460.265C162.424 460.265 161.398 459.24 161.398 457.982Z" fill="#0F172A"/>
<path d="M163.681 461.174C161.911 461.174 160.489 459.753 160.489 457.982C160.489 456.212 161.911 454.79 163.681 454.79C165.452 454.79 166.873 456.212 166.873 457.982C166.873 459.753 165.452 461.174 163.681 461.174ZM163.681 456.608C162.936 456.608 162.307 457.213 162.307 457.982C162.307 458.751 162.912 459.357 163.681 459.357C164.45 459.357 165.056 458.751 165.056 457.982C165.056 457.213 164.45 456.608 163.681 456.608Z" fill="#0F172A"/>
<path d="M97.5811 263.032C97.5811 261.774 98.6062 260.749 99.8644 260.749C101.123 260.749 102.148 261.774 102.148 263.032C102.148 264.29 101.123 265.316 99.8644 265.316C98.6062 265.316 97.5811 264.29 97.5811 263.032Z" fill="#0F172A"/>
<path d="M99.864 266.225C98.0932 266.225 96.6719 264.803 96.6719 263.032C96.6719 261.262 98.0932 259.84 99.864 259.84C101.635 259.84 103.056 261.262 103.056 263.032C103.056 264.803 101.635 266.225 99.864 266.225ZM99.864 261.658C99.1184 261.658 98.4893 262.264 98.4893 263.032C98.4893 263.801 99.0951 264.407 99.864 264.407C100.633 264.407 101.239 263.801 101.239 263.032C101.239 262.264 100.633 261.658 99.864 261.658Z" fill="#0F172A"/>
<path d="M289.081 218.996C289.081 217.737 290.106 216.712 291.364 216.712C292.623 216.712 293.648 217.737 293.648 218.996C293.648 220.254 292.623 221.279 291.364 221.279C290.106 221.279 289.081 220.254 289.081 218.996Z" fill="#0F172A"/>
<path d="M291.342 222.188C289.571 222.188 288.149 220.767 288.149 218.996C288.149 217.225 289.571 215.804 291.342 215.804C293.112 215.804 294.534 217.225 294.534 218.996C294.534 220.767 293.112 222.188 291.342 222.188ZM291.342 217.621C290.596 217.621 289.967 218.227 289.967 218.996C289.967 219.765 290.573 220.37 291.342 220.37C292.11 220.37 292.716 219.765 292.716 218.996C292.716 218.227 292.11 217.621 291.342 217.621Z" fill="#0F172A"/>
<path d="M269.138 239.313C270.399 239.313 271.421 238.291 271.421 237.03C271.421 235.769 270.399 234.746 269.138 234.746C267.877 234.746 266.854 235.769 266.854 237.03C266.854 238.291 267.877 239.313 269.138 239.313Z" fill="#0F172A"/>
<path d="M269.137 240.222C267.367 240.222 265.945 238.801 265.945 237.03C265.945 235.259 267.367 233.838 269.137 233.838C270.908 233.838 272.329 235.259 272.329 237.03C272.329 238.801 270.908 240.222 269.137 240.222ZM269.137 235.655C268.392 235.655 267.763 236.261 267.763 237.03C267.763 237.799 268.369 238.405 269.137 238.405C269.906 238.405 270.512 237.799 270.512 237.03C270.512 236.261 269.906 235.655 269.137 235.655Z" fill="#0F172A"/>
<path d="M244.183 45.1082H145.857V81.1764H244.183V45.1082Z" fill="white"/>
<path d="M244.182 82.0853H145.857C145.344 82.0853 144.948 81.6659 144.948 81.1766V45.1084C144.948 44.5958 145.368 44.1997 145.857 44.1997H244.182C244.695 44.1997 245.091 44.6191 245.091 45.1084V81.1766C245.091 81.6892 244.672 82.0853 244.182 82.0853ZM146.766 80.2679H243.274V46.0404H146.766V80.2679Z" fill="#0F172A"/>
<path d="M244.183 80.9204H145.857V116.989H244.183V80.9204Z" fill="white"/>
<path d="M244.182 117.898H145.857C145.344 117.898 144.948 117.478 144.948 116.989V80.9207C144.948 80.4081 145.368 80.012 145.857 80.012H244.182C244.695 80.012 245.091 80.4314 245.091 80.9207V116.989C245.091 117.501 244.672 117.898 244.182 117.898ZM146.766 116.08H243.274V81.8527H146.766V116.08Z" fill="#0F172A"/>
<path d="M244.183 116.989H145.857V153.057H244.183V116.989Z" fill="white"/>
<path d="M244.182 153.966H145.857C145.344 153.966 144.948 153.546 144.948 153.057V116.989C144.948 116.476 145.368 116.08 145.857 116.08H244.182C244.695 116.08 245.091 116.499 245.091 116.989V153.057C245.091 153.57 244.672 153.966 244.182 153.966ZM146.766 152.148H243.274V117.921H146.766V152.148Z" fill="#0F172A"/>
<path d="M163.354 63.1424C163.354 61.558 164.636 60.2532 166.244 60.2532C167.851 60.2532 169.133 61.5347 169.133 63.1424C169.133 64.7501 167.851 66.0315 166.244 66.0315C164.636 66.0315 163.354 64.7501 163.354 63.1424Z" fill="#0F172A"/>
<path d="M166.243 66.9405C164.146 66.9405 162.445 65.2396 162.445 63.1426C162.445 61.0456 164.146 59.3447 166.243 59.3447C168.34 59.3447 170.041 61.0456 170.041 63.1426C170.041 65.2396 168.34 66.9405 166.243 66.9405ZM166.243 61.1854C165.148 61.1854 164.286 62.0708 164.286 63.1426C164.286 64.2144 165.171 65.0998 166.243 65.0998C167.315 65.0998 168.2 64.2144 168.2 63.1426C168.2 62.0708 167.315 61.1854 166.243 61.1854Z" fill="#0F172A"/>
<path d="M163.354 98.9546C163.354 97.3702 164.636 96.0654 166.244 96.0654C167.851 96.0654 169.133 97.3469 169.133 98.9546C169.133 100.562 167.851 101.844 166.244 101.844C164.636 101.844 163.354 100.562 163.354 98.9546Z" fill="#0F172A"/>
<path d="M166.243 102.753C164.146 102.753 162.445 101.052 162.445 98.9549C162.445 96.8579 164.146 95.157 166.243 95.157C168.34 95.157 170.041 96.8579 170.041 98.9549C170.041 101.052 168.34 102.753 166.243 102.753ZM166.243 96.9977C165.148 96.9977 164.286 97.8831 164.286 98.9549C164.286 100.027 165.171 100.912 166.243 100.912C167.315 100.912 168.2 100.027 168.2 98.9549C168.2 97.8831 167.315 96.9977 166.243 96.9977Z" fill="#0F172A"/>
<path d="M163.354 135.023C163.354 133.438 164.636 132.134 166.244 132.134C170.042 132.134 169.995 137.889 166.244 137.889C164.659 137.889 163.354 136.607 163.354 134.999V135.023Z" fill="#0F172A"/>
<path d="M166.243 138.821C164.146 138.821 162.445 137.12 162.445 135.023C162.445 132.926 164.146 131.225 166.243 131.225C168.713 131.225 169.994 133.136 169.994 135C169.994 135.978 169.668 136.887 169.062 137.586C168.387 138.378 167.385 138.798 166.243 138.798V138.821ZM166.243 133.066C165.148 133.066 164.286 133.951 164.286 135.023C164.286 136.095 165.171 136.98 166.243 136.98C166.849 136.98 167.338 136.77 167.664 136.398C167.967 136.048 168.154 135.536 168.154 135C168.154 134.091 167.641 133.042 166.243 133.042V133.066Z" fill="#0F172A"/>
<path d="M230.995 63.4454H186.353C186.19 63.4454 186.05 63.3056 186.05 63.1425C186.05 62.9794 186.19 62.8396 186.353 62.8396H230.995C231.158 62.8396 231.298 62.9794 231.298 63.1425C231.298 63.3056 231.158 63.4454 230.995 63.4454Z" fill="#0F172A"/>
<path d="M230.995 99.2576H186.353C186.19 99.2576 186.05 99.1179 186.05 98.9548C186.05 98.7917 186.19 98.6519 186.353 98.6519H230.995C231.158 98.6519 231.298 98.7917 231.298 98.9548C231.298 99.1179 231.158 99.2576 230.995 99.2576Z" fill="#0F172A"/>
<path d="M230.995 135.069H186.353C186.19 135.069 186.05 134.93 186.05 134.767C186.05 134.603 186.19 134.464 186.353 134.464H230.995C231.158 134.464 231.298 134.603 231.298 134.767C231.298 134.93 231.158 135.069 230.995 135.069Z" fill="#0F172A"/>
<path d="M120.716 193.552C126.774 188.566 134.253 187.354 139.985 192.877C145.693 198.399 146.462 210.049 140.754 215.547C134.533 221.535 119.76 221.465 111.675 221.326C96.1343 221.046 80.3137 221.815 64.7727 221.815C35.6245 221.815 38.7933 196.791 46.5755 191.455C50.3501 188.869 55.4994 189.288 58.9244 192.457C57.4565 181.926 63.9339 170.718 72.8811 168.295C81.8282 165.872 91.8938 172.606 94.5965 182.811C98.6274 177.941 105.315 176.357 110.65 178.99C116.009 181.623 119.434 187.238 120.739 193.552H120.716Z" fill="white"/>
<path d="M64.773 222.724C47.764 222.724 42.6614 214.406 41.1236 209.466C38.7703 201.87 41.776 193.622 46.0632 190.686C49.5581 188.286 54.2181 188.263 57.8296 190.477C57.3403 180.085 63.7944 169.81 72.6483 167.41C76.7957 166.291 81.3625 166.99 85.4866 169.367C89.9135 171.93 93.3153 176.124 95.0162 181.017C99.3733 176.753 105.757 175.565 111.07 178.174C115.986 180.597 119.667 185.56 121.322 191.968C128.055 187.052 135.348 187.121 140.661 192.224C143.783 195.23 145.624 200.03 145.624 205.086C145.624 209.583 144.086 213.637 141.43 216.223C134.766 222.654 119.178 222.397 111.699 222.258C102.752 222.095 93.5716 222.281 84.6711 222.467C78.1471 222.607 71.3901 222.747 64.7963 222.747L64.773 222.724ZM52.0512 190.686C50.3037 190.686 48.5795 191.176 47.0883 192.201C43.4303 194.717 40.7741 202.196 42.8711 208.93C45.271 216.642 53.0531 220.906 64.773 220.906C71.3435 220.906 78.0772 220.766 84.6012 220.65C93.5017 220.464 102.705 220.277 111.699 220.44C118.363 220.557 133.997 220.836 140.125 214.918C142.431 212.681 143.76 209.093 143.76 205.086C143.76 200.519 142.105 196.208 139.356 193.552C134.416 188.776 127.659 189.055 121.298 194.274C121.042 194.484 120.716 194.531 120.413 194.438C120.11 194.321 119.877 194.065 119.831 193.762C118.479 187.261 114.984 182.182 110.231 179.829C105.291 177.405 99.0005 178.897 95.2725 183.417C95.0628 183.673 94.7133 183.79 94.3638 183.72C94.0376 183.65 93.758 183.393 93.6881 183.067C92.3367 177.965 89.0048 173.561 84.5313 170.975C80.8499 168.831 76.7724 168.202 73.091 169.204C64.6099 171.487 58.4121 182.298 59.7868 192.341C59.8334 192.713 59.647 193.086 59.2975 193.273C58.948 193.459 58.5286 193.389 58.249 193.133C56.5015 191.525 54.2647 190.686 52.0046 190.686H52.0512Z" fill="#0F172A"/>
<path d="M749.346 503.883L695.57 452.926L706.475 441.439L760.251 492.373L762.674 505.98L749.346 503.883Z" fill="white"/>
<path d="M762.673 506.889C762.673 506.889 762.58 506.889 762.534 506.889L749.206 504.792C749.02 504.768 748.857 504.675 748.717 504.559L694.941 453.625C694.754 453.462 694.661 453.229 694.661 452.996C694.661 452.763 694.754 452.53 694.917 452.344L705.822 440.834C706.171 440.461 706.754 440.461 707.103 440.81L760.879 491.744C761.019 491.884 761.112 492.047 761.159 492.256L763.559 505.864C763.605 506.143 763.512 506.446 763.303 506.656C763.139 506.842 762.883 506.935 762.65 506.935L762.673 506.889ZM749.789 503.021L761.555 504.885L759.435 492.839L706.544 442.721L696.898 452.903L749.812 503.021H749.789Z" fill="#0F172A"/>
<path d="M749.066 504.582C748.833 504.582 748.623 504.489 748.437 504.326C748.064 503.976 748.064 503.394 748.414 503.044L758.992 491.907C759.341 491.534 759.924 491.534 760.273 491.883C760.646 492.233 760.646 492.815 760.297 493.165L749.718 504.302C749.532 504.489 749.299 504.582 749.066 504.582Z" fill="#0F172A"/>
<path d="M765.515 509.591C765.282 509.591 765.073 509.498 764.886 509.335L761.904 506.516C761.531 506.166 761.531 505.584 761.857 505.234C762.207 504.861 762.789 504.861 763.139 505.211L766.121 508.03C766.494 508.38 766.494 508.962 766.168 509.312C765.981 509.498 765.748 509.591 765.515 509.591Z" fill="#0F172A"/>
<path d="M695.105 433.109L686.723 441.954L697.428 452.099L705.81 443.254L695.105 433.109Z" fill="#0F172A"/>
<path d="M135.769 420.586C135.396 420.586 135.047 420.353 134.907 419.981L92.9441 305.322C92.8509 305.089 92.8742 304.833 92.9674 304.623C93.0606 304.413 93.247 304.227 93.48 304.157L187.705 269.79C187.938 269.696 188.194 269.72 188.404 269.813C188.613 269.906 188.8 270.092 188.87 270.325L200.193 301.384C200.357 301.85 200.124 302.386 199.658 302.549C199.192 302.712 198.656 302.479 198.493 302.013L187.472 271.817L94.9479 305.555L136.282 418.489L228.643 384.728L221.979 366.437C221.816 365.971 222.049 365.436 222.515 365.272C222.981 365.109 223.517 365.342 223.68 365.808L230.67 384.961C230.833 385.427 230.6 385.963 230.134 386.126L136.072 420.517C136.072 420.517 135.862 420.563 135.769 420.563V420.586Z" fill="#0F172A"/>
<path d="M159.232 300.615C159.116 300.615 158.999 300.545 158.953 300.405C158.906 300.242 158.976 300.079 159.139 300.009L176.311 293.742C176.474 293.695 176.637 293.765 176.707 293.928C176.754 294.091 176.684 294.254 176.521 294.324L159.349 300.592C159.349 300.592 159.279 300.592 159.256 300.592L159.232 300.615Z" fill="#0F172A"/>
<path d="M154.13 308.561C154.013 308.561 153.897 308.491 153.85 308.351C153.804 308.188 153.873 308.025 154.037 307.955L178.292 299.101C178.455 299.054 178.618 299.124 178.688 299.287C178.734 299.45 178.664 299.613 178.501 299.683L154.246 308.537C154.246 308.537 154.176 308.537 154.153 308.537L154.13 308.561Z" fill="#0F172A"/>
<path d="M127.452 345.235C127.335 345.235 127.219 345.165 127.172 345.025C127.126 344.862 127.196 344.699 127.359 344.629L180.226 325.36C180.389 325.313 180.552 325.383 180.622 325.546C180.669 325.709 180.599 325.872 180.436 325.942L127.568 345.211C127.568 345.211 127.499 345.211 127.475 345.211L127.452 345.235Z" fill="#0F172A"/>
<path d="M134.068 362.546C133.952 362.546 133.835 362.477 133.789 362.337C133.742 362.174 133.812 362.011 133.975 361.941L178.385 345.747C178.548 345.701 178.711 345.771 178.781 345.934C178.827 346.097 178.757 346.26 178.594 346.33L134.185 362.523C134.185 362.523 134.115 362.523 134.091 362.523L134.068 362.546Z" fill="#0F172A"/>
<path d="M140.266 380.394C140.15 380.394 140.033 380.324 139.987 380.184C139.94 380.021 140.01 379.858 140.173 379.788L187.658 362.476C187.821 362.43 187.985 362.5 188.054 362.663C188.101 362.826 188.031 362.989 187.868 363.059L140.383 380.371C140.383 380.371 140.313 380.371 140.29 380.371L140.266 380.394Z" fill="#0F172A"/>
<path d="M233.326 330.555C230.693 329.716 229.132 330.206 226.988 329.6C226.103 327.666 224.332 324.427 223.353 322.517C224.635 320.117 225.497 319.348 226.639 317.321C226.546 317.041 226.266 316.855 226.01 316.645C225.357 316.156 224.728 315.667 224.052 315.201C221.629 313.476 218.996 312.032 216.27 310.89C215.012 313.29 214.08 315.55 213.125 317.787C210.492 317.74 207.836 318.043 205.296 318.719C204.178 316.529 202.919 314.385 201.545 312.358C198.446 314.036 195.464 316.109 193.017 318.719C194.322 320.699 195.37 321.818 196.815 323.425C195.533 325.895 194.252 328.225 193.39 330.648C190.71 330.229 188.637 330.299 186.12 329.88C185.095 333.98 184.932 338.244 186.307 342.065C188.8 341.506 190.174 340.9 192.411 340.271C193.646 342.648 195.324 344.861 197.211 346.842C196.046 349.125 195.603 350.943 194.508 352.76C196.838 355.23 199.797 357.001 203.013 357.956C203.968 355.766 204.574 354.391 205.482 352.457C207.859 352.504 210.911 352.667 213.241 352.108C214.733 354.018 215.292 355.183 216.27 357.14C219.928 356.441 223.353 354.95 226.452 352.923C225.287 350.663 225.008 349.218 223.75 347.378C225.217 345.281 226.476 342.601 227.128 340.365C229.528 339.945 230.6 340.085 232.79 339.968C233.699 336.753 233.792 333.584 233.349 330.509L233.326 330.555ZM214.872 340.597C213.568 341.693 212.216 342.694 207.346 341.623C205.436 341.203 200.566 338.268 202.78 331.604C203.479 329.483 205.343 327.713 207.533 327.27C209.723 326.851 211.517 326.781 213.148 327.386C215.688 328.342 217.528 330.812 217.831 333.468C218.134 336.124 216.946 338.873 214.849 340.597H214.872Z" fill="#F85A40"/>
<path d="M203.012 358.888C203.012 358.888 202.826 358.888 202.756 358.842C199.308 357.816 196.232 355.929 193.856 353.389C193.576 353.087 193.529 352.644 193.739 352.294C194.298 351.362 194.694 350.384 195.114 349.359C195.417 348.613 195.72 347.844 196.139 347.005C194.438 345.165 193.04 343.277 191.992 341.367C191.432 341.53 190.943 341.693 190.43 341.856C189.242 342.252 188.124 342.602 186.539 342.951C186.097 343.044 185.631 342.811 185.491 342.369C184.163 338.687 184.07 334.4 185.258 329.647C185.374 329.181 185.817 328.901 186.283 328.971C187.518 329.181 188.636 329.251 189.825 329.344C190.78 329.414 191.735 329.484 192.807 329.624C193.553 327.69 194.508 325.849 195.533 323.915L195.72 323.542C194.485 322.168 193.483 321.026 192.271 319.185C192.038 318.836 192.085 318.37 192.364 318.067C194.648 315.62 197.583 313.43 201.125 311.52C201.544 311.287 202.057 311.426 202.313 311.799C203.572 313.663 204.76 315.62 205.785 317.601C207.999 317.088 210.259 316.809 212.542 316.809C213.404 314.758 214.313 312.638 215.478 310.401C215.688 309.982 216.2 309.795 216.643 309.982C219.439 311.147 222.118 312.638 224.611 314.385C225.287 314.851 225.939 315.341 226.592 315.83C226.941 316.086 227.361 316.413 227.547 316.948C227.64 317.205 227.617 317.461 227.477 317.694C226.918 318.673 226.429 319.395 225.963 320.071C225.497 320.746 225.007 321.469 224.425 322.471C224.728 323.053 225.077 323.752 225.45 324.451C226.219 325.896 227.058 327.527 227.664 328.762C228.386 328.925 229.085 328.971 229.807 328.995C230.879 329.064 232.091 329.134 233.628 329.624C233.955 329.74 234.211 330.02 234.258 330.369C234.77 333.841 234.56 337.056 233.675 340.202C233.559 340.575 233.232 340.854 232.836 340.854C232.207 340.877 231.671 340.901 231.182 340.901C230.087 340.901 229.201 340.924 227.873 341.134C227.198 343.207 226.126 345.468 224.891 347.355C225.497 348.333 225.846 349.196 226.242 350.128C226.545 350.85 226.848 351.595 227.314 352.481C227.524 352.9 227.384 353.413 227.011 353.669C223.633 355.883 220.091 357.327 216.503 358.026C216.107 358.096 215.688 357.91 215.524 357.537L215.385 357.257C214.569 355.626 214.057 354.601 212.938 353.11C210.841 353.483 208.348 353.413 206.298 353.366H206.135C205.319 355.114 204.737 356.418 203.944 358.306C203.805 358.655 203.455 358.865 203.106 358.865L203.012 358.888ZM195.65 352.621C197.56 354.485 199.913 355.929 202.523 356.838C203.245 355.16 203.828 353.879 204.667 352.085C204.83 351.759 205.156 351.549 205.505 351.549H206.274C208.418 351.619 211.074 351.689 213.055 351.223C213.404 351.153 213.754 351.269 213.987 351.549C215.361 353.32 215.967 354.485 216.783 356.116C219.672 355.486 222.538 354.298 225.287 352.597C224.984 351.968 224.751 351.386 224.518 350.873C224.075 349.825 223.703 348.939 223.004 347.891C222.794 347.588 222.794 347.168 223.004 346.842C224.378 344.885 225.613 342.299 226.242 340.109C226.336 339.782 226.615 339.526 226.965 339.456C228.759 339.13 229.854 339.13 231.112 339.107C231.415 339.107 231.718 339.107 232.067 339.107C232.696 336.59 232.836 334.004 232.51 331.255C231.438 330.975 230.553 330.928 229.667 330.882C228.759 330.835 227.827 330.765 226.755 330.462C226.499 330.393 226.289 330.206 226.172 329.973C225.613 328.738 224.658 326.944 223.819 325.36C223.353 324.451 222.887 323.612 222.561 322.913C222.421 322.657 222.421 322.331 222.561 322.074C223.283 320.746 223.866 319.908 224.425 319.092C224.798 318.556 225.147 318.044 225.52 317.414C225.497 317.414 225.473 317.368 225.45 317.368C224.821 316.879 224.169 316.413 223.516 315.947C221.373 314.432 219.066 313.127 216.689 312.055C215.641 314.152 214.779 316.18 213.963 318.137C213.824 318.486 213.474 318.696 213.101 318.696C210.538 318.649 207.999 318.952 205.529 319.605C205.109 319.721 204.667 319.511 204.48 319.139C203.502 317.228 202.43 315.364 201.242 313.57C198.469 315.131 196.092 316.902 194.182 318.836C195.207 320.304 196.092 321.306 197.281 322.61L197.49 322.843C197.747 323.123 197.793 323.542 197.63 323.869L197.141 324.801C196.046 326.921 194.997 328.901 194.275 330.975C194.135 331.394 193.716 331.651 193.273 331.581C191.992 331.371 190.827 331.301 189.685 331.208C188.776 331.138 187.821 331.068 186.842 330.952C186.003 334.703 186.05 338.081 186.935 341.041C188.054 340.761 188.939 340.481 189.871 340.178C190.594 339.945 191.316 339.712 192.201 339.456C192.621 339.34 193.063 339.526 193.25 339.922C194.345 342.066 195.929 344.209 197.91 346.283C198.166 346.563 198.236 346.982 198.073 347.332C197.56 348.333 197.187 349.242 196.838 350.128C196.488 351.013 196.139 351.852 195.696 352.69L195.65 352.621ZM210.911 342.974C209.909 342.974 208.698 342.835 207.16 342.485C206.018 342.229 203.688 341.157 202.313 338.711C201.125 336.637 201.009 334.051 201.941 331.278C202.779 328.762 204.923 326.828 207.393 326.338C210.002 325.826 211.843 325.872 213.497 326.501C216.293 327.55 218.414 330.299 218.763 333.328C219.089 336.264 217.831 339.316 215.455 341.274C214.313 342.229 213.148 342.974 210.911 342.974ZM210.538 327.83C209.746 327.83 208.837 327.946 207.766 328.156C205.948 328.505 204.317 329.996 203.688 331.86C202.919 334.167 202.989 336.171 203.921 337.825C204.9 339.549 206.647 340.505 207.579 340.714C212.076 341.716 213.171 340.831 214.313 339.876C216.177 338.338 217.225 335.868 216.969 333.561C216.689 331.185 215.058 329.041 212.892 328.226C212.193 327.969 211.447 327.83 210.562 327.83H210.538Z" fill="#0F172A"/>
<path d="M623.738 75.7712C623.575 75.7712 623.412 75.7246 623.272 75.6314C617.983 72.4627 614.255 66.8241 612.997 60.137C612.438 57.1779 612.414 54.2422 612.88 51.4462C608.337 51.3763 603.793 49.8618 600.345 46.8794C595.965 43.1048 593.658 37.2565 593.751 31.5015C580.191 28.4725 569.985 14.7256 571.01 0.838822C571.057 0.326225 571.5 -0.0465734 571.989 2.6389e-05C572.502 0.0466262 572.874 0.466024 572.828 0.978621C571.873 13.8868 581.286 26.6784 593.868 29.6375C594.147 26.8182 595.033 24.0921 596.524 21.6689C597.689 19.8049 599.669 17.5215 602.489 17.3351C604.539 17.2186 606.403 18.3836 607.451 20.4573C608.803 23.1368 608.5 26.4221 606.776 28.4958C604.446 31.2452 600.322 32.4335 595.568 31.8044C595.568 36.9303 597.665 42.1029 601.557 45.4814C604.749 48.2541 608.989 49.6288 613.206 49.6288C613.206 49.6288 613.253 49.6288 613.276 49.6288C613.999 46.8095 615.234 44.1999 616.958 41.9631C618.752 39.6331 620.616 38.3283 622.643 37.9788C624.088 37.7225 625.649 38.1186 626.837 39.004C627.816 39.7496 628.421 40.7515 628.538 41.8699C628.724 43.5941 627.792 45.3649 625.835 46.9959C622.736 49.6055 618.798 51.0734 614.744 51.353C614.232 54.0325 614.255 56.8983 614.791 59.7642C615.956 65.9154 619.381 71.1113 624.204 74.0238C624.647 74.2801 624.787 74.8393 624.507 75.282C624.344 75.5616 624.041 75.7246 623.715 75.7246L623.738 75.7712ZM623.528 39.7729C623.342 39.7729 623.156 39.7729 622.969 39.8195C621.408 40.0991 619.917 41.1709 618.426 43.1048C616.958 44.9921 615.886 47.1823 615.21 49.5356C618.659 49.1861 622.014 47.8813 624.693 45.6212C625.718 44.7591 626.883 43.4543 626.744 42.0796C626.674 41.3107 626.161 40.7981 625.765 40.4719C625.136 40.0059 624.321 39.7263 623.552 39.7263L623.528 39.7729ZM595.662 29.987C598.271 30.3365 602.791 30.4064 605.401 27.3308C606.846 25.6299 606.706 23.0203 605.844 21.2961C605.494 20.6204 604.539 19.0593 602.628 19.1758C600.485 19.3156 598.877 21.4126 598.108 22.6475C596.733 24.861 595.941 27.4007 595.685 29.987H595.662Z" fill="#0F172A"/>
<path d="M0.908839 305.299C0.512741 305.299 0.163243 305.042 0.0467438 304.646C-0.0930555 304.157 0.163243 303.644 0.652541 303.504C6.87361 301.617 11.6501 295.396 12.9782 288.523C8.7609 287.148 5.12612 283.793 5.17272 279.086C5.17272 277.432 5.75522 275.964 6.71051 275.102C8.1784 273.75 10.5317 273.844 12.186 275.288C13.3277 276.29 14.1432 277.851 14.6791 280.065C15.2383 282.395 15.3315 284.795 15.0519 287.171C15.2616 287.218 15.4713 287.241 15.681 287.288C21.9253 288.196 28.4726 285.727 32.7132 280.81C34.95 278.224 36.4878 275.009 37.2101 271.653C35.6024 270.791 34.0413 269.766 32.5967 268.624C30.9657 267.32 28.9852 265.502 28.2396 262.823C27.5406 260.26 28.3794 256.788 30.9657 255.646C32.0608 255.157 33.2491 255.18 34.3908 255.693C36.2082 256.532 37.8858 258.699 38.6547 261.215C39.5633 264.174 39.7264 267.436 39.2371 270.628C44.4563 273.145 50.3512 274.077 56.083 273.215C56.5956 273.145 57.0383 273.494 57.1315 273.983C57.2014 274.473 56.8519 274.939 56.3626 275.032C50.4211 275.917 44.3165 275.009 38.8876 272.492C38.0489 275.987 36.4179 279.342 34.1112 282.022C29.4512 287.404 22.2981 290.107 15.448 289.105C15.2383 289.082 15.0053 289.035 14.7956 288.989C13.2811 296.445 8.0619 303.201 1.25834 305.252C1.16514 305.275 1.07194 305.299 1.00204 305.299H0.908839ZM9.2036 275.987C8.7376 275.987 8.2949 276.127 7.9221 276.453C7.33961 276.966 6.99011 277.968 6.99011 279.109C6.96681 282.744 9.90259 285.447 13.2578 286.682C13.4675 284.608 13.351 282.511 12.885 280.507C12.4423 278.69 11.8365 277.432 10.9744 276.686C10.5084 276.267 9.85599 276.011 9.2036 276.011V275.987ZM32.5734 257.114C32.2705 257.114 31.9676 257.184 31.6647 257.301C30.0337 258.023 29.4512 260.516 29.9638 262.31C30.5463 264.477 32.2705 266.038 33.6918 267.157C34.9034 268.112 36.1616 268.974 37.4897 269.72C37.8392 267.017 37.6528 264.267 36.8839 261.751C36.2781 259.747 34.95 257.976 33.5986 257.347C33.2491 257.184 32.8996 257.114 32.5734 257.114Z" fill="#0F172A"/>
<path d="M609.78 515.65C608.848 515.65 607.846 515.393 606.961 514.881C605.167 513.832 604.049 512.015 603.373 510.733C601.369 506.982 600.297 502.578 600.134 497.825C600.041 497.802 599.971 497.779 599.878 497.755C593.936 496.124 587.506 496.73 581.844 497.243C581.354 497.289 580.888 496.916 580.842 496.427C580.795 495.915 581.168 495.472 581.657 495.425C587.412 494.889 593.913 494.284 600.111 495.915C600.157 493.212 600.507 490.416 601.159 487.573C602.953 479.698 606.658 472.428 609.92 466.021C610.153 465.578 610.689 465.392 611.155 465.625C611.598 465.858 611.784 466.394 611.551 466.86C608.336 473.197 604.701 480.35 602.953 487.993C602.301 490.905 601.952 493.748 601.952 496.497C607.031 498.314 612.483 502.252 614.044 508.543C614.673 511.129 614.207 513.343 612.763 514.601C611.97 515.3 610.899 515.673 609.78 515.673V515.65ZM601.998 498.454C602.208 502.672 603.233 506.563 604.981 509.871C605.563 510.966 606.495 512.481 607.87 513.296C608.942 513.925 610.549 514.088 611.528 513.226C612.879 512.038 612.413 509.661 612.227 508.963C611.132 504.466 607.194 500.505 601.975 498.454H601.998Z" fill="#0F172A"/>
<path d="M595.848 193.133C593.705 205.109 599.134 218.53 609.875 224.239C615.723 227.361 622.55 228.106 628.608 230.762C634.689 233.395 640.398 239.174 639.419 245.721C638.767 250.078 634.759 259.538 646.875 267.367C656.871 273.797 650.277 299.194 615.327 304.833C604.632 306.557 612.484 299.241 602.163 295.956C591.957 292.717 583.383 285.308 577.395 276.454C571.383 267.6 567.772 257.301 565.325 246.886C562.506 234.887 561.248 221.909 565.931 210.492C570.614 199.075 582.73 190.011 595.872 193.133H595.848Z" fill="#0F172A"/>
<path d="M612.578 306.021C609.153 306.021 608.337 304.483 607.638 302.27C607.032 300.382 606.357 298.262 601.883 296.841C592.19 293.765 583.22 286.705 576.626 276.989C571.267 269.091 567.283 259.328 564.417 247.119C560.805 231.764 561.015 220.044 565.069 210.188C569.659 199.028 582.078 188.962 596.058 192.294C596.524 192.411 596.827 192.877 596.757 193.343C594.59 205.459 600.275 218.134 610.294 223.493C613.463 225.194 617.028 226.195 620.5 227.174C623.319 227.966 626.231 228.782 628.981 229.993C635.179 232.696 641.376 238.824 640.328 245.93C640.235 246.513 640.095 247.165 639.955 247.841C638.907 252.757 637.299 260.167 647.388 266.644C651.209 269.114 652.84 274.123 651.675 279.739C649.648 289.385 638.977 301.99 615.514 305.765C614.372 305.951 613.417 306.044 612.624 306.044L612.578 306.021ZM590.606 193.436C579.725 193.436 570.498 201.754 566.77 210.841C562.879 220.324 562.693 231.718 566.211 246.676C569.03 258.652 572.921 268.228 578.164 275.941C584.525 285.331 593.146 292.134 602.466 295.093C607.825 296.794 608.733 299.637 609.409 301.71C610.061 303.714 610.388 304.739 615.211 303.947C637.765 300.312 647.97 288.406 649.881 279.343C650.906 274.473 649.578 270.186 646.409 268.159C635.272 260.982 637.182 252.175 638.184 247.422C638.324 246.723 638.464 246.14 638.534 245.628C639.442 239.476 633.851 234.071 628.259 231.624C625.626 230.483 622.783 229.667 620.01 228.898C616.469 227.896 612.787 226.871 609.456 225.077C598.994 219.485 592.936 206.46 594.823 193.855C593.402 193.576 592.004 193.436 590.606 193.436Z" fill="#0F172A"/>
<path d="M553.815 164.171C557.357 181.459 537.971 205.948 530.888 222.094C528.581 227.337 525.25 232.137 523.362 237.542C521.125 243.973 521.056 250.963 521.661 257.767C522.826 270.605 526.671 283.769 535.688 292.949C544.705 302.153 559.803 306.16 570.941 299.66C580.703 293.975 585.177 281.742 584.548 270.442C583.942 259.165 579.119 248.563 574.039 238.474C561.83 214.219 570.405 185.094 553.815 164.171Z" fill="#0F172A"/>
<path d="M558.661 303.737C550.32 303.737 541.512 300.172 535.058 293.602C526.973 285.354 522.173 273.331 520.752 257.86C519.983 249.425 520.542 242.878 522.5 237.263C523.618 234.047 525.249 231.041 526.833 228.129C527.952 226.055 529.117 223.912 530.072 221.745C532.122 217.085 535.175 211.749 538.39 206.087C546.359 192.154 555.376 176.357 552.929 164.357C552.836 163.938 553.046 163.518 553.442 163.355C553.815 163.169 554.281 163.285 554.537 163.612C563.834 175.331 565.325 189.195 566.909 203.874C568.144 215.384 569.449 227.313 574.854 238.078C579.864 248.05 584.827 258.768 585.456 270.418C586.155 283.28 580.633 295.07 571.383 300.475C567.585 302.689 563.181 303.76 558.638 303.76L558.661 303.737ZM555.143 167.549C555.655 179.595 547.361 194.088 539.975 206.996C536.782 212.588 533.753 217.9 531.75 222.467C530.771 224.704 529.583 226.871 528.464 228.968C526.927 231.81 525.319 234.769 524.247 237.845C522.383 243.204 521.847 249.495 522.593 257.673C523.944 272.725 528.581 284.375 536.363 292.297C545.776 301.896 560.455 304.716 570.497 298.867C579.165 293.811 584.314 282.674 583.662 270.488C583.056 259.188 578.186 248.679 573.247 238.87C567.678 227.803 566.373 215.733 565.115 204.06C563.694 190.826 562.319 178.244 555.166 167.526L555.143 167.549Z" fill="#0F172A"/>
<path d="M577.557 253.223C577.231 244.02 577.394 234.933 577.767 228.036C574.039 226.172 570.031 224.891 565.93 224.215C564.09 223.912 562.016 223.796 560.595 224.914C559.709 225.613 555.492 221.885 555.049 222.91C552.044 229.947 548.991 246.886 545.986 253.922C545.753 254.458 531.656 256.392 531.423 256.928C530.445 259.211 537.644 268.462 538.367 268.951C576.811 294.511 597.572 256.229 597.572 256.229C597.572 256.229 588.368 255.274 577.534 253.2L577.557 253.223Z" fill="white"/>
<path d="M563.88 278.69C555.562 278.69 546.848 275.684 537.878 269.743C537.039 269.184 529.326 259.561 530.585 256.602C530.864 255.973 530.888 255.879 538.577 254.551C541.023 254.132 544.308 253.549 545.287 253.27C546.708 249.775 548.199 243.903 549.644 238.218C551.135 232.3 552.696 226.172 554.211 222.584C554.351 222.258 554.607 222.025 554.933 221.908C555.702 221.652 556.611 222.141 558.148 223.05C558.754 223.399 559.756 223.982 560.176 224.098C561.9 222.863 564.23 223.05 566.07 223.329C570.288 224.005 574.365 225.333 578.163 227.244C578.489 227.407 578.676 227.756 578.676 228.106C578.28 235.585 578.186 244.439 578.443 252.478C588.788 254.412 597.595 255.343 597.688 255.343C597.991 255.367 598.271 255.553 598.411 255.833C598.55 256.112 598.55 256.415 598.411 256.695C598.038 257.371 589.161 273.448 572.082 277.688C569.402 278.364 566.653 278.69 563.88 278.69ZM532.239 257.604C532.286 259.654 537.691 267.203 538.926 268.228C550.39 275.847 561.41 278.434 571.616 275.917C585.27 272.539 593.681 260.796 596.081 256.998C593.075 256.648 585.666 255.716 577.394 254.132C576.975 254.062 576.672 253.689 576.649 253.27C576.369 245.185 576.439 236.238 576.835 228.595C573.34 226.918 569.635 225.753 565.791 225.124C564.253 224.867 562.342 224.704 561.154 225.636C560.222 226.358 558.894 225.59 557.24 224.611C556.774 224.331 556.121 223.959 555.702 223.772C554.304 227.29 552.836 233.069 551.415 238.661C549.924 244.579 548.362 250.707 546.848 254.295C546.568 254.924 546.545 255.017 538.903 256.345C536.503 256.765 533.311 257.301 532.239 257.604Z" fill="#0F172A"/>
<path d="M542.095 163.775C539.998 172.117 538.32 181.087 533.124 188.17C530.305 192.038 521.731 213.963 536.829 227.151C544.774 234.094 555.632 237.613 567.445 235.609C575.46 234.257 588.112 225.17 591.351 212.472C596.104 216.083 602.814 214.569 604.795 209.769C605.937 207.02 604.259 202.336 600.95 201.218C598.411 200.356 598.085 200.263 595.615 200.962C596.57 194.787 598.061 188.706 600.741 182.205C597.316 173.095 588.928 165.826 579.771 160.513C576.742 158.766 573.55 157.158 570.125 156.273C560.315 153.733 544.215 155.224 542.072 163.798L542.095 163.775Z" fill="white"/>
<path d="M560.851 237.1C551.741 237.1 543.19 233.931 536.246 227.85C521.032 214.569 528.907 192.387 532.402 187.634C536.852 181.553 538.693 173.98 540.464 166.641C540.72 165.616 540.953 164.591 541.209 163.565C541.815 161.096 543.469 159.068 546.126 157.484C552.486 153.686 563.368 153.57 570.381 155.387C574.202 156.366 577.674 158.23 580.26 159.744C587.856 164.148 597.758 171.581 601.626 181.902C601.719 182.112 601.696 182.368 601.626 182.578C599.366 188.007 597.828 193.506 596.78 199.75C598.387 199.424 599.156 199.634 601.276 200.379C602.954 200.962 604.422 202.383 605.284 204.294C606.193 206.274 606.333 208.511 605.657 210.142C604.678 212.518 602.581 214.313 599.902 215.035C597.246 215.757 594.333 215.338 591.91 213.94C588.042 226.638 575.507 235.166 567.608 236.517C565.325 236.913 563.065 237.1 560.828 237.1H560.851ZM560.665 156.063C555.725 156.063 550.622 156.948 547.081 159.045C544.867 160.35 543.516 162.028 543.003 163.985C542.747 164.987 542.514 166.012 542.258 167.037C540.44 174.54 538.553 182.322 533.893 188.683C531.959 191.316 522.22 213.124 537.458 226.452C545.683 233.628 556.284 236.564 567.329 234.7C574.784 233.442 587.343 224.704 590.489 212.239C590.558 211.936 590.791 211.703 591.071 211.61C591.351 211.517 591.677 211.563 591.933 211.75C594.1 213.381 596.919 213.963 599.436 213.264C601.556 212.682 603.21 211.284 603.979 209.443C604.445 208.278 604.329 206.554 603.63 205.039C602.977 203.571 601.906 202.499 600.694 202.103C598.224 201.265 598.131 201.218 595.894 201.847C595.591 201.94 595.265 201.847 595.032 201.661C594.799 201.451 594.683 201.148 594.729 200.845C595.778 194.018 597.385 188.077 599.785 182.229C596.011 172.582 586.598 165.546 579.328 161.329C576.835 159.884 573.503 158.113 569.915 157.181C567.235 156.482 563.973 156.086 560.641 156.086L560.665 156.063Z" fill="#0F172A"/>
<path d="M571.895 212.052C570.963 212.052 570.031 211.936 569.099 211.703C565.86 210.887 563.157 208.72 561.526 205.598C559.895 202.522 559.499 198.864 560.385 195.346C561.293 191.804 563.367 188.799 566.279 186.865C569.215 184.908 572.617 184.302 575.856 185.117C579.094 185.933 581.797 188.1 583.428 191.222C585.059 194.298 585.455 197.956 584.57 201.474C582.962 207.765 577.627 212.052 571.918 212.052H571.895ZM573.013 186.585C571.033 186.585 569.052 187.191 567.281 188.379C564.765 190.057 562.948 192.69 562.155 195.789C561.363 198.888 561.713 202.056 563.134 204.736C564.532 207.392 566.815 209.233 569.541 209.932C575.227 211.376 581.168 207.392 582.776 201.031C583.568 197.932 583.218 194.764 581.797 192.084C580.399 189.428 578.116 187.587 575.39 186.888C574.597 186.678 573.805 186.585 573.013 186.585Z" fill="#0F172A"/>
<path d="M539.601 200.938C538.646 200.938 537.714 200.822 536.759 200.589C533.52 199.773 530.817 197.607 529.186 194.484C527.555 191.409 527.159 187.751 528.045 184.232C529.909 176.893 536.829 172.303 543.516 174.004C546.755 174.819 549.457 176.986 551.088 180.108C552.719 183.184 553.115 186.842 552.23 190.36C551.321 193.902 549.248 196.908 546.335 198.841C544.261 200.239 541.931 200.938 539.601 200.938ZM540.72 175.472C535.827 175.472 531.237 179.2 529.839 184.675C529.047 187.774 529.396 190.943 530.817 193.622C532.215 196.278 534.499 198.119 537.225 198.818C539.974 199.517 542.84 198.981 545.333 197.327C547.85 195.649 549.667 193.016 550.459 189.918C551.251 186.819 550.902 183.65 549.481 180.97C548.083 178.314 545.799 176.474 543.073 175.775C542.281 175.565 541.489 175.472 540.72 175.472Z" fill="#0F172A"/>
<path d="M627.582 141.57C628.561 129.617 619.66 119.109 607.708 118.13C595.755 117.152 585.246 126.052 584.268 138.005C583.289 149.958 592.19 160.466 604.143 161.445C616.096 162.424 626.604 153.523 627.582 141.57Z" fill="#0F172A"/>
<path d="M605.959 162.447C605.33 162.447 604.701 162.423 604.072 162.377C591.63 161.352 582.333 150.401 583.359 137.959C584.384 125.516 595.358 116.22 607.777 117.245C613.811 117.734 619.287 120.554 623.201 125.167C627.116 129.78 629.003 135.652 628.49 141.663C628.001 147.698 625.182 153.173 620.568 157.088C616.444 160.583 611.318 162.47 605.959 162.47V162.447ZM605.913 118.969C595.195 118.969 586.061 127.217 585.176 138.075C584.244 149.515 592.772 159.581 604.212 160.536C609.757 161.002 615.14 159.255 619.38 155.667C623.621 152.078 626.207 147.046 626.673 141.5C627.139 135.955 625.392 130.573 621.803 126.332C618.215 122.091 613.182 119.505 607.637 119.039C607.055 118.992 606.495 118.969 605.913 118.969Z" fill="#0F172A"/>
<path d="M594.612 201.521C592.631 191.549 591.769 184.559 593.913 174.214C570.543 177.918 551.88 172.559 534.032 164.684C534.871 161.445 538.226 154.875 540.649 152.475C546.637 146.557 552.998 141.897 565.883 141.338C574.9 140.941 586.131 142.759 593.96 147.232C601.742 151.683 607.054 158.952 610.712 166.595C613.625 172.676 614.743 181.204 613.368 188.636C612.203 195.02 609.011 198.795 603.978 203.781C602.813 202.383 601.742 201.032 599.878 200.682C598.014 200.333 596.569 200.776 594.612 201.498V201.521Z" fill="#0F172A"/>
<path d="M604.002 204.713C604.002 204.713 603.979 204.713 603.956 204.713C603.699 204.713 603.466 204.573 603.303 204.387L603.163 204.224C602.115 202.965 601.183 201.87 599.738 201.591C598.201 201.311 596.966 201.591 594.962 202.383C594.706 202.476 594.426 202.453 594.193 202.336C593.96 202.197 593.797 201.987 593.75 201.707C591.979 192.783 590.884 185.584 592.795 175.332C568.4 178.873 549.247 172.396 533.683 165.546C533.264 165.359 533.054 164.917 533.171 164.474C534.056 161.026 537.481 154.362 540.044 151.845C546.754 145.205 553.395 140.988 565.884 140.452C573.992 140.102 585.782 141.5 594.449 146.463C601.463 150.494 607.241 157.135 611.575 166.222C614.65 172.629 615.675 181.297 614.301 188.822C613.019 195.719 609.338 199.82 604.655 204.457C604.492 204.62 604.259 204.713 604.002 204.713ZM598.62 199.657C599.086 199.657 599.575 199.703 600.088 199.797C601.905 200.146 603.047 201.265 604.072 202.453C608.942 197.56 611.481 194.088 612.507 188.496C613.811 181.436 612.786 173.002 609.92 167.014C605.75 158.253 600.228 151.892 593.541 148.048C585.199 143.271 573.806 141.92 565.953 142.269C552.766 142.828 546.568 147.954 541.326 153.127C539.229 155.201 536.246 160.863 535.151 164.171C550.599 170.928 569.612 177.149 593.797 173.305C594.1 173.258 594.403 173.351 594.612 173.584C594.822 173.794 594.915 174.097 594.845 174.4C592.725 184.605 593.657 191.688 595.335 200.286C596.43 199.913 597.478 199.657 598.62 199.657Z" fill="#0F172A"/>
<path d="M558.149 221.722C555.329 221.722 552.976 220.487 551.834 218.39C551.601 217.947 551.765 217.388 552.207 217.155C552.65 216.922 553.209 217.085 553.442 217.528C554.677 219.788 557.45 219.928 558.289 219.904C560.782 219.858 563.205 218.832 565.139 217.015C565.512 216.666 566.094 216.689 566.42 217.062C566.77 217.434 566.746 218.017 566.374 218.343C564.114 220.487 561.248 221.675 558.289 221.745C558.219 221.745 558.172 221.745 558.102 221.745L558.149 221.722Z" fill="#0F172A"/>
<path d="M571.709 198.748C571.966 197.7 571.29 196.628 570.195 196.348C569.1 196.069 567.981 196.698 567.725 197.723C567.469 198.771 568.145 199.843 569.24 200.123C570.335 200.402 571.453 199.773 571.709 198.748Z" fill="#0F172A"/>
<path d="M542.84 189.032C543.097 187.984 542.421 186.912 541.326 186.632C540.231 186.353 539.112 186.982 538.856 188.007C538.6 189.056 539.275 190.127 540.371 190.407C541.466 190.687 542.584 190.057 542.84 189.032Z" fill="#0F172A"/>
<path d="M549.155 205.039C548.945 205.039 548.712 204.969 548.549 204.806L546.359 202.803C546.08 202.546 545.52 202.034 545.544 201.288C545.544 200.356 546.359 199.867 546.755 199.634C549.691 197.816 551.625 194.764 551.974 191.432C552.021 190.92 552.487 190.57 552.976 190.617C553.489 190.663 553.838 191.106 553.792 191.619C553.396 195.51 551.112 199.098 547.711 201.195C547.664 201.218 547.547 201.288 547.478 201.358C547.501 201.381 547.547 201.428 547.617 201.474L549.808 203.478C550.18 203.828 550.204 204.387 549.854 204.76C549.668 204.946 549.435 205.063 549.178 205.063L549.155 205.039Z" fill="#0F172A"/>
<path d="M562.692 191.385C562.365 191.385 562.039 191.199 561.876 190.896C560.734 188.682 558.334 187.028 555.771 186.702C554.513 186.539 553.069 186.842 552.742 187.75C552.556 188.216 552.043 188.473 551.554 188.286C551.088 188.1 550.832 187.587 551.018 187.098C551.717 185.211 554.024 184.628 555.981 184.885C559.127 185.281 562.062 187.308 563.484 190.057C563.717 190.5 563.53 191.059 563.088 191.292C562.948 191.362 562.808 191.385 562.668 191.385H562.692Z" fill="#0F172A"/>
<path d="M593.983 201.474C593.983 201.474 593.75 201.474 593.656 201.404L584.29 197.723C583.824 197.536 583.591 197 583.777 196.534C583.964 196.068 584.5 195.835 584.966 196.022L594.332 199.703C594.798 199.89 595.031 200.425 594.845 200.891C594.705 201.241 594.355 201.474 593.983 201.474Z" fill="#0F172A"/>
<path d="M593.121 208.651C593.121 208.651 592.888 208.65 592.772 208.581C592.306 208.394 592.073 207.858 592.283 207.392C593.191 205.156 593.657 202.662 593.587 200.239C593.587 199.727 593.984 199.307 594.473 199.307C594.985 199.307 595.405 199.703 595.405 200.193C595.475 202.872 594.962 205.598 593.96 208.068C593.82 208.418 593.471 208.627 593.121 208.627V208.651Z" fill="#0F172A"/>
<path d="M612.531 333.957C621.641 328.668 636.74 309.911 632.592 294.697C630.402 286.588 626.511 257.44 583.965 254.691C583.103 268.251 569.892 274.379 561.458 275.381C556.868 275.94 539.532 275.428 539.532 255.296C528.069 255.926 513.576 257.696 491.255 266.574C474.363 273.307 445.541 277.758 445.541 277.758C445.541 277.758 416.416 240.478 405.954 225.193C400.222 216.805 389.854 251.569 383.423 236.89C382.445 234.653 413.27 296.304 415.763 300.964C428.858 325.336 489.275 309.911 500.971 309.911C499.829 326.874 507.076 336.916 512.971 342.065C514.788 381.256 505.212 408.353 505.212 408.353C505.212 408.353 558.801 428.275 614.279 411.872C618.542 410.614 603.654 376.316 612.508 333.934L612.531 333.957Z" fill="#F85A40"/>
<path d="M567.445 419.258C556.611 419.258 546.848 418.349 538.833 417.184C518.632 414.272 505.048 409.286 504.908 409.239C504.442 409.076 504.209 408.54 504.372 408.074C504.466 407.794 513.809 380.836 512.108 342.508C507.052 337.988 499.2 328.109 500.039 310.867C497.592 311.007 493.654 311.566 488.831 312.265C466.79 315.457 425.735 321.398 414.994 301.407C413.713 299.007 405.162 281.998 396.89 265.549C391.391 254.574 385.706 243.321 383.563 239.08C383.236 238.567 382.91 237.962 382.631 237.286C382.351 236.657 382.724 236.191 383.05 236.028C383.865 235.655 384.215 236.331 384.564 237.03C384.704 237.309 384.914 237.682 385.147 238.148C385.753 239.08 386.382 239.569 387.058 239.639C389.364 239.872 392.533 235.305 395.329 231.298C398.451 226.824 401.154 222.956 403.927 222.956C404.998 222.956 405.954 223.539 406.723 224.681C416.439 238.894 442.698 272.585 445.96 276.779C449.944 276.127 475.597 271.84 490.952 265.735C513.226 256.858 527.999 255.017 539.509 254.388C539.765 254.388 539.998 254.458 540.184 254.644C540.371 254.807 540.464 255.064 540.464 255.297C540.464 261.844 542.351 266.807 546.056 270.115C550.902 274.426 557.962 274.892 561.364 274.472C568.494 273.61 582.217 268.368 583.079 254.644C583.079 254.411 583.196 254.178 583.382 254.015C583.569 253.852 583.802 253.782 584.035 253.782C624.227 256.368 630.588 282.581 632.988 292.46C633.174 293.206 633.337 293.881 633.477 294.44C637.741 310.098 622.596 328.901 613.346 334.516C607.684 362.057 612.158 386.615 614.558 399.826C616.095 408.26 616.794 412.105 614.558 412.757C598.108 417.627 581.821 419.235 567.422 419.235L567.445 419.258ZM506.4 407.818C513.389 410.218 563.228 426.038 614.022 411.033C614.627 410.218 613.695 405.115 612.787 400.175C610.34 386.778 605.797 361.824 611.668 333.771C611.715 333.514 611.878 333.305 612.111 333.165C621.245 327.853 635.667 309.306 631.753 294.93C631.59 294.347 631.427 293.672 631.24 292.903C628.747 282.581 622.922 258.489 584.85 255.669C583.382 269.929 569.1 275.404 561.597 276.29C560.572 276.406 551.438 277.315 544.868 271.49C540.93 267.995 538.856 262.892 538.67 256.275C527.439 256.951 513.063 258.908 491.627 267.436C474.828 274.123 446.006 278.62 445.703 278.666C445.377 278.713 445.051 278.597 444.841 278.317C444.538 277.944 415.577 240.851 405.208 225.706C404.579 224.774 404.066 224.774 403.903 224.774C402.086 224.774 399.29 228.781 396.82 232.346C393.558 237.03 390.459 241.48 387.221 241.48C387.104 241.48 386.988 241.48 386.871 241.48C386.871 241.48 386.848 241.48 386.825 241.48C387.36 242.552 387.966 243.74 388.642 245.068C391.275 250.31 394.84 257.37 398.521 264.733C406.396 280.414 415.32 298.168 416.602 300.545C426.737 319.418 466.953 313.593 488.575 310.447C494.167 309.632 498.571 309.003 501.017 309.003C501.274 309.003 501.507 309.096 501.693 309.282C501.856 309.469 501.949 309.725 501.926 309.958C500.761 327.386 508.753 337.126 513.622 341.366C513.809 341.53 513.925 341.762 513.925 342.019C515.556 377.062 507.984 402.832 506.4 407.794V407.818Z" fill="#0F172A"/>
<path d="M412.151 141.594L383.446 172.07L371.073 311.636L486.664 323.239L501.925 150.913L412.151 141.594Z" fill="white"/>
<path d="M486.664 324.148C486.664 324.148 486.595 324.148 486.571 324.148L370.981 312.544C370.491 312.498 370.118 312.055 370.165 311.566L382.537 172C382.537 171.79 382.631 171.603 382.794 171.464L411.499 140.987C411.685 140.778 411.988 140.685 412.268 140.708L502.042 150.028C502.532 150.074 502.905 150.517 502.858 151.006L487.573 323.332C487.573 323.565 487.433 323.798 487.247 323.961C487.084 324.101 486.874 324.171 486.664 324.171V324.148ZM372.052 310.797L485.826 322.237L500.947 151.729L412.501 142.549L384.308 172.466L372.052 310.82V310.797Z" fill="#0F172A"/>
<path d="M383.446 172.07L409.565 174.027L412.152 141.594L383.446 172.07Z" fill="#F85A40"/>
<path d="M409.566 174.959C409.566 174.959 409.519 174.959 409.496 174.959L383.377 172.978C383.027 172.955 382.724 172.722 382.585 172.396C382.468 172.069 382.538 171.697 382.771 171.44L411.477 140.964C411.733 140.684 412.152 140.591 412.502 140.754C412.851 140.917 413.084 141.267 413.038 141.663L410.451 174.12C410.405 174.586 410.009 174.959 409.543 174.959H409.566ZM385.427 171.3L408.727 173.071L411.034 144.133L385.427 171.324V171.3Z" fill="#0F172A"/>
<path d="M477.856 174.19C477.856 174.19 477.856 174.19 477.833 174.19L456.746 171.999C456.583 171.999 456.467 171.836 456.467 171.673C456.467 171.51 456.63 171.394 456.793 171.394L477.879 173.584C478.042 173.584 478.159 173.747 478.159 173.91C478.159 174.073 478.019 174.19 477.856 174.19Z" fill="#0F172A"/>
<path d="M477.134 182.298C477.134 182.298 477.134 182.298 477.111 182.298L447.333 179.199C447.17 179.199 447.054 179.036 447.054 178.873C447.054 178.71 447.217 178.593 447.38 178.593L477.157 181.692C477.32 181.692 477.437 181.855 477.437 182.018C477.437 182.182 477.297 182.298 477.134 182.298Z" fill="#0F172A"/>
<path d="M473.966 218.157C473.966 218.157 473.966 218.157 473.943 218.157L400.758 210.561C400.595 210.561 400.479 210.398 400.479 210.235C400.479 210.071 400.642 209.955 400.805 209.955L473.99 217.551C474.153 217.551 474.269 217.714 474.269 217.877C474.269 218.04 474.129 218.157 473.966 218.157Z" fill="#0F172A"/>
<path d="M471.612 244.672C471.612 244.672 471.612 244.672 471.589 244.672L398.404 237.076C398.241 237.076 398.124 236.913 398.124 236.75C398.124 236.587 398.287 236.47 398.45 236.47L471.635 244.066C471.798 244.066 471.915 244.229 471.915 244.392C471.915 244.556 471.775 244.672 471.612 244.672Z" fill="#0F172A"/>
<path d="M469.259 271.187C469.259 271.187 469.259 271.187 469.236 271.187L396.051 263.591C395.888 263.591 395.771 263.428 395.771 263.265C395.771 263.102 395.935 262.985 396.098 262.985L469.283 270.581C469.446 270.581 469.562 270.744 469.562 270.907C469.562 271.071 469.422 271.187 469.259 271.187Z" fill="#0F172A"/>
<path d="M527.626 275.357C523.734 271.466 519.308 267.832 515.23 258.372C512.62 252.337 503.883 239.033 500.668 237.402C495.262 234.676 492 232.206 486.944 231.507C482.703 230.925 474.362 232.02 474.129 233.511C473.383 238.124 484.451 235.188 485.383 235.538C488.645 236.703 491.884 238.008 494.796 241.712C490.276 241.876 482.354 242.901 480.327 244.159C478.207 245.487 472.708 252.314 472.055 253.525C470.96 255.622 472.102 257.719 474.735 255.506C474.875 255.389 480.21 251.638 482.144 249.262C482.913 248.306 490.882 247.561 494.54 248.283C490.788 247.048 483.682 247.864 482.121 249.285C481.748 249.611 475.853 256.042 475.48 256.694C473.943 259.397 476.576 260.422 478.649 258.861C481.003 257.09 483.496 254.201 484.101 253.898C487.457 252.174 490.905 253.153 493.771 253.502C490.952 252.966 487.69 252.407 484.264 253.712C483.659 253.945 477.344 258.978 478.812 261.471C479.605 262.799 482.587 262.1 486.245 257.999C488.412 258.302 489.647 258.815 491.464 259.257C492.722 259.56 497.01 269.09 501.879 271.862C502.858 272.422 506.166 280.67 512.131 291.854C513.413 294.277 519.354 298.052 525.831 289.011C528.185 285.749 531.307 279.085 527.626 275.404V275.357Z" fill="white"/>
<path d="M517.304 295.605C517.141 295.605 516.978 295.605 516.838 295.605C514.182 295.419 512.108 293.741 511.316 292.25C508.473 286.891 506.19 282.185 504.535 278.736C503.137 275.824 501.809 273.074 501.367 272.608C498.128 270.744 495.285 266.294 493.212 263.055C492.466 261.867 491.534 260.423 491.161 260.12C490.579 259.98 490.043 259.817 489.507 259.677C488.598 259.421 487.736 259.164 486.594 258.978C484.055 261.704 481.585 263.172 479.744 262.986C478.975 262.916 478.37 262.543 478.02 261.937C477.741 261.471 477.624 260.935 477.694 260.353C476.622 260.656 475.574 260.516 474.851 259.887C474.548 259.607 473.663 258.652 474.362 256.904C472.871 257.743 471.916 257.254 471.543 256.951C470.587 256.182 470.471 254.621 471.263 253.106C471.962 251.755 477.601 244.765 479.861 243.39C481.935 242.109 488.598 241.223 492.885 240.921C490.509 238.497 487.969 237.449 485.15 236.447C484.87 236.447 484.078 236.54 483.356 236.633C479.465 237.146 475.55 237.519 473.896 235.841C473.477 235.399 473.011 234.63 473.197 233.395C473.64 230.692 483.775 230.203 487.037 230.645C491.021 231.181 493.981 232.812 497.429 234.676C498.571 235.305 499.759 235.958 501.064 236.61C504.745 238.474 513.669 252.477 516.069 258.046C519.61 266.271 523.338 269.906 526.927 273.424C527.369 273.867 527.835 274.309 528.278 274.752C532.379 278.853 529.14 285.983 526.577 289.547C523.012 294.51 519.657 295.652 517.327 295.652L517.304 295.605ZM486.222 257.067C486.222 257.067 486.315 257.067 486.362 257.067C487.853 257.277 488.948 257.58 489.996 257.883C490.532 258.023 491.068 258.186 491.674 258.326C492.466 258.512 493.072 259.421 494.749 262.03C496.613 264.966 499.456 269.37 502.322 271.001C503.044 271.42 503.767 272.888 506.19 277.897C507.844 281.323 510.104 286.029 512.923 291.365C513.389 292.25 514.857 293.602 516.954 293.741C519.634 293.928 522.453 292.087 525.086 288.406C527.16 285.517 530.212 279.226 526.973 275.987C526.53 275.544 526.088 275.125 525.645 274.682C522.104 271.21 518.073 267.273 514.391 258.722C511.735 252.524 503.114 239.662 500.248 238.195C498.897 237.519 497.709 236.866 496.544 236.237C493.142 234.373 490.439 232.905 486.804 232.416C482.703 231.857 475.97 232.905 474.991 233.768C474.945 234.187 475.084 234.397 475.201 234.513C476.343 235.678 480.909 235.072 483.1 234.769C484.707 234.56 485.243 234.49 485.663 234.63C489.111 235.841 492.489 237.263 495.495 241.084C495.705 241.363 495.751 241.713 495.612 242.039C495.472 242.342 495.169 242.552 494.819 242.575C489.856 242.761 482.494 243.833 480.816 244.882C478.906 246.07 473.453 252.804 472.894 253.899C472.451 254.761 472.568 255.367 472.708 255.46C472.754 255.506 473.22 255.553 474.176 254.761C474.176 254.761 474.292 254.668 474.455 254.551C477.391 252.407 479.185 250.916 480.28 249.891C481.003 249.099 481.515 248.563 481.515 248.563C483.472 246.792 491.068 246.116 494.843 247.375C495.309 247.514 495.565 248.004 495.448 248.47C495.332 248.936 494.866 249.215 494.4 249.145C490.812 248.446 483.822 249.239 482.867 249.844C482.564 250.217 482.121 250.707 481.445 251.312C479.628 253.27 476.622 256.625 476.296 257.114C475.946 257.72 475.853 258.279 476.086 258.465C476.389 258.722 477.251 258.745 478.137 258.069C478.44 257.836 478.766 257.58 479.092 257.3C480.746 255.064 483.426 252.99 483.985 252.78C484.544 252.571 485.08 252.407 485.616 252.268C486.594 252.011 487.55 251.918 488.505 251.918C490.579 251.872 492.443 252.221 494.004 252.524C494.493 252.617 494.819 253.083 494.726 253.572C494.656 254.062 494.19 254.388 493.724 254.341C493.235 254.271 492.722 254.202 492.21 254.132C490.952 253.945 489.67 253.736 488.389 253.759C487.666 253.782 486.944 253.875 486.198 254.038C485.662 254.178 485.103 254.365 484.567 254.644C484.404 254.761 483.752 255.39 483.193 255.949C482.424 256.718 481.445 257.673 480.443 258.559C480.047 259.094 479.744 259.63 479.628 260.096C479.465 260.632 479.605 260.865 479.628 260.935C479.628 260.982 479.698 261.075 479.954 261.098C480.723 261.168 482.773 260.469 485.593 257.324C485.779 257.137 486.012 257.021 486.268 257.021L486.222 257.067Z" fill="#0F172A"/>
<path d="M364.177 241.853C362.943 235.399 366.065 223.446 368.744 221.023C373.218 216.969 375.711 213.73 380.441 211.703C384.378 210.025 392.72 208.86 393.326 210.235C395.26 214.476 383.819 214.592 383.004 215.151C380.161 217.132 377.388 219.252 375.548 223.586C379.951 222.561 387.873 221.442 390.134 222.118C392.533 222.84 399.663 227.966 400.572 228.968C402.18 230.716 401.644 233.022 398.521 231.601C398.358 231.531 392.207 229.318 389.714 227.524C388.712 226.801 380.837 228.199 377.505 229.854C380.79 227.663 387.873 226.592 389.761 227.524C390.203 227.757 397.589 232.37 398.125 232.906C400.339 235.119 398.056 236.774 395.632 235.842C392.883 234.77 389.714 232.65 389.038 232.51C385.357 231.741 382.281 233.605 379.602 234.7C382.165 233.442 385.171 232.02 388.829 232.37C389.481 232.44 396.891 235.609 396.145 238.405C395.749 239.896 392.673 240.012 388.06 237.03C386.056 237.892 385.008 238.708 383.353 239.616C382.212 240.245 380.604 250.567 376.643 254.528C375.851 255.32 375.152 262.66 374.406 269.37C373.544 277.036 365.459 248.773 364.131 241.853H364.177Z" fill="white"/>
<path d="M373.777 271.584C372.939 271.584 371.61 271.001 367.813 258.862C365.692 252.105 363.852 244.999 363.269 242.039C361.988 235.352 365.156 223.05 368.115 220.371C369.211 219.369 370.189 218.437 371.121 217.528C373.94 214.802 376.364 212.472 380.068 210.887C383.097 209.606 393 207.393 394.141 209.886C394.654 211.027 394.421 211.889 394.141 212.425C393 214.499 389.109 215.175 385.241 215.711C384.519 215.804 383.726 215.92 383.47 215.99C381.024 217.691 378.833 219.392 377.202 222.351C381.42 221.512 388.083 220.58 390.413 221.279C392.953 222.025 400.246 227.267 401.271 228.386C402.413 229.621 402.716 231.182 402.017 232.16C401.737 232.556 400.968 233.279 399.291 232.859C400.432 234.35 399.85 235.515 399.617 235.865C399.104 236.657 398.102 237.1 397.007 237.077C397.217 237.612 397.24 238.148 397.1 238.684C396.914 239.36 396.425 239.873 395.703 240.152C393.978 240.805 391.206 240.059 388.037 238.102C386.988 238.591 386.219 239.057 385.427 239.546C384.961 239.826 384.495 240.129 383.959 240.408C383.68 240.805 383.167 242.459 382.748 243.787C381.606 247.468 380.022 252.501 377.389 255.157C376.853 256.066 376.177 262.264 375.688 266.784C375.595 267.693 375.502 268.578 375.385 269.487C375.338 269.999 375.152 271.56 373.94 271.607C373.894 271.607 373.847 271.607 373.801 271.607L373.777 271.584ZM391.019 210.538C388.503 210.538 383.75 211.284 380.791 212.542C377.389 213.986 375.199 216.13 372.403 218.809C371.447 219.718 370.469 220.673 369.35 221.675C366.997 223.796 363.852 235.352 365.063 241.667C366.251 247.795 371.284 265.06 373.568 269.044C373.661 268.205 373.754 267.39 373.847 266.551C374.849 257.441 375.245 254.668 376.061 253.852C378.391 251.522 379.952 246.513 381 243.181C381.932 240.222 382.282 239.174 382.981 238.777C383.517 238.475 384.006 238.195 384.472 237.892C385.404 237.333 386.359 236.75 387.757 236.145C388.037 236.028 388.363 236.051 388.619 236.214C392.161 238.498 394.328 238.638 395.05 238.358C395.283 238.265 395.33 238.148 395.33 238.125C395.33 238.032 395.423 237.799 395.12 237.31C394.864 236.89 394.421 236.447 393.908 236.028C392.697 235.446 391.509 234.77 390.553 234.234C389.854 233.838 389.085 233.395 388.876 233.349C388.27 233.232 387.664 233.162 387.082 233.185C386.406 233.232 385.753 233.325 385.101 233.465C383.82 233.791 382.608 234.327 381.42 234.863C380.93 235.073 380.464 235.282 379.998 235.469C379.532 235.655 379.02 235.469 378.81 235.003C378.6 234.56 378.81 234.024 379.229 233.815C380.627 233.116 382.352 232.277 384.355 231.764C385.264 231.508 386.243 231.345 387.245 231.345C387.804 231.345 388.363 231.345 388.946 231.391C389.528 231.438 392.65 232.719 394.864 234.444C395.237 234.63 395.609 234.793 395.982 234.933C397.007 235.329 397.846 235.096 398.056 234.77C398.219 234.514 398.009 234.024 397.497 233.512C397.077 233.139 393.279 230.716 391.019 229.294C390.297 228.922 389.714 228.572 389.248 228.246C388.153 227.896 381.21 228.992 377.925 230.622C377.482 230.832 376.969 230.669 376.736 230.25C376.503 229.83 376.62 229.294 377.016 229.038C380.325 226.825 387.85 225.473 390.18 226.662C390.18 226.662 390.833 227.058 391.718 227.617C393.046 228.339 395.167 229.294 398.568 230.576C398.755 230.646 398.871 230.692 398.895 230.692C400.013 231.205 400.456 231.042 400.502 230.995C400.595 230.855 400.549 230.25 399.897 229.527C399.058 228.619 392.021 223.586 389.854 222.934C387.944 222.374 380.581 223.283 375.735 224.425C375.408 224.495 375.059 224.378 374.826 224.122C374.616 223.866 374.546 223.493 374.686 223.167C376.573 218.67 379.439 216.433 382.445 214.336C382.794 214.08 383.33 214.01 384.961 213.777C387.151 213.474 391.718 212.868 392.51 211.423C392.604 211.26 392.674 211.051 392.51 210.631C392.254 210.515 391.718 210.445 390.996 210.445L391.019 210.538Z" fill="#0F172A"/>
<path d="M569.192 312.452C569.192 312.452 569.123 312.452 569.076 312.452C566.909 312.195 534.685 283.49 526.996 276.034C526.624 275.684 526.624 275.102 526.996 274.752C527.346 274.38 527.928 274.38 528.278 274.752C538.646 284.771 566.583 309.213 569.379 310.681C572.594 310.215 598.783 290.154 608.663 282.581C609.059 282.278 609.641 282.348 609.944 282.744C610.247 283.14 610.177 283.723 609.781 284.026C582.776 304.693 571.686 312.498 569.216 312.498L569.192 312.452Z" fill="#0F172A"/>
<path d="M564.346 359.051C562.762 359.051 561.317 358.841 560.059 358.422C553.908 356.372 538.623 338.314 513.32 303.248L512.248 301.757C509.918 298.541 507.588 291.784 509.475 287.94C509.685 287.497 510.244 287.311 510.687 287.521C511.129 287.754 511.339 288.289 511.106 288.732C509.615 291.761 511.665 297.819 513.716 300.685L514.788 302.176C539.509 336.45 554.933 354.787 560.618 356.675C569.542 359.657 588.625 350.477 617.33 329.39C617.727 329.087 618.309 329.181 618.612 329.577C618.915 329.973 618.822 330.555 618.425 330.858C592.702 349.754 574.901 359.051 564.346 359.051Z" fill="#0F172A"/>
<path d="M517.445 300.638C517.305 300.638 517.165 300.522 517.142 300.382C517.142 300.219 517.235 300.056 517.398 300.032C522.594 299.31 526.531 295.256 530.423 290.806C530.539 290.689 530.725 290.666 530.842 290.782C530.958 290.899 530.982 291.085 530.865 291.202C526.881 295.745 522.873 299.893 517.468 300.638C517.468 300.638 517.445 300.638 517.421 300.638H517.445Z" fill="#0F172A"/>
<path d="M520.38 304.669C520.24 304.669 520.123 304.576 520.077 304.437C520.03 304.273 520.147 304.11 520.31 304.064C522.477 303.574 524.48 302.526 526.088 300.965C526.205 300.848 526.391 300.848 526.508 300.965C526.624 301.081 526.624 301.268 526.508 301.384C524.83 303.015 522.733 304.134 520.45 304.623C520.45 304.623 520.403 304.623 520.38 304.623V304.669Z" fill="#0F172A"/>
<path d="M568.61 410.381C542.374 410.381 519.214 405.511 510.5 403.414C510.337 403.367 510.244 403.204 510.267 403.041C510.314 402.878 510.477 402.762 510.64 402.808C523.735 405.954 569.496 415.39 609.129 405.045C609.292 404.998 609.455 405.092 609.501 405.255C609.548 405.418 609.455 405.581 609.292 405.627C595.941 409.122 581.891 410.357 568.633 410.357L568.61 410.381Z" fill="#0F172A"/>
<path d="M500.644 311.566C500.644 311.566 500.411 311.566 500.318 311.496C499.852 311.31 499.619 310.774 499.806 310.308L505.211 296.375C505.398 295.909 505.933 295.676 506.399 295.862C506.865 296.048 507.098 296.584 506.912 297.05L501.506 310.984C501.367 311.356 501.017 311.566 500.644 311.566Z" fill="#0F172A"/>
<path d="M496.917 520.286C496.404 520.286 496.008 519.867 496.008 519.377C496.008 493.701 504.722 436.29 508.007 414.691C508.287 412.92 508.497 411.406 508.683 410.171C508.753 409.682 509.219 409.332 509.731 409.402C510.221 409.472 510.57 409.938 510.5 410.45C510.314 411.662 510.081 413.177 509.825 414.971C506.539 436.546 497.848 493.864 497.848 519.401C497.848 519.913 497.429 520.309 496.94 520.309L496.917 520.286Z" fill="#0F172A"/>
<path d="M614.511 429.44C614.115 429.44 613.766 429.184 613.649 428.788C612.507 425.036 610.783 420.073 608.36 413.619C608.174 413.153 608.43 412.618 608.896 412.431C609.362 412.245 609.898 412.501 610.084 412.967C612.531 419.444 614.278 424.454 615.42 428.228C615.56 428.718 615.303 429.23 614.814 429.37C614.721 429.393 614.628 429.417 614.558 429.417L614.511 429.44Z" fill="#0F172A"/>
<path d="M386.149 149.329C385.66 149.329 385.264 148.956 385.24 148.467C384.821 141.104 387.547 133.462 392.533 128.033C392.883 127.66 393.442 127.637 393.815 127.986C394.188 128.336 394.211 128.895 393.861 129.268C389.201 134.347 386.638 141.477 387.035 148.35C387.058 148.863 386.685 149.282 386.172 149.306H386.126L386.149 149.329Z" fill="#0F172A"/>
<path d="M374.546 147.908C374.546 147.908 374.383 147.908 374.289 147.908C373.241 147.815 373.334 146.556 373.427 145.624C373.777 141.757 374.336 137.842 375.058 134.021C375.151 133.532 375.594 133.229 376.083 133.299C376.573 133.369 376.899 133.811 376.876 134.277C375.711 146.929 375.431 147.908 374.546 147.908Z" fill="#0F172A"/>
<path d="M470.122 541C470.122 541 470.052 541 470.006 541C469.773 540.977 469.54 540.837 469.4 540.651L231.461 232.719C231.322 232.533 231.252 232.277 231.275 232.044C231.298 231.811 231.438 231.578 231.624 231.438L510.011 16.3333C510.408 16.0304 510.99 16.1003 511.293 16.4964L749.231 324.404C749.534 324.8 749.464 325.383 749.068 325.686L470.705 540.79C470.541 540.907 470.355 540.977 470.145 540.977L470.122 541ZM233.465 232.323L470.285 538.787L747.204 324.8L510.408 18.3371L233.488 232.323H233.465Z" fill="#0F172A"/>
<path d="M548.666 479.512C548.666 479.512 548.456 479.512 548.339 479.465C547.873 479.279 547.617 478.766 547.803 478.3L558.265 450.34C558.405 449.991 558.708 449.758 559.081 449.758C559.453 449.758 559.78 449.944 559.943 450.294C562.459 455.653 564.37 461.314 565.628 467.116C565.744 467.605 565.418 468.095 564.929 468.211C564.44 468.328 563.95 468.001 563.834 467.512C562.762 462.573 561.201 457.726 559.174 453.09L549.481 478.976C549.341 479.349 548.992 479.558 548.619 479.558L548.666 479.512Z" fill="#0F172A"/>
<path d="M546.964 451.878C546.475 451.878 546.079 451.505 546.056 451.016C546.032 450.503 546.405 450.084 546.918 450.06L558.941 449.408C559.43 449.408 559.873 449.757 559.896 450.27C559.919 450.783 559.546 451.202 559.034 451.225L547.011 451.878C547.011 451.878 546.988 451.878 546.964 451.878Z" fill="#0F172A"/>
<path d="M430.535 415.158L391.391 489.368L294.58 465.183L298.425 387.384L430.535 415.158Z" fill="#0F172A"/>
<path d="M391.391 490.277C391.391 490.277 391.251 490.277 391.181 490.253L294.394 466.068C293.974 465.952 293.671 465.579 293.695 465.136L297.539 387.338C297.539 387.082 297.679 386.825 297.889 386.662C298.098 386.499 298.378 386.429 298.634 386.499L430.745 414.272C431.024 414.342 431.257 414.529 431.374 414.785C431.49 415.041 431.49 415.344 431.374 415.601L392.23 489.811C392.067 490.114 391.764 490.3 391.414 490.3L391.391 490.277ZM295.535 464.484L390.902 488.32L429.16 415.834L299.287 388.526L295.535 464.507V464.484Z" fill="#0F172A"/>
<path d="M416.206 372.938L390.32 489.74L285.89 467.769L309.749 350.827L416.206 372.938Z" fill="white"/>
<path d="M390.32 490.649C390.32 490.649 390.203 490.649 390.133 490.649L285.703 468.677C285.214 468.584 284.888 468.095 285.004 467.606L308.863 350.663C308.91 350.43 309.05 350.221 309.259 350.081C309.469 349.941 309.702 349.895 309.958 349.941L416.415 372.053C416.648 372.099 416.858 372.239 416.998 372.449C417.138 372.659 417.184 372.915 417.115 373.148L391.228 489.927C391.135 490.346 390.762 490.649 390.343 490.649H390.32ZM286.985 467.07L389.621 488.669L415.111 373.66L310.448 351.922L286.961 467.07H286.985Z" fill="#0F172A"/>
<path d="M387.594 416.416C387.594 416.416 387.547 416.416 387.524 416.416L345.235 407.632C345.071 407.609 344.955 407.446 345.002 407.283C345.025 407.119 345.188 407.003 345.351 407.05L387.64 415.834C387.803 415.857 387.92 416.02 387.873 416.183C387.85 416.323 387.71 416.416 387.57 416.416H387.594Z" fill="#0F172A"/>
<path d="M383.843 434.45C383.843 434.45 383.796 434.45 383.773 434.45L346.563 426.715C346.4 426.691 346.283 426.528 346.33 426.365C346.353 426.202 346.539 426.085 346.679 426.132L383.889 433.868C384.052 433.891 384.169 434.054 384.122 434.217C384.099 434.357 383.959 434.45 383.819 434.45H383.843Z" fill="#0F172A"/>
<path d="M380.092 452.484C380.092 452.484 380.045 452.484 380.022 452.484L342.812 444.749C342.649 444.725 342.532 444.562 342.579 444.399C342.602 444.236 342.788 444.12 342.928 444.166L380.138 451.902C380.301 451.925 380.418 452.088 380.371 452.251C380.348 452.391 380.208 452.484 380.068 452.484H380.092Z" fill="#0F172A"/>
<path d="M316.552 374.056L329.181 394.257L390.599 406.187L390.32 489.74L271.188 464.693L271.514 364.597L316.552 374.056Z" fill="white"/>
<path d="M390.319 490.649C390.319 490.649 390.203 490.649 390.133 490.649L271.001 465.625C270.581 465.532 270.278 465.159 270.278 464.716L270.605 364.597C270.605 364.317 270.721 364.061 270.954 363.898C271.164 363.735 271.443 363.665 271.723 363.711L316.762 373.194C316.995 373.241 317.228 373.404 317.344 373.614L329.763 393.465L390.762 405.325C391.181 405.418 391.508 405.791 391.508 406.234L391.228 489.787C391.228 490.067 391.112 490.323 390.879 490.486C390.715 490.626 390.506 490.696 390.296 490.696L390.319 490.649ZM272.119 463.971L389.411 488.622L389.69 406.956L329.041 395.166C328.784 395.12 328.575 394.98 328.435 394.747L316.016 374.872L272.469 365.692L272.142 463.947L272.119 463.971Z" fill="#0F172A"/>
<path d="M391.088 388.013C391.088 388.013 391.041 388.013 391.018 388.013L331.65 375.687C331.486 375.664 331.37 375.501 331.417 375.338C331.44 375.175 331.603 375.058 331.766 375.105L391.134 387.431C391.297 387.454 391.414 387.617 391.367 387.78C391.344 387.92 391.204 388.013 391.064 388.013H391.088Z" fill="#0F172A"/>
<path d="M389.201 397.1C389.201 397.1 389.154 397.1 389.131 397.1L357.047 390.436C356.884 390.413 356.767 390.25 356.814 390.087C356.837 389.924 357 389.807 357.164 389.854L389.247 396.518C389.411 396.541 389.527 396.704 389.481 396.867C389.457 397.007 389.317 397.1 389.178 397.1H389.201Z" fill="#0F172A"/>
<path d="M762.606 272.795C762.093 272.795 761.697 272.375 761.697 271.886V173.63C761.697 173.118 762.117 172.722 762.606 172.722C763.095 172.722 763.515 173.141 763.515 173.63V271.886C763.515 272.399 763.095 272.795 762.606 272.795Z" fill="#0F172A"/>
<path d="M771.25 280.297V263.032H753.985V280.297H771.25Z" fill="#F85A40"/>
<path d="M771.25 281.206H753.985C753.472 281.206 753.076 280.787 753.076 280.297V263.032C753.076 262.52 753.496 262.124 753.985 262.124H771.25C771.763 262.124 772.159 262.543 772.159 263.032V280.297C772.159 280.81 771.739 281.206 771.25 281.206ZM754.894 279.389H770.341V263.941H754.894V279.389Z" fill="#0F172A"/>
<path d="M403.251 74.6062H256.858C256.345 74.6062 255.949 74.1868 255.949 73.6975C255.949 73.2082 256.369 72.7888 256.858 72.7888H403.251C403.764 72.7888 404.16 73.2082 404.16 73.6975C404.16 74.1868 403.74 74.6062 403.251 74.6062Z" fill="#0F172A"/>
<path d="M346.33 74.816C345.817 74.816 345.421 74.3966 345.421 73.9073V2.12037C345.421 1.60777 345.84 1.21167 346.33 1.21167C346.819 1.21167 347.238 1.63107 347.238 2.12037V73.884C347.238 74.3966 346.819 74.7927 346.33 74.7927V74.816Z" fill="#0F172A"/>
<path d="M354.974 82.3182V65.053H337.708V82.3182H354.974Z" fill="#FFD42E"/>
<path d="M354.974 83.2271H337.708C337.196 83.2271 336.8 82.8077 336.8 82.3184V65.0532C336.8 64.5406 337.219 64.1445 337.708 64.1445H354.974C355.486 64.1445 355.882 64.5639 355.882 65.0532V82.3184C355.882 82.831 355.463 83.2271 354.974 83.2271ZM338.617 81.4097H354.065V65.9619H338.617V81.4097Z" fill="#0F172A"/>
<path d="M403.251 74.6062H256.858C256.345 74.6062 255.949 74.1868 255.949 73.6975C255.949 73.2082 256.369 72.7888 256.858 72.7888H403.251C403.764 72.7888 404.16 73.2082 404.16 73.6975C404.16 74.1868 403.74 74.6062 403.251 74.6062Z" fill="#0F172A"/>
<path d="M346.33 74.816C345.817 74.816 345.421 74.3966 345.421 73.9073V2.12037C345.421 1.60777 345.84 1.21167 346.33 1.21167C346.819 1.21167 347.238 1.63107 347.238 2.12037V73.884C347.238 74.3966 346.819 74.7927 346.33 74.7927V74.816Z" fill="#0F172A"/>
<path d="M354.974 82.3182V65.053H337.708V82.3182H354.974Z" fill="#F85A40"/>
<path d="M354.974 83.2271H337.708C337.196 83.2271 336.8 82.8077 336.8 82.3184V65.0532C336.8 64.5406 337.219 64.1445 337.708 64.1445H354.974C355.486 64.1445 355.882 64.5639 355.882 65.0532V82.3184C355.882 82.831 355.463 83.2271 354.974 83.2271ZM338.617 81.4097H354.065V65.9619H338.617V81.4097Z" fill="#0F172A"/>
<path d="M286.029 497.22H139.636C139.124 497.22 138.728 496.8 138.728 496.311C138.728 495.822 139.147 495.402 139.636 495.402H286.029C286.542 495.402 286.938 495.822 286.938 496.311C286.938 496.8 286.519 497.22 286.029 497.22Z" fill="#0F172A"/>
<path d="M212.822 497.22C212.309 497.22 211.913 496.8 211.913 496.311V410.078C211.913 409.566 212.332 409.169 212.822 409.169C213.311 409.169 213.73 409.589 213.73 410.078V496.311C213.73 496.824 213.311 497.22 212.822 497.22Z" fill="#0F172A"/>
<path d="M221.441 504.722V487.457H204.176V504.722H221.441Z" fill="#F85A40"/>
<path d="M221.465 505.631H204.2C203.687 505.631 203.291 505.212 203.291 504.722V487.457C203.291 486.944 203.71 486.548 204.2 486.548H221.465C221.978 486.548 222.374 486.968 222.374 487.457V504.722C222.374 505.235 221.954 505.631 221.465 505.631ZM205.108 503.814H220.556V488.366H205.108V503.814Z" fill="#0F172A"/>
<path d="M717.311 127.007C709.296 120.413 699.44 118.829 691.891 126.098C684.342 133.368 683.34 148.746 690.889 156.039C699.09 163.961 718.592 163.844 729.264 163.658C749.791 163.308 770.644 164.287 791.172 164.287C829.616 164.287 825.469 131.248 815.194 124.211C810.208 120.786 803.427 121.345 798.907 125.539C800.841 111.629 792.29 96.8571 780.477 93.6651C768.664 90.473 755.383 99.3502 751.818 112.818C746.506 106.41 737.675 104.313 730.615 107.785C723.555 111.256 719.012 118.666 717.288 127.007H717.311Z" fill="white"/>
<path d="M791.172 165.219C782.481 165.219 773.557 165.033 764.959 164.87C753.239 164.637 741.1 164.38 729.287 164.59C719.455 164.753 698.974 165.103 690.26 156.715C686.788 153.36 684.808 148.094 684.808 142.222C684.808 135.628 687.231 129.384 691.285 125.47C698.252 118.736 707.921 118.759 716.775 125.423C718.895 116.872 723.765 110.208 730.266 106.993C737.279 103.544 745.783 105.222 751.445 111.024C753.612 104.43 758.132 98.7679 764.051 95.3661C769.41 92.2672 775.351 91.3585 780.757 92.8264C792.5 95.9952 800.981 109.742 800.072 123.536C804.779 120.39 811.07 120.297 815.753 123.512C821.322 127.334 825.213 138.075 822.137 147.954C820.133 154.408 813.446 165.242 791.195 165.242L791.172 165.219ZM738.63 162.679C747.461 162.679 756.338 162.866 765.006 163.029C773.603 163.192 782.504 163.379 791.195 163.379C812.281 163.379 818.526 153.36 820.39 147.371C823.186 138.378 819.644 128.359 814.704 124.98C810.114 121.835 803.73 122.347 799.56 126.215C799.28 126.471 798.861 126.541 798.511 126.355C798.162 126.169 797.975 125.796 798.022 125.423C799.862 112.049 791.568 97.6262 780.267 94.5506C775.328 93.2225 769.899 94.0613 764.959 96.9039C758.994 100.352 754.544 106.224 752.75 113.051C752.657 113.377 752.401 113.633 752.074 113.703C751.748 113.773 751.399 113.657 751.166 113.4C746.156 107.366 737.722 105.338 731.081 108.6C724.72 111.723 720.037 118.503 718.243 127.194C718.173 127.497 717.963 127.753 717.66 127.869C717.358 127.986 717.031 127.916 716.775 127.706C708.271 120.693 699.207 120.344 692.566 126.751C688.862 130.316 686.648 136.094 686.648 142.199C686.648 147.558 688.442 152.381 691.541 155.363C699.72 163.239 720.41 162.889 729.264 162.726C732.363 162.679 735.508 162.656 738.63 162.656V162.679Z" fill="#0F172A"/>
<path d="M293.624 137.19C288.918 137.19 285.097 133.369 285.097 128.662C285.097 123.955 288.918 120.134 293.624 120.134C298.331 120.134 302.152 123.955 302.152 128.662C302.152 133.369 298.331 137.19 293.624 137.19ZM293.624 121.975C289.943 121.975 286.937 124.981 286.937 128.662C286.937 132.343 289.943 135.349 293.624 135.349C297.306 135.349 300.311 132.343 300.311 128.662C300.311 124.981 297.306 121.975 293.624 121.975Z" fill="#0F172A"/>
<path d="M52.4946 384.728C47.788 384.728 43.9668 380.907 43.9668 376.2C43.9668 371.493 47.788 367.672 52.4946 367.672C57.2011 367.672 61.0223 371.493 61.0223 376.2C61.0223 380.907 57.2011 384.728 52.4946 384.728ZM52.4946 369.513C48.8132 369.513 45.8075 372.519 45.8075 376.2C45.8075 379.881 48.8132 382.887 52.4946 382.887C56.1759 382.887 59.1816 379.881 59.1816 376.2C59.1816 372.519 56.1759 369.513 52.4946 369.513Z" fill="#0F172A"/>
</svg>
