<svg width="165" height="84" viewBox="0 0 165 84" fill="none" xmlns="http://www.w3.org/2000/svg">
<rect x="58" width="49" height="47.9111" rx="10.8889" fill="black"/>
<path d="M63.375 71.0469V72.2188C63.375 73.9375 63.1458 75.4844 62.6875 76.8594C62.2292 78.224 61.5781 79.3854 60.7344 80.3438C59.8906 81.3021 58.8854 82.0365 57.7188 82.5469C56.5521 83.0573 55.2552 83.3125 53.8281 83.3125C52.4219 83.3125 51.1302 83.0573 49.9531 82.5469C48.7865 82.0365 47.776 81.3021 46.9219 80.3438C46.0677 79.3854 45.4062 78.224 44.9375 76.8594C44.4688 75.4844 44.2344 73.9375 44.2344 72.2188V71.0469C44.2344 69.3177 44.4688 67.7708 44.9375 66.4062C45.4062 65.0417 46.0625 63.8802 46.9062 62.9219C47.75 61.9531 48.7552 61.2135 49.9219 60.7031C51.099 60.1927 52.3906 59.9375 53.7969 59.9375C55.224 59.9375 56.5208 60.1927 57.6875 60.7031C58.8542 61.2135 59.8594 61.9531 60.7031 62.9219C61.5573 63.8802 62.2135 65.0417 62.6719 66.4062C63.1406 67.7708 63.375 69.3177 63.375 71.0469ZM59.0312 72.2188V71.0156C59.0312 69.776 58.9167 68.6875 58.6875 67.75C58.4583 66.8021 58.1198 66.0052 57.6719 65.3594C57.224 64.7135 56.6719 64.2292 56.0156 63.9062C55.3594 63.5729 54.6198 63.4062 53.7969 63.4062C52.9635 63.4062 52.224 63.5729 51.5781 63.9062C50.9427 64.2292 50.401 64.7135 49.9531 65.3594C49.5052 66.0052 49.1615 66.8021 48.9219 67.75C48.6927 68.6875 48.5781 69.776 48.5781 71.0156V72.2188C48.5781 73.4479 48.6927 74.5365 48.9219 75.4844C49.1615 76.4323 49.5052 77.2344 49.9531 77.8906C50.4115 78.5365 50.9635 79.026 51.6094 79.3594C52.2552 79.6927 52.9948 79.8594 53.8281 79.8594C54.6615 79.8594 55.401 79.6927 56.0469 79.3594C56.6927 79.026 57.2344 78.5365 57.6719 77.8906C58.1198 77.2344 58.4583 76.4323 58.6875 75.4844C58.9167 74.5365 59.0312 73.4479 59.0312 72.2188ZM74.7031 66.0938V69.0625H65.0156V66.0938H74.7031ZM67.6094 61.9375H71.75V78.125C71.75 78.625 71.8177 79.0104 71.9531 79.2812C72.0885 79.5521 72.2917 79.7344 72.5625 79.8281C72.8333 79.9219 73.1562 79.9688 73.5312 79.9688C73.8021 79.9688 74.0521 79.9531 74.2812 79.9219C74.5104 79.8906 74.7031 79.8594 74.8594 79.8281L74.875 82.9219C74.5312 83.0365 74.1406 83.1302 73.7031 83.2031C73.276 83.276 72.7917 83.3125 72.25 83.3125C71.3229 83.3125 70.5104 83.1562 69.8125 82.8438C69.1146 82.5208 68.5729 82.0052 68.1875 81.2969C67.8021 80.5781 67.6094 79.6302 67.6094 78.4531V61.9375ZM81.5 59V83H77.3594V59H81.5ZM80.8438 73.9375H79.625C79.625 72.7604 79.7812 71.6771 80.0938 70.6875C80.4062 69.6979 80.849 68.8385 81.4219 68.1094C81.9948 67.3698 82.6771 66.7969 83.4688 66.3906C84.2708 65.9844 85.1562 65.7812 86.125 65.7812C86.9583 65.7812 87.7135 65.901 88.3906 66.1406C89.0781 66.3698 89.6667 66.7396 90.1562 67.25C90.6458 67.7604 91.0208 68.4271 91.2812 69.25C91.5521 70.0625 91.6875 71.0521 91.6875 72.2188V83H87.5312V72.1875C87.5312 71.4062 87.4167 70.7917 87.1875 70.3438C86.9583 69.8854 86.6302 69.5573 86.2031 69.3594C85.7865 69.1615 85.2708 69.0625 84.6562 69.0625C83.9896 69.0625 83.4167 69.1927 82.9375 69.4531C82.4583 69.7031 82.0625 70.0521 81.75 70.5C81.4479 70.9479 81.2188 71.4635 81.0625 72.0469C80.9167 72.6302 80.8438 73.2604 80.8438 73.9375ZM102.922 83.3125C101.641 83.3125 100.49 83.1042 99.4688 82.6875C98.4479 82.2708 97.5781 81.6927 96.8594 80.9531C96.151 80.2031 95.6042 79.3333 95.2188 78.3438C94.8438 77.3438 94.6562 76.2708 94.6562 75.125V74.5C94.6562 73.1979 94.8438 72.0156 95.2188 70.9531C95.5938 69.8802 96.125 68.9583 96.8125 68.1875C97.5 67.4167 98.3229 66.8229 99.2812 66.4062C100.24 65.9896 101.297 65.7812 102.453 65.7812C103.651 65.7812 104.708 65.9844 105.625 66.3906C106.542 66.7865 107.307 67.349 107.922 68.0781C108.536 68.8073 109 69.6823 109.312 70.7031C109.625 71.7135 109.781 72.8333 109.781 74.0625V75.7969H96.5312V72.9531H105.719V72.6406C105.698 71.9844 105.573 71.3854 105.344 70.8438C105.115 70.2917 104.76 69.8542 104.281 69.5312C103.802 69.1979 103.182 69.0312 102.422 69.0312C101.807 69.0312 101.271 69.1667 100.812 69.4375C100.365 69.6979 99.9896 70.0729 99.6875 70.5625C99.3958 71.0417 99.1771 71.6146 99.0312 72.2812C98.8854 72.9479 98.8125 73.6875 98.8125 74.5V75.125C98.8125 75.8333 98.9062 76.4896 99.0938 77.0938C99.2917 77.6979 99.5781 78.224 99.9531 78.6719C100.339 79.1094 100.797 79.4531 101.328 79.7031C101.87 79.9427 102.484 80.0625 103.172 80.0625C104.036 80.0625 104.818 79.8958 105.516 79.5625C106.224 79.2188 106.839 78.7135 107.359 78.0469L109.438 80.2031C109.083 80.724 108.604 81.224 108 81.7031C107.406 82.1823 106.688 82.5729 105.844 82.875C105 83.1667 104.026 83.3125 102.922 83.3125ZM116.672 69.5469V83H112.547V66.0938H116.453L116.672 69.5469ZM121.812 65.9844L121.75 69.8281C121.521 69.7865 121.26 69.7552 120.969 69.7344C120.688 69.7135 120.422 69.7031 120.172 69.7031C119.536 69.7031 118.979 69.7917 118.5 69.9688C118.021 70.1354 117.62 70.3802 117.297 70.7031C116.984 71.026 116.745 71.4219 116.578 71.8906C116.411 72.349 116.318 72.8698 116.297 73.4531L115.406 73.3438C115.406 72.2708 115.516 71.276 115.734 70.3594C115.953 69.4427 116.271 68.6406 116.688 67.9531C117.104 67.2656 117.625 66.7344 118.25 66.3594C118.885 65.974 119.615 65.7812 120.438 65.7812C120.667 65.7812 120.911 65.8021 121.172 65.8438C121.443 65.875 121.656 65.9219 121.812 65.9844Z" fill="black"/>
</svg>
