<svg width="1440" height="393" viewBox="0 0 1440 393" fill="none" xmlns="http://www.w3.org/2000/svg">
<rect width="1440" height="393" transform="translate(0 0.00976562)" fill="#F1F1F1"/>
<path d="M61.6398 112.269C61.3582 112.269 61.1098 112.077 61.027 111.78C60.9276 111.414 61.1098 111.03 61.4576 110.925C65.8798 109.511 69.2752 104.852 70.2193 99.7041C67.2214 98.6745 64.6376 96.1616 64.6708 92.6365C64.6708 91.3975 65.0848 90.2981 65.7639 89.6525C66.8074 88.6403 68.4802 88.7101 69.6561 89.7921C70.4677 90.5424 71.0474 91.7116 71.4284 93.3695C71.8259 95.1145 71.8921 96.912 71.6934 98.692C71.8424 98.7269 71.9915 98.7443 72.1405 98.7792C76.5793 99.4598 81.2335 97.61 84.2479 93.9279C85.8379 91.9909 86.931 89.5826 87.4445 87.0697C86.3016 86.4241 85.1919 85.6562 84.1651 84.8011C83.0057 83.8239 81.5978 82.4627 81.0678 80.4559C80.571 78.5363 81.1672 75.9361 83.0057 75.0811C83.7841 74.7146 84.6288 74.732 85.4404 75.116C86.7323 75.7442 87.9248 77.3671 88.4714 79.2518C89.1173 81.468 89.2332 83.9112 88.8854 86.3019C92.5955 88.1866 96.7858 88.8846 100.86 88.2389C101.225 88.1866 101.539 88.4483 101.606 88.8148C101.655 89.1813 101.407 89.5303 101.059 89.6001C96.8355 90.2632 92.4961 89.5826 88.637 87.698C88.0407 90.3156 86.8813 92.8285 85.2416 94.8353C81.9291 98.8665 76.8444 100.891 71.9749 100.14C71.8259 100.123 71.6602 100.088 71.5112 100.053C70.4346 105.637 66.7245 110.698 61.8882 112.234C61.822 112.251 61.7557 112.269 61.7061 112.269H61.6398ZM67.5361 90.3156C67.2049 90.3156 66.8902 90.4203 66.6252 90.6646C66.2111 91.0485 65.9627 91.7989 65.9627 92.654C65.9461 95.3763 68.033 97.4006 70.418 98.3255C70.5671 96.7724 70.4843 95.2018 70.153 93.701C69.8383 92.3399 69.4077 91.3975 68.7949 90.8391C68.4636 90.525 67.9999 90.333 67.5361 90.333V90.3156ZM84.1485 76.1805C83.9332 76.1805 83.7179 76.2328 83.5026 76.3201C82.3432 76.861 81.9291 78.7283 82.2935 80.072C82.7075 81.6949 83.9332 82.8641 84.9435 83.7017C85.8048 84.4172 86.6992 85.0629 87.6432 85.6213C87.8917 83.597 87.7592 81.5378 87.2126 79.6532C86.782 78.1524 85.8379 76.8261 84.8773 76.355C84.6288 76.2328 84.3804 76.1805 84.1485 76.1805Z" fill="#0F172A"/>
<path d="M1381.64 281.901C1381.36 281.901 1381.11 281.709 1381.03 281.413C1380.93 281.046 1381.11 280.662 1381.46 280.558C1385.88 279.144 1389.28 274.485 1390.22 269.337C1387.22 268.307 1384.64 265.794 1384.67 262.269C1384.67 261.03 1385.08 259.931 1385.76 259.285C1386.81 258.273 1388.48 258.343 1389.66 259.425C1390.47 260.175 1391.05 261.344 1391.43 263.002C1391.83 264.747 1391.89 266.545 1391.69 268.325C1391.84 268.36 1391.99 268.377 1392.14 268.412C1396.58 269.092 1401.23 267.243 1404.25 263.561C1405.84 261.624 1406.93 259.215 1407.44 256.702C1406.3 256.057 1405.19 255.289 1404.17 254.434C1403.01 253.457 1401.6 252.095 1401.07 250.089C1400.57 248.169 1401.17 245.569 1403.01 244.714C1403.78 244.347 1404.63 244.365 1405.44 244.749C1406.73 245.377 1407.92 247 1408.47 248.884C1409.12 251.101 1409.23 253.544 1408.89 255.935C1412.6 257.819 1416.79 258.517 1420.86 257.872C1421.22 257.819 1421.54 258.081 1421.61 258.448C1421.66 258.814 1421.41 259.163 1421.06 259.233C1416.84 259.896 1412.5 259.215 1408.64 257.331C1408.04 259.948 1406.88 262.461 1405.24 264.468C1401.93 268.499 1396.84 270.523 1391.97 269.773C1391.83 269.756 1391.66 269.721 1391.51 269.686C1390.43 275.27 1386.72 280.331 1381.89 281.866C1381.82 281.884 1381.76 281.901 1381.71 281.901H1381.64ZM1387.54 259.948C1387.2 259.948 1386.89 260.053 1386.63 260.297C1386.21 260.681 1385.96 261.432 1385.96 262.287C1385.95 265.009 1388.03 267.033 1390.42 267.958C1390.57 266.405 1390.48 264.834 1390.15 263.334C1389.84 261.973 1389.41 261.03 1388.79 260.472C1388.46 260.158 1388 259.966 1387.54 259.966V259.948ZM1404.15 245.813C1403.93 245.813 1403.72 245.866 1403.5 245.953C1402.34 246.494 1401.93 248.361 1402.29 249.705C1402.71 251.328 1403.93 252.497 1404.94 253.334C1405.8 254.05 1406.7 254.696 1407.64 255.254C1407.89 253.23 1407.76 251.171 1407.21 249.286C1406.78 247.785 1405.84 246.459 1404.88 245.988C1404.63 245.865 1404.38 245.813 1404.15 245.813Z" fill="#0F172A"/>
<path d="M151.062 111.673C147.716 111.673 145 108.811 145 105.286C145 101.761 147.716 98.8992 151.062 98.8992C154.408 98.8992 157.124 101.761 157.124 105.286C157.124 108.811 154.408 111.673 151.062 111.673ZM151.062 100.278C148.445 100.278 146.308 102.529 146.308 105.286C146.308 108.043 148.445 110.295 151.062 110.295C153.679 110.295 155.815 108.043 155.815 105.286C155.815 102.529 153.679 100.278 151.062 100.278Z" fill="#0F172A"/>
<path d="M61.0619 210.864C57.7163 210.864 55 208.002 55 204.477C55 200.952 57.7163 198.09 61.0619 198.09C64.4076 198.09 67.1239 200.952 67.1239 204.477C67.1239 208.002 64.4076 210.864 61.0619 210.864ZM61.0619 199.469C58.445 199.469 56.3085 201.72 56.3085 204.477C56.3085 207.234 58.445 209.486 61.0619 209.486C63.6788 209.486 65.8154 207.234 65.8154 204.477C65.8154 201.72 63.6788 199.469 61.0619 199.469Z" fill="#0F172A"/>
<path d="M1380.06 345.727C1376.72 345.727 1374 342.866 1374 339.34C1374 335.815 1376.72 332.953 1380.06 332.953C1383.41 332.953 1386.12 335.815 1386.12 339.34C1386.12 342.866 1383.41 345.727 1380.06 345.727ZM1380.06 334.332C1377.45 334.332 1375.31 336.583 1375.31 339.34C1375.31 342.098 1377.45 344.349 1380.06 344.349C1382.68 344.349 1384.82 342.098 1384.82 339.34C1384.82 336.583 1382.68 334.332 1380.06 334.332Z" fill="#0F172A"/>
<path d="M1396.24 185.768L1392.27 183.412C1389.61 184.236 1388.16 184.687 1385.49 185.511L1383.36 189.747C1378.39 188.485 1379.04 188.64 1374.07 187.378L1374.02 182.588C1372.01 180.567 1370.91 179.473 1368.9 177.451L1364.35 177.631C1362.91 172.456 1363.09 173.138 1361.65 167.962L1365.57 165.516C1366.22 162.671 1366.59 161.126 1367.23 158.28L1364.82 154.225C1368.35 150.324 1367.88 150.839 1371.41 146.925L1375.39 149.281C1378.05 148.457 1379.5 148.006 1382.17 147.182L1384.29 142.946C1389.27 144.208 1388.62 144.053 1393.59 145.315L1393.64 150.105C1395.65 152.126 1396.75 153.22 1398.76 155.242L1403.31 155.062C1404.75 160.237 1404.57 159.555 1406.01 164.731L1402.09 167.177C1401.44 170.022 1401.07 171.567 1400.42 174.413L1402.84 178.468C1399.31 182.369 1399.78 181.854 1396.24 185.768Z" fill="white"/>
<path d="M1383.36 190.442C1383.36 190.442 1383.27 190.442 1383.22 190.429L1373.92 188.06C1373.63 187.983 1373.43 187.713 1373.42 187.404L1373.37 182.897L1368.65 178.159L1364.38 178.327C1364.06 178.327 1363.81 178.134 1363.73 177.837L1361.03 168.168C1360.94 167.872 1361.06 167.55 1361.32 167.383L1365 165.091L1366.54 158.409L1364.27 154.598C1364.11 154.328 1364.14 153.993 1364.34 153.761L1370.94 146.461C1371.15 146.229 1371.46 146.178 1371.72 146.332L1375.45 148.547L1381.7 146.603L1383.71 142.611C1383.84 142.341 1384.15 142.199 1384.43 142.264L1393.73 144.633C1394.02 144.71 1394.22 144.98 1394.23 145.289L1394.28 149.796L1398.99 154.534L1403.27 154.366C1403.56 154.366 1403.83 154.559 1403.92 154.856L1406.62 164.525C1406.7 164.821 1406.58 165.143 1406.33 165.31L1402.65 167.602L1401.11 174.284L1403.38 178.095C1403.54 178.365 1403.5 178.7 1403.31 178.932L1396.71 186.232C1396.5 186.464 1396.18 186.515 1395.93 186.361L1392.2 184.146L1385.94 186.09L1383.94 190.082C1383.83 190.313 1383.6 190.442 1383.36 190.442ZM1374.71 186.85L1383.02 188.974L1384.92 185.202C1385 185.035 1385.14 184.919 1385.31 184.867L1392.09 182.769C1392.26 182.717 1392.44 182.743 1392.59 182.833L1396.12 184.919L1402.02 178.391L1399.87 174.786C1399.78 174.632 1399.75 174.438 1399.79 174.258L1401.45 167.022C1401.49 166.842 1401.6 166.688 1401.76 166.598L1405.24 164.422L1402.82 155.77L1398.77 155.924C1398.59 155.924 1398.43 155.86 1398.3 155.731L1393.18 150.594C1393.06 150.465 1392.98 150.285 1392.98 150.105L1392.93 145.843L1384.62 143.719L1382.73 147.491C1382.64 147.658 1382.51 147.774 1382.34 147.826L1375.56 149.924C1375.39 149.976 1375.2 149.95 1375.06 149.86L1371.52 147.774L1365.62 154.302L1367.77 157.907C1367.87 158.061 1367.89 158.255 1367.86 158.435L1366.2 165.671C1366.16 165.851 1366.05 166.005 1365.89 166.095L1362.41 168.271L1364.83 176.923L1368.87 176.769C1369.04 176.769 1369.21 176.833 1369.35 176.962L1374.47 182.099C1374.59 182.228 1374.66 182.408 1374.66 182.588L1374.71 186.85Z" fill="#0F172A"/>
<path d="M1383.83 175.778C1388.77 175.778 1392.77 171.558 1392.77 166.353C1392.77 161.148 1388.77 156.928 1383.83 156.928C1378.89 156.928 1374.88 161.148 1374.88 166.353C1374.88 171.558 1378.89 175.778 1383.83 175.778Z" fill="white"/>
<path d="M1383.83 176.473C1378.54 176.473 1374.24 171.941 1374.24 166.366C1374.24 160.791 1378.54 156.259 1383.83 156.259C1389.12 156.259 1393.42 160.791 1393.42 166.366C1393.42 171.941 1389.12 176.473 1383.83 176.473ZM1383.83 157.611C1379.25 157.611 1375.53 161.538 1375.53 166.353C1375.53 171.168 1379.26 175.095 1383.83 175.095C1388.4 175.095 1392.13 171.168 1392.13 166.353C1392.13 161.538 1388.4 157.611 1383.83 157.611Z" fill="#0F172A"/>
<path d="M146.245 277.283L142.273 274.926C139.609 275.75 138.155 276.201 135.491 277.025L133.365 281.261C128.392 279.999 129.039 280.154 124.066 278.892L124.017 274.102C122.013 272.081 120.913 270.987 118.897 268.965L114.351 269.146C112.909 263.97 113.092 264.652 111.65 259.476L115.573 257.03C116.221 254.185 116.587 252.64 117.235 249.794L114.815 245.739C118.347 241.838 117.882 242.353 121.414 238.439L125.385 240.795C128.049 239.971 129.504 239.52 132.167 238.696L134.294 234.46C139.267 235.722 138.62 235.568 143.593 236.829L143.642 241.619C145.646 243.64 146.746 244.735 148.762 246.756L153.308 246.576C154.75 251.751 154.566 251.069 156.008 256.245L152.086 258.691C151.438 261.536 151.071 263.081 150.424 265.927L152.843 269.982C149.312 273.884 149.776 273.369 146.245 277.283Z" fill="white"/>
<path d="M133.365 281.956C133.365 281.956 133.267 281.956 133.218 281.943L123.919 279.574C123.626 279.497 123.43 279.227 123.418 278.918L123.369 274.411L118.652 269.673L114.375 269.841C114.058 269.841 113.813 269.648 113.728 269.352L111.027 259.682C110.942 259.386 111.064 259.064 111.32 258.897L114.999 256.605L116.538 249.923L114.265 246.112C114.106 245.842 114.143 245.507 114.339 245.275L120.937 237.975C121.145 237.743 121.463 237.692 121.719 237.846L125.446 240.061L131.703 238.117L133.707 234.126C133.841 233.855 134.147 233.714 134.428 233.778L143.727 236.147C144.021 236.224 144.216 236.495 144.228 236.804L144.277 241.31L148.994 246.048L153.271 245.88C153.564 245.88 153.833 246.074 153.919 246.37L156.619 256.039C156.705 256.335 156.583 256.657 156.326 256.824L152.648 259.116L151.108 265.798L153.381 269.609C153.54 269.879 153.503 270.214 153.308 270.446L146.709 277.746C146.501 277.978 146.183 278.029 145.927 277.875L142.2 275.66L135.943 277.604L133.939 281.596C133.829 281.827 133.597 281.956 133.365 281.956ZM124.713 278.364L133.023 280.488L134.917 276.716C135.002 276.549 135.137 276.433 135.308 276.381L142.09 274.283C142.261 274.231 142.444 274.257 142.591 274.347L146.122 276.433L152.025 269.905L149.874 266.3C149.776 266.146 149.752 265.953 149.788 265.772L151.45 258.537C151.487 258.356 151.597 258.202 151.756 258.112L155.238 255.936L152.819 247.284L148.774 247.438C148.591 247.438 148.432 247.374 148.297 247.245L143.177 242.108C143.055 241.979 142.982 241.799 142.982 241.619L142.933 237.357L134.624 235.233L132.729 239.005C132.644 239.173 132.509 239.288 132.338 239.34L125.556 241.439C125.385 241.49 125.202 241.464 125.055 241.374L121.524 239.288L115.622 245.816L117.772 249.421C117.87 249.576 117.895 249.769 117.858 249.949L116.196 257.185C116.159 257.365 116.049 257.519 115.891 257.61L112.408 259.785L114.827 268.437L118.872 268.283C119.043 268.283 119.214 268.347 119.349 268.476L124.469 273.613C124.591 273.742 124.664 273.922 124.664 274.102L124.713 278.364Z" fill="#0F172A"/>
<path d="M133.829 267.292C138.769 267.292 142.774 263.072 142.774 257.867C142.774 252.662 138.769 248.443 133.829 248.443C128.889 248.443 124.884 252.662 124.884 257.867C124.884 263.072 128.889 267.292 133.829 267.292Z" fill="white"/>
<path d="M133.829 267.987C128.538 267.987 124.236 263.455 124.236 257.88C124.236 252.305 128.538 247.773 133.829 247.773C139.12 247.773 143.421 252.305 143.421 257.88C143.421 263.455 139.12 267.987 133.829 267.987ZM133.829 249.125C129.246 249.125 125.532 253.052 125.532 257.867C125.532 262.682 129.259 266.609 133.829 266.609C138.399 266.609 142.126 262.682 142.126 257.867C142.126 253.052 138.399 249.125 133.829 249.125Z" fill="#0F172A"/>
<path d="M172.896 372.238C174.792 372.238 176.329 370.618 176.329 368.62C176.329 366.622 174.792 365.002 172.896 365.002C170.999 365.002 169.462 366.622 169.462 368.62C169.462 370.618 170.999 372.238 172.896 372.238Z" fill="white"/>
<path d="M172.896 372.92C170.647 372.92 168.814 370.989 168.814 368.62C168.814 366.251 170.647 364.32 172.896 364.32C175.144 364.32 176.977 366.251 176.977 368.62C176.977 370.989 175.144 372.92 172.896 372.92ZM172.896 365.698C171.356 365.698 170.11 367.011 170.11 368.633C170.11 370.255 171.356 371.569 172.896 371.569C174.436 371.569 175.682 370.255 175.682 368.633C175.682 367.011 174.436 365.698 172.896 365.698Z" fill="#0F172A"/>
<path d="M1339.58 236.043C1337.05 236.043 1335 233.88 1335 231.215C1335 228.55 1337.05 226.387 1339.58 226.387C1342.11 226.387 1344.16 228.55 1344.16 231.215C1344.16 233.88 1342.11 236.043 1339.58 236.043ZM1339.58 227.752C1337.77 227.752 1336.3 229.31 1336.3 231.215C1336.3 233.121 1337.77 234.679 1339.58 234.679C1341.39 234.679 1342.87 233.121 1342.87 231.215C1342.87 229.31 1341.39 227.752 1339.58 227.752Z" fill="#0F172A"/>
</svg>
