<svg width="512" height="510" viewBox="0 0 512 510" fill="none" xmlns="http://www.w3.org/2000/svg">
<g clip-path="url(#clip0_16_3867)">
<path d="M276.13 248.213C272.692 262.979 272.657 283.539 272.657 283.539L281.321 287.063C281.321 287.063 289.521 320.774 237.847 310.442C227.807 308.431 198.738 286.358 198.738 286.358L221.722 279.792C221.722 279.792 223.922 246.391 224.799 229.785C236.884 235.406 261.638 243.675 276.13 248.196V248.213Z" fill="white"/>
<path d="M255.485 313.347C250.259 313.347 244.328 312.677 237.675 311.353C227.55 309.325 199.392 288.009 198.206 287.115C197.931 286.909 197.793 286.565 197.862 286.221C197.931 285.877 198.172 285.602 198.515 285.516L220.88 279.121C221.19 274.411 223.115 244.912 223.923 229.768C223.923 229.458 224.112 229.183 224.37 229.028C224.628 228.874 224.954 228.856 225.229 228.977C236.695 234.323 259.988 242.213 276.44 247.353C276.904 247.491 277.162 247.972 277.059 248.436C274.016 261.518 273.655 279.431 273.603 282.955L281.7 286.255C281.975 286.358 282.181 286.599 282.25 286.891C282.37 287.355 284.932 298.357 277.471 306.127C272.847 310.958 265.489 313.365 255.519 313.365L255.485 313.347ZM200.767 286.754C206.784 291.223 229.579 307.881 238.036 309.566C256.705 313.296 269.512 311.714 276.113 304.855C282.078 298.65 280.909 289.814 280.531 287.734L272.314 284.382C271.97 284.244 271.747 283.9 271.747 283.539C271.747 283.333 271.833 263.461 275.064 248.832C259.181 243.846 237.366 236.455 225.659 231.177C224.748 247.989 222.668 279.534 222.651 279.86C222.634 280.239 222.359 280.565 221.998 280.686L200.785 286.754H200.767Z" fill="#0F172A"/>
<path d="M250.861 124.287C227.723 123.376 205.203 138.28 206.957 150.417C195.903 147.168 183.251 168.346 183.698 178.265C184.265 191.003 209.106 233.034 214.4 239.721C216.893 242.867 218.681 244.294 222.978 245.6C222.703 242.093 226.072 239.841 226.124 236.317C226.193 231.968 220.348 224.387 224.938 224.49C246.821 225.023 244.002 229.974 285.551 189.559C290.846 184.402 294.319 171.956 295.487 162.553C296.622 153.408 290.072 125.834 250.861 124.287Z" fill="#0F172A"/>
<path d="M222.978 246.511C222.892 246.511 222.806 246.511 222.72 246.477C218.079 245.084 216.188 243.451 213.695 240.305C208.211 233.377 183.371 191.158 182.804 178.317C182.46 170.753 189.01 158.238 196.247 152.548C199.565 149.952 202.9 148.835 205.959 149.265C205.891 145.775 207.558 142.045 210.824 138.418C217.787 130.682 233.309 122.688 250.913 123.376C267.192 124.012 280.033 129.341 288.044 138.779C295.865 147.993 296.931 158.427 296.416 162.656C295.178 172.627 291.534 185.021 286.204 190.195C248.815 226.57 247.148 226.484 231.161 225.642C229.338 225.539 227.258 225.436 224.938 225.384C224.56 225.367 224.267 225.436 224.199 225.539C223.803 226.106 224.749 228.513 225.385 230.111C226.227 232.243 227.104 234.443 227.069 236.317C227.035 238.242 226.175 239.772 225.333 241.234C224.542 242.643 223.786 243.967 223.906 245.514C223.924 245.806 223.803 246.116 223.563 246.288C223.391 246.425 223.202 246.494 222.995 246.494L222.978 246.511ZM204.636 151.001C201.834 151.001 199.221 152.531 197.364 153.992C189.955 159.785 184.334 172.008 184.609 178.248C185.159 190.762 209.69 232.346 215.105 239.171C217.185 241.784 218.715 243.193 222.084 244.362C222.29 242.867 223.012 241.595 223.7 240.357C224.456 239.033 225.161 237.778 225.196 236.3C225.23 234.804 224.388 232.673 223.648 230.799C222.617 228.169 221.706 225.9 222.669 224.524C223.116 223.871 223.889 223.562 224.955 223.579C227.31 223.631 229.39 223.751 231.229 223.837C246.495 224.645 248.093 224.714 284.898 188.906C289.918 184.024 293.356 172.094 294.559 162.45C295.058 158.496 294.026 148.697 286.617 139.965C278.83 130.802 266.779 125.834 250.809 125.198C233.774 124.528 218.835 132.212 212.148 139.638C208.847 143.3 207.369 146.978 207.85 150.279C207.902 150.588 207.782 150.898 207.541 151.104C207.3 151.31 206.991 151.379 206.682 151.293C205.994 151.087 205.289 151.001 204.619 151.001H204.636Z" fill="#0F172A"/>
<path d="M286.892 182.992C286.858 182.734 278.968 183.749 272.315 174.277C271.009 179.296 270.321 184.557 260.024 184.058C255.021 183.817 247.681 175.669 245.825 170.787C245.825 170.787 256.775 168.157 209.174 189.095C209.243 190.075 209.278 191.02 209.312 191.931C209.415 195.301 209.587 202.658 211.426 209.844C205.152 206.01 200.631 207.454 197.657 211.477C194.683 215.499 195.783 221.018 199.685 223.991C203.588 226.965 209.759 227.412 214.847 225.539C217.495 234.185 222.085 251.599 229.356 258.544C237.092 265.919 249.417 269.58 261.399 268.051C273.381 266.521 284.692 259.834 290.812 250.688C297.757 240.288 297.843 227.859 295.488 216.548C293.133 205.237 288.594 194.424 286.892 182.992Z" fill="white"/>
<path d="M255.933 269.288C245.533 269.288 235.459 265.627 228.703 259.18C221.999 252.786 217.684 238.294 214.83 228.702C214.624 227.997 214.418 227.309 214.229 226.673C208.883 228.324 202.917 227.567 199.118 224.679C194.683 221.293 193.703 215.242 196.918 210.91C200.167 206.509 204.791 205.529 210.069 208.039C208.676 201.575 208.504 195.318 208.401 192.155V191.931C208.367 191.123 208.332 190.195 208.264 189.112C208.246 188.734 208.453 188.373 208.814 188.218C234.41 176.959 242.49 172.747 245.034 171.2C245.034 171.165 245 171.114 244.982 171.079C244.896 170.839 244.914 170.564 245.034 170.323C245.154 170.1 245.378 169.928 245.636 169.859C246.083 169.756 247.441 169.429 247.802 170.461C247.939 170.873 247.974 171.217 247.338 171.801C249.761 176.443 256.019 182.924 260.093 183.113C269.066 183.543 270.08 179.52 271.249 174.879C271.318 174.586 271.387 174.311 271.473 174.019C271.559 173.675 271.851 173.417 272.195 173.349C272.539 173.28 272.9 173.435 273.106 173.727C276.733 178.884 281.254 181.652 286.532 181.995C287.013 182.03 287.735 182.064 287.838 182.838C288.784 189.215 290.675 195.559 292.497 201.678C293.924 206.44 295.385 211.374 296.416 216.342C299.321 230.318 297.706 242.042 291.603 251.17C285.328 260.556 273.811 267.363 261.554 268.927C259.697 269.168 257.841 269.288 255.984 269.288H255.933ZM214.83 224.61C214.968 224.61 215.105 224.645 215.243 224.714C215.466 224.817 215.638 225.023 215.707 225.264C215.982 226.158 216.274 227.137 216.584 228.203C219.214 237.039 223.615 251.823 229.975 257.874C237.539 265.094 249.538 268.635 261.279 267.14C273.037 265.644 284.056 259.129 290.039 250.173C295.849 241.474 297.379 230.215 294.577 216.737C293.563 211.855 292.101 206.956 290.692 202.229C288.921 196.263 287.082 190.109 286.085 183.835C280.893 183.422 276.407 180.912 272.711 176.357C271.542 180.826 269.702 185.451 259.955 184.987C255.159 184.763 248.541 178.024 245.773 172.902C244.742 173.538 243.195 174.363 240.96 175.497C234.806 178.609 224.423 183.371 210.103 189.679C210.155 190.522 210.189 191.244 210.206 191.914V192.138C210.309 195.559 210.533 202.693 212.286 209.62C212.372 209.981 212.235 210.36 211.942 210.583C211.65 210.807 211.238 210.824 210.928 210.635C205.668 207.42 201.439 207.884 198.379 212.027C195.766 215.568 196.591 220.502 200.219 223.27C203.76 225.951 209.501 226.536 214.504 224.679C214.607 224.645 214.71 224.628 214.813 224.628L214.83 224.61Z" fill="#0F172A"/>
<path d="M278.675 201.077C278.623 199.65 277.368 198.532 275.873 198.567C274.36 198.618 273.174 199.805 273.225 201.231C273.277 202.658 274.532 203.776 276.027 203.741C277.54 203.69 278.726 202.503 278.675 201.077Z" fill="#0F172A"/>
<path d="M241.286 208.555C241.234 207.128 239.979 206.01 238.484 206.045C236.971 206.096 235.785 207.283 235.837 208.709C235.888 210.136 237.143 211.254 238.639 211.219C240.151 211.168 241.338 209.981 241.286 208.555Z" fill="#0F172A"/>
<path d="M256.826 251.256C253.405 251.256 249.984 250.052 247.406 247.783C247.028 247.456 246.993 246.872 247.32 246.494C247.647 246.116 248.231 246.081 248.609 246.408C252.099 249.468 257.308 250.293 261.571 248.471C262.035 248.264 262.568 248.488 262.774 248.952C262.963 249.416 262.757 249.949 262.293 250.155C260.557 250.895 258.7 251.256 256.826 251.256Z" fill="#0F172A"/>
<path d="M261.433 236.162C261.433 236.162 261.364 236.162 261.33 236.162C258.442 236.145 255.795 235.028 254.076 233.12C253.732 232.741 253.766 232.174 254.144 231.83C254.523 231.486 255.09 231.521 255.434 231.899C256.792 233.412 259.009 234.323 261.347 234.34C263.41 234.34 265.628 233.756 267.931 232.518C268.722 232.105 269.599 231.572 270.08 230.799C270.682 229.871 270.733 228.495 270.235 227.12C269.805 225.968 269.1 224.937 268.344 223.837L267.983 223.304C263.616 216.892 260.746 209.431 259.663 201.747C259.594 201.248 259.938 200.784 260.436 200.716C260.935 200.647 261.399 200.991 261.468 201.489C262.499 208.898 265.267 216.084 269.478 222.272L269.839 222.788C270.63 223.923 271.438 225.109 271.937 226.484C272.641 228.427 272.521 230.352 271.61 231.779C270.888 232.896 269.771 233.584 268.773 234.117C266.229 235.457 263.771 236.145 261.433 236.145V236.162Z" fill="#0F172A"/>
<path d="M212.853 216.479C212.458 216.479 212.097 216.221 211.977 215.809C211.1 212.732 210.704 211.082 210 208.09C209.879 207.609 210.189 207.111 210.67 206.99C211.151 206.87 211.65 207.179 211.77 207.661C212.475 210.635 212.87 212.268 213.73 215.31C213.868 215.792 213.592 216.307 213.094 216.428C213.008 216.445 212.922 216.462 212.853 216.462V216.479Z" fill="#0F172A"/>
<path d="M212.818 413.585C218.731 361.738 218.559 310.476 214.313 280.961C194.029 282.267 159.424 287.527 144.83 299.698C114.42 325.088 114.368 365.606 107.182 403.339C100.581 438.064 97.5558 472.29 106.856 484.237C107.75 485.372 114.574 489.893 116.001 489.652C120.299 488.896 149.918 457.867 149.918 467.116C149.918 485.75 147.58 493.262 147.58 493.262H198.842C198.842 493.262 210.806 431.257 212.818 413.585Z" fill="#0F172A"/>
<path d="M198.842 494.174H147.58C147.288 494.174 147.013 494.036 146.841 493.795C146.669 493.555 146.618 493.262 146.704 492.987C146.721 492.919 149.007 485.338 149.007 467.116C149.007 466.703 148.921 466.411 148.801 466.342C146.583 465.328 135.324 475.109 128.602 480.971C121.795 486.885 117.875 490.254 116.156 490.546C114.111 490.907 106.908 485.802 106.134 484.805C95.9232 471.671 100.582 433.165 106.289 403.185C107.63 396.119 108.747 388.831 109.83 381.782C114.472 351.338 119.285 319.845 144.246 299.01C158.101 287.441 190.608 281.579 214.245 280.049C214.709 280.015 215.139 280.359 215.208 280.823C219.849 312.986 219.265 365.125 213.729 413.671C211.735 431.171 199.857 492.798 199.736 493.417C199.65 493.847 199.272 494.156 198.842 494.156V494.174ZM148.767 492.351H198.086C199.444 485.286 210.033 429.864 211.907 413.482C217.391 365.503 218.01 314.018 213.523 281.94C190.23 283.522 158.771 289.263 145.414 300.42C120.987 320.808 116.431 350.565 111.635 382.057C110.552 389.123 109.435 396.429 108.094 403.528C100.015 446.006 99.8426 473.734 107.596 483.687C108.455 484.805 114.712 488.759 115.881 488.759C117.153 488.535 122.603 483.79 127.416 479.596C138.813 469.694 146.498 463.3 149.575 464.692C150.159 464.95 150.847 465.586 150.847 467.116C150.847 481.779 149.42 489.566 148.767 492.351Z" fill="#0F172A"/>
<path d="M367.6 466.325C383.467 464.383 397.7 405.351 373.634 401.242C370.316 400.675 356.306 344.393 328.096 308.912C313.072 290.02 281.029 285.396 276.422 283.556C297.119 319.347 264.423 493.263 264.423 493.263L307.244 493.349C307.244 493.349 316.957 429.28 318.779 414.513C320.154 422.885 330.95 441.846 343.155 456.338C347.693 461.735 351.785 460.687 354.621 463.523C357.904 466.807 363.955 466.772 367.6 466.325Z" fill="#0F172A"/>
<path d="M307.245 494.26L264.423 494.174C264.148 494.174 263.89 494.053 263.719 493.847C263.547 493.641 263.478 493.366 263.529 493.091C263.856 491.354 295.933 319.089 275.649 284.003C275.46 283.66 275.494 283.247 275.752 282.955C276.01 282.662 276.422 282.559 276.783 282.697C277.54 283.006 279.259 283.419 281.425 283.952C291.842 286.513 316.27 292.53 328.819 308.328C348.295 332.841 361.205 367.669 368.133 386.39C370.626 393.128 372.981 399.489 373.909 400.348C382.814 401.947 387.73 411.075 387.387 425.395C386.957 443.29 378.087 465.947 367.703 467.202C364.162 467.632 357.647 467.821 353.968 464.142C352.954 463.128 351.699 462.664 350.238 462.113C348.038 461.288 345.287 460.274 342.451 456.905C332.291 444.854 322.596 428.936 319.089 419.086C316.373 439.164 308.225 492.884 308.139 493.469C308.07 493.916 307.692 494.242 307.245 494.242V494.26ZM265.506 492.351L306.454 492.437C307.571 485.097 316.184 428.111 317.868 414.393C317.92 413.946 318.298 413.602 318.762 413.585C319.226 413.585 319.605 413.894 319.673 414.341C321.083 422.885 332.154 441.846 343.843 455.736C346.37 458.744 348.76 459.638 350.874 460.412C352.456 460.996 353.951 461.563 355.258 462.853C358.507 466.102 364.884 465.723 367.48 465.397C375.989 464.365 385.1 444.149 385.547 425.343C385.702 419 384.825 404.061 373.462 402.119C372.035 401.878 371.004 399.42 366.414 387.008C359.521 368.391 346.68 333.735 327.375 309.445C315.204 294.128 291.206 288.232 280.961 285.705C279.912 285.447 278.984 285.224 278.21 285.018C285.911 301.366 286.204 340.663 279.07 401.895C274.033 445.181 266.778 485.303 265.489 492.317L265.506 492.351Z" fill="#0F172A"/>
<path d="M159.202 455.237C159.202 455.237 159.047 455.237 158.978 455.203C158.497 455.083 158.205 454.584 158.325 454.086C162.537 437.858 165.081 421.08 168.622 397.838C171.029 382.023 174.02 362.357 178.369 337.414C178.455 336.916 178.919 336.589 179.418 336.675C179.916 336.761 180.243 337.242 180.157 337.723C175.808 362.65 172.816 382.315 170.427 398.113C166.886 421.407 164.324 438.219 160.096 454.55C159.992 454.962 159.614 455.237 159.219 455.237H159.202Z" fill="#0F172A"/>
<path d="M318.78 415.407C318.522 415.407 318.282 415.304 318.093 415.098C317.835 414.823 317.8 414.427 317.955 414.101C318.316 412.605 319.588 397.374 320.929 381.284C321.754 371.296 322.7 359.968 323.576 350.238C323.628 349.74 324.075 349.361 324.573 349.413C325.072 349.464 325.45 349.894 325.398 350.41C324.539 360.14 323.593 371.451 322.751 381.439C319.983 414.651 319.898 414.719 319.382 415.184C319.21 415.338 318.986 415.424 318.78 415.424V415.407Z" fill="#0F172A"/>
<path d="M105.516 454.636C105.516 454.636 105.361 454.601 105.292 454.55C105.172 454.429 105.172 454.24 105.292 454.12C117.016 442.465 136.098 436.603 153.941 439.164C154.113 439.181 154.216 439.336 154.199 439.508C154.182 439.68 154.027 439.783 153.855 439.766C136.201 437.222 117.309 443.015 105.722 454.55C105.671 454.601 105.585 454.636 105.516 454.636Z" fill="#0F172A"/>
<path d="M106.976 460.223C106.856 460.223 106.736 460.154 106.701 460.033C106.632 459.879 106.701 459.707 106.873 459.638C108.884 458.83 110.586 457.317 112.202 455.856C112.787 455.323 113.405 454.79 114.007 454.275C117.823 451.146 122.396 449.118 127.278 448.396C127.45 448.378 127.605 448.481 127.622 448.653C127.639 448.825 127.536 448.98 127.364 448.997C122.602 449.702 118.116 451.696 114.385 454.739C113.784 455.237 113.182 455.77 112.597 456.303C110.93 457.799 109.211 459.346 107.079 460.188C107.045 460.188 107.011 460.205 106.959 460.205L106.976 460.223Z" fill="#0F172A"/>
<path d="M254.625 324.384C245.205 324.384 235.785 322.235 227.344 318.058C227.189 317.989 227.138 317.8 227.207 317.645C227.275 317.49 227.465 317.439 227.619 317.507C238.862 323.06 251.875 325.003 264.269 322.991C270.836 321.925 275.443 319.794 278.365 316.493C278.469 316.373 278.675 316.356 278.795 316.459C278.915 316.562 278.933 316.768 278.83 316.889C275.804 320.31 271.077 322.493 264.39 323.576C261.175 324.091 257.926 324.349 254.66 324.349L254.625 324.384Z" fill="#0F172A"/>
<path d="M436.243 354.003C446.351 343.895 442.122 336.915 453.433 323.541C458.143 317.972 462.699 313.141 466.876 308.74C469.059 306.437 471.036 303.446 473.305 305.354C476.004 307.623 473.047 313.76 471.706 315.737C466.515 323.369 466.91 325.896 467.151 328.716C476.073 321.839 489.911 312.66 500.621 309.187C501.429 308.929 503.492 309.067 504.007 309.772C504.729 310.752 504.042 313.261 502.477 314.379C496.1 318.917 486.714 325.467 480.336 329.988C491.871 322.665 507.033 313.399 509.457 316.424C510.213 317.37 509.8 319.966 508.167 321.135C501.24 326.154 492.129 332.412 485.201 337.431C491.132 332.36 509.508 321.547 510.969 325.415C512.431 329.3 495.446 339.993 488.278 344.342C494.071 340.732 507.652 332.24 509.182 335.832C510.333 338.549 506.259 341.024 504.901 342.09C494.088 350.479 481.333 361.979 469.506 366.191C466.687 367.205 462.389 367.652 459.983 369.423C457.421 371.279 456.046 373.497 453.966 375.869C395.828 442.087 377.4 464.589 366.931 462.354C358.146 460.48 364.679 424.638 373.635 401.242C378.397 401.414 414.823 375.439 436.26 354.003H436.243Z" fill="white"/>
<path d="M368.339 463.42C367.789 463.42 367.256 463.368 366.724 463.248C365.4 462.973 364.317 462.079 363.526 460.635C358.816 451.971 364.626 422.215 372.757 400.916C372.895 400.555 373.256 400.314 373.651 400.331H373.686C378.052 400.331 413.499 375.439 435.588 353.367C440.471 348.485 441.88 344.445 443.496 339.752C445.112 335.076 446.951 329.799 452.727 322.957C457.283 317.559 461.701 312.866 466.205 308.122C466.531 307.778 466.841 307.434 467.15 307.09C468.99 305.044 471.276 302.483 473.872 304.683C477.275 307.554 473.597 314.551 472.428 316.27C468.457 322.115 467.872 324.796 467.907 326.979C477.275 319.897 490.306 311.594 500.293 308.345C501.222 308.053 503.835 308.087 504.694 309.256C505.107 309.806 505.244 310.631 505.107 311.577C504.935 312.694 504.264 314.224 502.958 315.152C501.686 316.064 500.293 317.043 498.815 318.075C505.399 314.774 508.785 314.224 510.126 315.892C510.608 316.493 510.797 317.387 510.642 318.436C510.453 319.863 509.714 321.152 508.665 321.908C507.359 322.854 505.949 323.868 504.505 324.899C506.946 323.971 509.009 323.507 510.264 323.816C511.209 324.057 511.622 324.659 511.794 325.123C512.12 325.982 512.911 328.114 504.367 334.715C506.138 334.131 507.582 333.924 508.579 334.234C509.25 334.44 509.748 334.887 510.023 335.506C511.33 338.566 507.874 341.076 506.035 342.416C505.811 342.571 505.622 342.726 505.468 342.846C503.405 344.445 501.308 346.13 499.073 347.917C489.91 355.275 479.527 363.612 469.832 367.085C468.835 367.446 467.7 367.721 466.497 368.013C464.279 368.563 461.993 369.13 460.532 370.196C458.796 371.468 457.644 372.878 456.32 374.511C455.804 375.147 455.254 375.818 454.67 376.505C449.203 382.728 444.098 388.556 439.319 394.022C394.967 444.648 378.499 463.454 368.374 463.454L368.339 463.42ZM374.287 402.067C366.397 422.919 360.827 451.834 365.142 459.758C365.675 460.738 366.311 461.306 367.119 461.46C376.092 463.351 392.922 444.149 437.926 392.767C442.705 387.301 447.828 381.473 453.277 375.25C453.845 374.597 454.378 373.944 454.893 373.325C456.251 371.657 457.523 370.093 459.449 368.683C461.185 367.411 463.66 366.793 466.05 366.208C467.202 365.916 468.302 365.658 469.213 365.331C478.616 361.979 488.879 353.728 497.938 346.456C500.173 344.668 502.287 342.967 504.35 341.351C504.522 341.213 504.728 341.058 504.969 340.887C506.413 339.838 509.095 337.895 508.356 336.176C508.321 336.09 508.27 336.004 508.046 335.936C505.64 335.179 497.663 339.683 492.317 342.915C491.2 343.62 490.013 344.342 488.759 345.098C488.329 345.356 487.779 345.219 487.504 344.789C487.246 344.359 487.366 343.809 487.796 343.534L487.951 343.431C489.016 342.76 490.082 342.107 491.131 341.471C510.711 329.231 510.247 326.034 510.109 325.69C510.109 325.656 510.075 325.57 509.834 325.518C507.479 324.917 499.554 328.836 492.987 332.962C490.443 334.75 487.968 336.52 485.733 338.119C485.338 338.411 484.787 338.325 484.478 337.947C484.169 337.569 484.237 337.001 484.598 336.692C486.231 335.3 488.879 333.392 491.904 331.483C493.314 330.486 494.741 329.489 496.133 328.509C500.07 325.742 504.144 322.871 507.599 320.378C508.373 319.828 508.751 318.848 508.854 318.126C508.94 317.542 508.854 317.112 508.717 316.975C508.527 316.734 507.135 315.771 498.695 320.12C493.194 322.957 486.558 327.083 480.782 330.744C480.37 331.002 479.819 330.899 479.544 330.486C479.269 330.074 479.373 329.524 479.768 329.231C482.948 326.979 486.868 324.212 490.804 321.444C494.758 318.659 498.712 315.892 501.909 313.605C502.7 313.038 503.181 312.007 503.302 311.233C503.388 310.683 503.302 310.374 503.233 310.288C502.958 310.013 501.445 309.858 500.878 310.047C490.598 313.382 477 322.235 467.683 329.421C467.425 329.627 467.064 329.661 466.755 329.541C466.445 329.403 466.239 329.111 466.222 328.784V328.527C465.947 325.621 465.706 322.888 470.932 315.204C472.29 313.21 474.714 307.743 472.703 306.042C471.637 305.148 470.726 305.818 468.508 308.276C468.182 308.637 467.855 308.998 467.528 309.359C463.059 314.087 458.658 318.762 454.12 324.126C448.55 330.71 446.848 335.609 445.215 340.336C443.599 345.029 442.052 349.465 436.878 354.639C417.298 374.219 381.696 400.434 374.27 402.067H374.287Z" fill="#0F172A"/>
<path d="M466.565 352.662C466.307 352.662 466.049 352.559 465.86 352.335C465.533 351.957 465.585 351.373 465.98 351.046C470.123 347.574 471.653 341.437 469.625 336.434C469.229 335.471 468.748 334.578 468.215 333.615C467.493 332.291 466.737 330.933 466.307 329.42C466.169 328.939 466.444 328.423 466.926 328.286C467.407 328.148 467.923 328.423 468.06 328.905C468.438 330.228 469.109 331.432 469.814 332.721C470.347 333.684 470.897 334.681 471.309 335.729C473.63 341.437 471.877 348.467 467.149 352.438C466.977 352.576 466.771 352.645 466.565 352.645V352.662Z" fill="#0F172A"/>
<path d="M352.387 456.956C352.233 456.956 352.112 456.853 352.095 456.699C349.637 440.987 351.837 424.329 358.267 409.786C358.335 409.631 358.507 409.562 358.662 409.631C358.817 409.7 358.885 409.872 358.817 410.027C352.422 424.466 350.256 441.004 352.68 456.595C352.697 456.767 352.594 456.922 352.422 456.939C352.422 456.939 352.387 456.939 352.37 456.939L352.387 456.956Z" fill="#0F172A"/>
<path d="M345.287 454.395C345.15 454.395 345.029 454.309 344.995 454.172C343.345 448.602 343.173 442.654 344.479 436.998C344.514 436.826 344.685 436.74 344.84 436.775C345.012 436.809 345.098 436.981 345.064 437.136C343.774 442.688 343.946 448.533 345.562 454C345.614 454.154 345.511 454.326 345.356 454.378C345.322 454.378 345.304 454.378 345.27 454.378L345.287 454.395Z" fill="#0F172A"/>
<path d="M149.695 454.085C178.248 458.916 207.077 463.403 235.888 467.889C238.518 468.044 251.548 469.11 254.78 469.351C257.514 469.557 260.247 469.161 262.928 468.594C272.246 466.617 292.101 463.076 295.625 466.256C304.306 471.104 311.234 479.734 315.892 489.738C318.505 495.36 319.743 503.955 317.904 504.969C316.735 505.605 315.187 505.64 314.311 504.488C312.059 494.088 305.991 484.564 297.533 478.118C301.366 481.59 304.77 485.527 307.658 489.824C310.58 494.174 313.056 499.176 312.746 504.402C312.729 504.814 312.66 505.244 312.385 505.536C311.698 506.258 310.512 505.485 309.876 504.694C308.638 503.164 292.805 483.017 289.092 482.604C293.493 485.51 307.521 503.353 307.263 504.866C307.142 505.588 306.833 506.293 306.266 506.757C305.492 507.376 304.357 507.376 303.429 506.998C302.501 506.619 301.762 505.932 301.04 505.244C296.261 500.62 292.135 495.239 286.703 491.389C283.987 489.463 280.497 487.916 277.42 489.171C282.302 492.403 286.634 496.494 289.952 501.29C290.485 502.064 290.88 502.906 291.138 503.8C291.533 505.124 291.877 506.998 290.743 507.771C288.886 509.026 287.803 507.943 286.686 506.894C282.319 502.339 277.695 498.351 272.693 494.913C271.146 493.847 269.237 492.781 267.467 493.434C265.937 493.984 258.545 496.546 245.085 494.208C240.495 493.417 235.836 493.606 229.82 493.881C150.366 497.526 126.161 500.689 109.813 488.793C106.616 486.472 105.842 484.323 108.404 478.513C115.245 462.973 120.42 454.429 149.712 454.103L149.695 454.085Z" fill="white"/>
<path d="M289.178 509.25C287.854 509.25 286.874 508.321 286.135 507.634L286.049 507.565C281.579 502.906 277.041 499.021 272.159 495.669C270.835 494.758 269.151 493.795 267.758 494.294C265.077 495.257 257.461 497.285 244.912 495.119C240.305 494.328 235.457 494.552 229.836 494.81C219.247 495.291 209.5 495.772 200.905 496.202C143.145 499.073 123.685 500.036 109.262 489.532C105.412 486.73 104.999 483.962 107.561 478.152C114.471 462.44 119.852 453.535 149.694 453.192C149.746 453.192 149.798 453.192 149.849 453.192C178.832 458.091 207.884 462.612 235.99 466.978C237.984 467.099 245.17 467.666 250.43 468.096C252.356 468.25 253.972 468.371 254.848 468.439C257.702 468.663 260.555 468.164 262.739 467.7C271.403 465.861 291.911 461.976 296.14 465.5C304.511 470.193 311.628 478.444 316.717 489.36C318.969 494.191 321.169 504.23 318.35 505.777C316.614 506.74 314.654 506.448 313.588 505.055C313.519 505.45 313.365 505.846 313.038 506.19C312.66 506.585 312.161 506.774 311.628 506.757C310.666 506.723 309.72 505.983 309.17 505.296C309.067 505.175 308.878 504.935 308.62 504.608C308.259 504.144 307.898 503.697 307.537 503.267C308.001 504.127 308.207 504.711 308.139 505.055C307.95 506.104 307.485 506.946 306.798 507.496C305.818 508.27 304.391 508.407 303.05 507.857C301.984 507.427 301.142 506.654 300.369 505.915C298.753 504.35 297.206 502.7 295.71 501.101C292.753 497.938 289.693 494.672 286.152 492.145C284.381 490.89 281.992 489.584 279.671 489.635C284.072 492.833 287.785 496.563 290.69 500.775C291.258 501.6 291.705 502.545 292.014 503.542C292.289 504.471 293.114 507.273 291.258 508.528C290.484 509.043 289.796 509.25 289.195 509.25H289.178ZM268.583 492.334C270.268 492.334 271.884 493.28 273.19 494.174C278.176 497.594 282.8 501.565 287.321 506.276L287.373 506.31C288.524 507.393 289.057 507.806 290.209 507.015C290.69 506.688 290.708 505.64 290.226 504.058C289.986 503.233 289.625 502.477 289.16 501.806C285.997 497.233 281.872 493.228 276.869 489.928C276.594 489.738 276.439 489.412 276.474 489.068C276.508 488.724 276.732 488.449 277.041 488.312C280.668 486.85 284.553 488.759 287.201 490.632C290.897 493.263 294.025 496.597 297.034 499.829C298.512 501.411 300.059 503.061 301.641 504.591C302.311 505.244 302.982 505.846 303.738 506.155C304.46 506.448 305.216 506.413 305.663 506.052C305.973 505.812 306.196 505.382 306.316 504.849C305.629 502.631 292.702 486.128 288.576 483.395C288.232 483.172 288.077 482.725 288.215 482.329C288.352 481.934 288.748 481.693 289.178 481.728C290.123 481.831 292.994 482.14 310.03 503.474C310.287 503.8 310.477 504.024 310.562 504.144C311.009 504.694 311.56 504.969 311.714 504.935C311.731 504.9 311.8 504.797 311.817 504.368C312.058 500.173 310.494 495.704 306.884 490.357C304.03 486.128 300.678 482.243 296.896 478.823C296.535 478.496 296.501 477.946 296.81 477.568C297.12 477.189 297.67 477.138 298.065 477.43C306.592 483.928 312.814 493.641 315.135 504.11C315.737 504.711 316.734 504.591 317.456 504.213C318.401 503.474 317.765 495.996 315.049 490.168C310.184 479.734 303.119 471.534 295.16 467.099C295.108 467.064 295.04 467.03 294.988 466.978C292.375 464.623 277.093 466.566 263.1 469.54C260.813 470.021 257.788 470.554 254.694 470.313C253.817 470.244 252.201 470.124 250.276 469.969C245.29 469.574 237.744 468.972 235.836 468.852C235.801 468.852 235.784 468.852 235.75 468.852C207.661 464.486 178.609 459.965 149.626 455.065C120.918 455.409 116.018 463.489 109.228 478.926C106.718 484.633 107.681 486.18 110.345 488.105C124.253 498.231 143.557 497.268 200.836 494.414C209.431 493.984 219.195 493.503 229.785 493.022C235.509 492.764 240.46 492.523 245.256 493.366C257.375 495.463 264.63 493.555 267.174 492.626C267.655 492.455 268.136 492.386 268.601 492.386L268.583 492.334Z" fill="#0F172A"/>
<path d="M395.263 144.568L379.343 148.285L381.074 155.701L396.994 151.984L395.263 144.568Z" fill="#0F172A"/>
<path d="M381.078 156.588C380.665 156.588 380.287 156.295 380.184 155.883L378.448 148.474C378.396 148.233 378.448 147.993 378.568 147.786C378.688 147.58 378.895 147.442 379.135 147.374L395.054 143.661C395.535 143.557 396.033 143.85 396.154 144.348L397.89 151.757C397.942 151.998 397.89 152.239 397.77 152.445C397.649 152.651 397.443 152.789 397.202 152.857L381.284 156.571C381.284 156.571 381.147 156.588 381.078 156.588ZM380.442 148.955L381.765 154.594L395.913 151.293L394.589 145.655L380.442 148.955Z" fill="#0F172A"/>
<path d="M410.885 64.0859C405.574 41.3429 382.59 27.3499 359.847 33.229C338.548 38.73 325.088 60.218 329.454 81.792C331.844 93.5847 338.926 103.143 348.347 108.987C358.661 115.382 366.259 119.37 369.01 131.18L396.996 124.648C394.262 112.975 399.041 106.065 405.47 95.9569C411.281 86.8288 413.55 75.466 410.903 64.1031L410.885 64.0859Z" fill="white"/>
<path d="M368.993 132.074C368.58 132.074 368.202 131.782 368.099 131.369C365.606 120.694 358.971 116.603 349.808 110.964C349.172 110.569 348.519 110.173 347.848 109.761C337.758 103.504 330.899 93.6362 328.544 81.9811C326.395 71.323 328.423 60.3212 334.251 51.0211C340.078 41.7211 349.086 35.0856 359.624 32.3695C370.832 29.4643 382.453 31.1662 392.354 37.1656C402.256 43.1479 409.15 52.6542 411.78 63.914C414.41 75.1565 412.433 86.7257 406.227 96.4555L405.574 97.4697C399.403 107.148 395.328 113.543 397.873 124.441C397.924 124.682 397.873 124.923 397.752 125.129C397.632 125.335 397.426 125.473 397.185 125.542L369.199 132.074C369.199 132.074 369.061 132.091 368.993 132.091V132.074ZM370.385 32.7821C366.947 32.7821 363.492 33.2118 360.071 34.1057C339.116 39.5207 326.051 60.3899 330.331 81.6029C332.583 92.7595 339.15 102.214 348.811 108.197C349.482 108.609 350.135 109.004 350.771 109.4C359.727 114.901 366.844 119.284 369.663 130.063L395.896 123.943C393.609 112.821 398.01 105.927 404.044 96.4726L404.697 95.4584C410.628 86.124 412.519 75.0706 410.009 64.3093C407.499 53.5309 400.881 44.4372 391.409 38.6956C384.963 34.7934 377.743 32.7993 370.385 32.7993V32.7821Z" fill="#0F172A"/>
<path d="M367.738 137.421L364.695 124.356L397.821 116.62L400.864 129.685C402.996 138.83 397.323 147.975 388.16 150.124C379.015 152.256 369.87 146.583 367.721 137.421H367.738Z" fill="#F85A40"/>
<path d="M381.181 152.307C374.941 152.307 369.285 148.027 367.807 141.701L363.801 124.562C363.681 124.064 363.99 123.582 364.489 123.462L397.615 115.726C397.856 115.675 398.096 115.726 398.303 115.847C398.509 115.967 398.646 116.173 398.715 116.414L402.721 133.553C404.44 140.927 399.85 148.319 392.475 150.055L384.31 151.964C383.261 152.204 382.212 152.325 381.181 152.325V152.307ZM369.577 141.288C370.299 144.383 372.19 147.013 374.889 148.697C377.588 150.382 380.786 150.898 383.88 150.176L392.045 148.268C398.44 146.772 402.428 140.36 400.933 133.965L397.134 117.72L365.778 125.043L369.577 141.288Z" fill="#0F172A"/>
<path d="M369.869 129.754C369.732 129.754 369.611 129.65 369.577 129.513C369.543 129.341 369.646 129.186 369.8 129.152L395.345 123.187C395.517 123.152 395.672 123.256 395.706 123.41C395.741 123.582 395.638 123.737 395.483 123.771L369.938 129.736C369.938 129.736 369.886 129.736 369.869 129.736V129.754Z" fill="#0F172A"/>
<path d="M360.707 90.5077C360.57 90.5077 360.449 90.4046 360.415 90.267C360.38 90.0951 360.484 89.9404 360.638 89.906L386.183 83.941C386.338 83.9066 386.51 84.0097 386.544 84.1644C386.579 84.3363 386.476 84.491 386.321 84.5254L360.776 90.4905C360.776 90.4905 360.724 90.4905 360.707 90.4905V90.5077Z" fill="#0F172A"/>
<path d="M356.995 17.5342C356.582 17.5342 356.204 17.242 356.101 16.8294L352.439 1.11737C352.319 0.618849 352.628 0.137517 353.127 0.0171835C353.608 -0.10315 354.107 0.206278 354.227 0.704801L357.888 16.4169C358.009 16.9154 357.699 17.3967 357.201 17.517C357.132 17.517 357.063 17.5342 356.995 17.5342Z" fill="#0F172A"/>
<path d="M404.68 22.5368C404.508 22.5368 404.353 22.4852 404.198 22.3993C403.768 22.1414 403.631 21.5742 403.906 21.1444L412.415 7.44361C412.673 7.01385 413.24 6.87633 413.67 7.15137C414.1 7.40923 414.237 7.97652 413.962 8.40628L405.453 22.1071C405.281 22.3821 404.989 22.5368 404.68 22.5368Z" fill="#0F172A"/>
<path d="M430.139 57.5021C429.726 57.5021 429.348 57.2098 429.245 56.7972C429.124 56.2987 429.434 55.8174 429.932 55.6971L445.644 52.0355C446.126 51.9152 446.624 52.2246 446.745 52.7231C446.865 53.2216 446.556 53.703 446.057 53.8233L430.345 57.4849C430.345 57.4849 430.207 57.5021 430.139 57.5021Z" fill="#0F172A"/>
<path d="M318.917 42.5636C318.746 42.5636 318.591 42.512 318.436 42.426L304.735 33.9168C304.306 33.6589 304.168 33.0916 304.443 32.6619C304.701 32.2321 305.268 32.0946 305.698 32.3696L319.399 40.8789C319.829 41.1368 319.966 41.704 319.691 42.1338C319.519 42.4089 319.227 42.5636 318.917 42.5636Z" fill="#0F172A"/>
<path d="M295.864 88.8574C295.452 88.8574 295.073 88.5652 294.97 88.1526C294.85 87.6541 295.159 87.1727 295.658 87.0524L311.37 83.3908C311.851 83.2705 312.35 83.5799 312.47 84.0785C312.591 84.577 312.281 85.0583 311.783 85.1786L296.07 88.8402C296.07 88.8402 295.933 88.8574 295.864 88.8574Z" fill="#0F172A"/>
<path d="M375.165 122.035C374.769 122.035 374.391 121.777 374.288 121.365C374.202 121.072 366.122 92.6393 350.032 83.5972C349.585 83.3565 349.43 82.7892 349.688 82.3594C349.929 81.9125 350.496 81.7578 350.926 82.0156C367.687 91.4188 375.715 119.68 376.041 120.883C376.179 121.365 375.887 121.863 375.405 122.001C375.319 122.018 375.233 122.035 375.165 122.035Z" fill="#0F172A"/>
<path d="M386.991 119.267C386.561 119.267 386.183 118.958 386.097 118.528C385.873 117.308 380.544 88.4104 391.409 72.5609C391.701 72.1483 392.268 72.0451 392.681 72.3202C393.093 72.6124 393.196 73.1797 392.921 73.5923C382.487 88.823 387.833 117.909 387.902 118.201C387.988 118.7 387.678 119.181 387.18 119.267C387.128 119.267 387.059 119.267 387.008 119.267H386.991Z" fill="#0F172A"/>
<path d="M350.394 83.3392C349.981 83.3392 349.603 83.0469 349.5 82.6344C349.379 82.1358 349.689 81.6545 350.187 81.5342C351.545 81.2076 352.044 80.3996 352.68 79.3682C353.35 78.2508 354.193 76.8584 356.307 76.3599C358.421 75.8613 359.797 76.738 360.897 77.4429C361.911 78.0961 362.719 78.6118 364.094 78.2852C365.452 77.9586 365.951 77.1506 366.587 76.1192C367.257 75.0018 368.1 73.6094 370.214 73.1109C372.329 72.6123 373.704 73.4891 374.804 74.1939C375.818 74.8471 376.626 75.3628 378.001 75.0362C379.359 74.7268 379.858 73.9016 380.494 72.8702C381.164 71.7528 382.007 70.3604 384.121 69.8619C386.236 69.3633 387.611 70.2401 388.711 70.9449C389.725 71.5981 390.533 72.1138 391.891 71.7872C392.373 71.6669 392.871 71.9763 392.991 72.4748C393.112 72.9733 392.802 73.4547 392.304 73.575C390.189 74.0735 388.814 73.1968 387.714 72.492C386.7 71.8388 385.892 71.3231 384.534 71.6497C383.176 71.9591 382.677 72.7842 382.041 73.8157C381.371 74.933 380.528 76.3255 378.414 76.824C376.3 77.3225 374.924 76.4458 373.824 75.741C372.81 75.0878 372.002 74.5721 370.627 74.8987C369.269 75.2253 368.77 76.0332 368.134 77.0647C367.464 78.182 366.621 79.5745 364.507 80.073C362.392 80.5715 361.017 79.6948 359.917 78.99C358.903 78.3368 358.095 77.821 356.72 78.1477C355.362 78.4743 354.863 79.2822 354.227 80.3137C353.557 81.431 352.714 82.8235 350.6 83.322C350.531 83.322 350.462 83.3392 350.394 83.3392Z" fill="#0F172A"/>
<path d="M121.674 266.779L116.138 263.134C109.124 258.51 99.6354 261.639 96.7646 269.529L94.4954 275.752C85.3845 274.566 86.9488 274.772 77.8207 273.569L77.219 266.968C76.4626 258.613 68.0909 253.147 60.1317 255.811L53.8572 257.908C49.0955 250.035 49.9206 251.393 45.1589 243.52L49.9378 238.947C56.006 233.137 55.0606 223.201 48.0125 218.628L42.46 215.035C45.6574 206.406 45.1073 207.901 48.2875 199.272L54.8543 200.148C63.1744 201.266 70.36 194.338 69.5349 185.983L68.8817 179.4C77.6144 176.512 76.1188 177.01 84.8516 174.122L88.2553 179.812C92.5701 187.015 102.472 188.304 108.488 182.459L113.233 177.835C120.934 182.872 119.611 181.995 127.312 187.032L124.991 193.238C122.052 201.094 127.209 209.655 135.546 210.703L142.113 211.528C142.972 220.691 142.835 219.109 143.694 228.272L137.403 230.318C129.426 232.913 125.954 242.282 130.32 249.451L133.758 255.106C127.14 261.501 128.275 260.401 121.656 266.779H121.674Z" fill="white"/>
<path d="M94.4785 276.663C94.4785 276.663 94.3926 276.663 94.3582 276.663L77.6835 274.48C77.2537 274.428 76.9271 274.084 76.8927 273.655L76.2911 267.053C75.9473 263.34 73.9704 260.057 70.8589 258.029C67.7474 256 63.9311 255.502 60.4071 256.688L54.1326 258.785C53.72 258.922 53.2903 258.751 53.0668 258.39L44.3684 244.001C44.1449 243.64 44.2137 243.159 44.5231 242.867L49.3021 238.294C51.9838 235.715 53.3246 232.123 52.9808 228.409C52.637 224.696 50.6429 221.413 47.5143 219.402L41.9618 215.809C41.6008 215.568 41.446 215.121 41.6008 214.726L47.4283 198.962C47.583 198.567 47.9784 198.309 48.4082 198.378L54.9749 199.254C58.6709 199.753 62.3152 198.55 64.9969 195.971C67.6787 193.392 69.0023 189.782 68.6413 186.087L67.9881 179.503C67.9537 179.073 68.2116 178.677 68.6069 178.54L84.5769 173.262C84.9894 173.125 85.4192 173.297 85.6427 173.658L89.0464 179.348C90.9545 182.545 94.1691 184.643 97.8651 185.124C101.561 185.605 105.205 184.402 107.87 181.806L112.614 177.182C112.924 176.89 113.388 176.838 113.749 177.079L127.828 186.276C128.189 186.516 128.327 186.963 128.189 187.359L125.868 193.564C124.562 197.054 124.923 200.87 126.848 204.051C128.773 207.231 131.988 209.328 135.684 209.792L142.251 210.617C142.681 210.669 143.007 211.013 143.042 211.442L144.623 228.186C144.657 228.616 144.4 229.011 144.004 229.131L137.713 231.177C134.171 232.329 131.404 234.993 130.114 238.483C128.825 241.973 129.186 245.789 131.129 248.969L134.567 254.625C134.79 254.986 134.721 255.467 134.429 255.759L122.327 267.432C122.018 267.724 121.553 267.775 121.192 267.535L115.657 263.89C112.546 261.845 108.747 261.329 105.205 262.498C101.664 263.667 98.9137 266.331 97.6416 269.838L95.3724 276.061C95.2349 276.422 94.8911 276.663 94.5129 276.663H94.4785ZM78.6462 272.761L93.8597 274.755L95.8882 269.219C97.3665 265.197 100.53 262.12 104.604 260.779C108.678 259.438 113.044 260.023 116.62 262.378L121.536 265.627L132.59 254.969L129.53 249.932C127.295 246.27 126.883 241.869 128.361 237.864C129.839 233.842 133.037 230.782 137.111 229.458L142.715 227.636L141.271 212.354L135.426 211.614C131.18 211.081 127.467 208.658 125.267 204.996C123.049 201.334 122.654 196.934 124.149 192.911L126.212 187.393L113.354 179.004L109.125 183.113C106.048 186.104 101.853 187.496 97.6072 186.946C93.3612 186.396 89.6652 183.972 87.4648 180.293L84.4393 175.239L69.8618 180.053L70.4463 185.915C70.8589 190.178 69.3461 194.321 66.2518 197.295C63.1748 200.269 58.9631 201.644 54.7343 201.077L48.8895 200.286L43.5605 214.691L48.5113 217.889C52.1041 220.21 54.3904 223.991 54.803 228.255C55.1984 232.518 53.6684 236.661 50.5742 239.618L46.3109 243.692L54.2529 256.825L59.8398 254.951C63.8968 253.593 68.2803 254.161 71.8731 256.499C75.4659 258.836 77.7351 262.636 78.1304 266.899L78.6633 272.761H78.6462Z" fill="#0F172A"/>
<path d="M110.506 240.97C119.378 231.355 118.776 216.369 109.161 207.496C99.5464 198.624 84.5598 199.226 75.6876 208.841C66.8154 218.455 67.4173 233.442 77.032 242.314C86.6467 251.186 101.633 250.585 110.506 240.97Z" fill="#0F172A"/>
<path d="M93.0858 249.537C79.5226 249.537 68.4863 238.5 68.4863 224.937C68.4863 211.374 79.5226 200.337 93.0858 200.337C106.649 200.337 117.685 211.374 117.685 224.937C117.685 238.5 106.649 249.537 93.0858 249.537ZM93.0858 202.16C80.5196 202.16 70.3085 212.371 70.3085 224.937C70.3085 237.503 80.5196 247.714 93.0858 247.714C105.652 247.714 115.863 237.503 115.863 224.937C115.863 212.371 105.652 202.16 93.0858 202.16Z" fill="#0F172A"/>
<path d="M104.414 235.392C110.193 229.138 109.808 219.382 103.554 213.602C97.2992 207.823 87.5435 208.208 81.7638 214.462C75.9842 220.717 76.3692 230.473 82.6238 236.252C88.8784 242.032 98.6341 241.647 104.414 235.392Z" fill="white"/>
<path d="M93.0848 241.268C84.077 241.268 76.7539 233.945 76.7539 224.937C76.7539 215.929 84.077 208.606 93.0848 208.606C102.093 208.606 109.416 215.929 109.416 224.937C109.416 233.945 102.093 241.268 93.0848 241.268ZM93.0848 210.446C85.0913 210.446 78.5761 216.944 78.5761 224.954C78.5761 232.965 85.0741 239.463 93.0848 239.463C101.096 239.463 107.594 232.965 107.594 224.954C107.594 216.944 101.096 210.446 93.0848 210.446Z" fill="#0F172A"/>
<path d="M472.943 275.614L467.357 272.468C463.609 273.569 461.563 274.17 457.816 275.271L454.825 280.926C447.828 279.242 448.739 279.448 441.743 277.763L441.674 271.368C438.855 268.669 437.308 267.208 434.471 264.509L428.076 264.75C426.048 257.839 426.306 258.751 424.277 251.84L429.795 248.574C430.707 244.775 431.222 242.712 432.133 238.913L428.73 233.498C433.698 228.289 433.044 228.977 438.013 223.751L443.599 226.897C447.347 225.796 449.393 225.195 453.14 224.095L456.131 218.439C463.128 220.124 462.217 219.917 469.213 221.602L469.282 227.997C472.101 230.696 473.648 232.157 476.485 234.856L482.88 234.615C484.908 241.526 484.65 240.615 486.679 247.525L481.16 250.791C480.249 254.59 479.734 256.653 478.823 260.452L482.226 265.867C477.258 271.076 477.912 270.388 472.943 275.614Z" fill="white"/>
<path d="M454.825 281.855C454.825 281.855 454.687 281.854 454.618 281.837L441.536 278.674C441.124 278.571 440.849 278.21 440.832 277.798L440.763 271.781L434.127 265.455L428.111 265.678C427.664 265.678 427.32 265.42 427.199 265.025L423.4 252.115C423.28 251.72 423.452 251.29 423.813 251.066L428.987 248.007L431.153 239.085L427.956 233.996C427.732 233.635 427.784 233.188 428.059 232.879L437.342 223.132C437.634 222.823 438.081 222.754 438.442 222.96L443.685 225.917L452.487 223.321L455.306 217.992C455.495 217.631 455.925 217.442 456.32 217.528L469.402 220.691C469.815 220.794 470.09 221.155 470.107 221.568L470.176 227.584L476.811 233.91L482.828 233.687C483.24 233.687 483.619 233.945 483.739 234.34L487.538 247.25C487.658 247.646 487.486 248.075 487.125 248.299L481.951 251.359L479.785 260.281L482.982 265.369C483.206 265.73 483.154 266.177 482.879 266.486L473.596 276.233C473.304 276.543 472.857 276.611 472.496 276.405L467.253 273.448L458.452 276.044L455.632 281.373C455.478 281.683 455.151 281.855 454.825 281.855ZM442.654 277.058L454.343 279.895L457.008 274.858C457.128 274.635 457.317 274.48 457.558 274.411L467.099 271.609C467.339 271.54 467.597 271.575 467.803 271.695L472.771 274.48L481.074 265.764L478.049 260.951C477.911 260.745 477.877 260.487 477.928 260.246L480.266 250.585C480.318 250.344 480.473 250.138 480.696 250.018L485.595 247.113L482.192 235.561L476.502 235.767C476.244 235.767 476.02 235.681 475.831 235.509L468.628 228.65C468.457 228.478 468.353 228.238 468.353 227.997L468.285 222.307L456.595 219.47L453.931 224.507C453.81 224.731 453.621 224.885 453.381 224.954L443.84 227.756C443.599 227.825 443.341 227.791 443.135 227.67L438.167 224.885L429.864 233.601L432.89 238.414C433.027 238.621 433.061 238.878 433.01 239.119L430.672 248.78C430.62 249.021 430.466 249.227 430.242 249.347L425.343 252.253L428.747 263.805L434.437 263.598C434.677 263.598 434.918 263.684 435.107 263.856L442.31 270.715C442.482 270.887 442.585 271.128 442.585 271.368L442.654 277.058Z" fill="#0F172A"/>
<path d="M455.477 262.275C462.427 262.275 468.06 256.641 468.06 249.691C468.06 242.742 462.427 237.108 455.477 237.108C448.527 237.108 442.894 242.742 442.894 249.691C442.894 256.641 448.527 262.275 455.477 262.275Z" fill="white"/>
<path d="M455.478 263.203C448.034 263.203 441.983 257.152 441.983 249.708C441.983 242.265 448.034 236.214 455.478 236.214C462.921 236.214 468.972 242.265 468.972 249.708C468.972 257.152 462.921 263.203 455.478 263.203ZM455.478 238.019C449.031 238.019 443.806 243.262 443.806 249.691C443.806 256.12 449.049 261.364 455.478 261.364C461.907 261.364 467.15 256.12 467.15 249.691C467.15 243.262 461.907 238.019 455.478 238.019Z" fill="#0F172A"/>
<path d="M391.305 281.958C394.365 281.958 396.84 284.433 396.84 287.493C396.84 290.553 394.365 293.028 391.305 293.028C388.245 293.028 385.77 290.553 385.77 287.493C385.77 284.433 388.245 281.958 391.305 281.958Z" fill="#0F172A"/>
<path d="M391.306 293.939C387.747 293.939 384.859 291.051 384.859 287.493C384.859 283.935 387.747 281.047 391.306 281.047C394.864 281.047 397.752 283.935 397.752 287.493C397.752 291.051 394.864 293.939 391.306 293.939ZM391.306 282.869C388.762 282.869 386.682 284.949 386.682 287.493C386.682 290.037 388.762 292.117 391.306 292.117C393.85 292.117 395.93 290.037 395.93 287.493C395.93 284.949 393.85 282.869 391.306 282.869Z" fill="#0F172A"/>
<path d="M7.64881 364.197C11.3705 364.197 14.3875 361.18 14.3875 357.458C14.3875 353.736 11.3705 350.719 7.64881 350.719C3.92715 350.719 0.910156 353.736 0.910156 357.458C0.910156 361.18 3.92715 364.197 7.64881 364.197Z" fill="#0F172A"/>
<path d="M7.64974 365.108C3.4209 365.108 0 361.67 0 357.458C0 353.246 3.43809 349.808 7.64974 349.808C11.8614 349.808 15.2995 353.246 15.2995 357.458C15.2995 361.67 11.8614 365.108 7.64974 365.108ZM7.64974 351.613C4.43513 351.613 1.82219 354.226 1.82219 357.441C1.82219 360.655 4.43513 363.268 7.64974 363.268C10.8644 363.268 13.4773 360.655 13.4773 357.441C13.4773 354.226 10.8644 351.613 7.64974 351.613Z" fill="#0F172A"/>
<path d="M46.2768 432.271C48.9446 432.271 51.1073 430.108 51.1073 427.44C51.1073 424.772 48.9446 422.61 46.2768 422.61C43.609 422.61 41.4463 424.772 41.4463 427.44C41.4463 430.108 43.609 432.271 46.2768 432.271Z" fill="white"/>
<path d="M46.2768 433.182C43.1137 433.182 40.5352 430.603 40.5352 427.44C40.5352 424.277 43.1137 421.699 46.2768 421.699C49.4398 421.699 52.0184 424.277 52.0184 427.44C52.0184 430.603 49.4398 433.182 46.2768 433.182ZM46.2768 423.538C44.1108 423.538 42.3573 425.291 42.3573 427.457C42.3573 429.623 44.1108 431.377 46.2768 431.377C48.4428 431.377 50.1962 429.623 50.1962 427.457C50.1962 425.291 48.4428 423.538 46.2768 423.538Z" fill="#0F172A"/>
</g>
<defs>
<clipPath id="clip0_16_3867">
<rect width="512" height="509.25" fill="white"/>
</clipPath>
</defs>
</svg>
