<svg width="708" height="442" viewBox="0 0 708 442" fill="none" xmlns="http://www.w3.org/2000/svg">
<g clip-path="url(#clip0_16_3720)">
<path d="M435.443 148.059C432.662 160.003 433.176 174.742 433.176 174.742L443.994 178.941C443.994 178.941 450.627 206.208 408.829 197.852C400.708 196.225 377.195 178.371 377.195 178.371L395.786 173.059C395.786 173.059 397.566 146.042 398.275 132.61C408.05 137.157 423.721 144.388 435.443 148.059Z" fill="white"/>
<path d="M423.081 200.188C431.146 200.188 437.097 198.227 440.838 194.334C446.872 188.049 444.801 179.15 444.703 178.774C444.648 178.538 444.481 178.343 444.258 178.26L433.899 174.241C433.844 171.599 433.718 158.737 436.166 148.239C436.249 147.864 436.041 147.488 435.665 147.363C423.54 143.581 406.687 135.725 398.595 131.957C398.372 131.859 398.108 131.873 397.9 131.998C397.691 132.123 397.552 132.346 397.538 132.596C396.898 144.846 395.327 168.707 395.077 172.517L376.987 177.69C376.723 177.773 376.514 177.982 376.458 178.26C376.403 178.538 376.514 178.816 376.736 178.983C377.696 179.72 400.472 196.962 408.662 198.588C414.029 199.659 418.84 200.201 423.067 200.201L423.081 200.188ZM443.341 179.483C443.646 181.166 444.578 188.299 439.753 193.319C434.414 198.867 424.055 200.146 408.954 197.128C402.127 195.766 383.675 182.292 378.808 178.677L395.967 173.768C396.273 173.685 396.481 173.421 396.495 173.101C396.509 172.837 398.192 147.335 398.929 133.736C407.23 137.602 422.873 144.819 434.553 148.545C431.952 160.322 432.411 174.617 432.411 174.756C432.411 175.048 432.606 175.312 432.884 175.423L443.327 179.483H443.341Z" fill="#0F172A"/>
<path d="M461.055 72.8752C464.879 73.793 468.689 69.9274 468.759 65.8394C468.828 61.7514 465.964 58.0527 462.446 56.259C458.928 54.4653 454.868 54.2567 450.905 53.6866C452.393 49.7237 450.516 44.9544 447.22 42.4237C443.925 39.8791 439.586 39.2812 435.526 39.7818C432.87 40.1016 430.187 40.9081 428.087 42.6462C425.987 44.3704 424.555 47.1653 424.667 50.1409C421.121 45.6774 415.406 42.674 410.025 43.9672C404.63 45.2603 400.569 51.8373 400.166 56.3702C397.538 53.1582 394.118 50.5024 390.071 50.7249C382.062 51.1559 380.255 57.9693 383.856 66.7293C379.587 64.6297 373.233 66.4651 371.203 72.6667C369.687 77.2831 371.383 84.6248 374.595 88.2401C375.152 88.8658 375.958 89.4776 376.945 90.0338C378.197 96.8889 379.754 104.064 382.118 113.116C383.828 119.651 386.776 126.895 390.238 132.861C391.865 135.669 393.13 137.018 396.412 138.548C396.593 135.711 399.554 134.307 400.013 131.484C400.583 128.008 398.345 124.963 400.43 121.876C404.421 116.022 407.133 109.598 408.398 103.007C409.441 97.598 409.482 91.897 406.924 86.9052C406.02 85.1254 404.713 83.4568 403.142 82.0246C403.851 80.6202 404.393 79.188 404.838 77.7836C407.188 81.816 408.898 84.5831 414.78 86.5159C419.077 87.9202 424.166 86.21 425.612 82.1219C426.53 86.2517 432.94 92.0778 436.986 92.4949C441.019 92.8982 442.534 91.0488 444.161 87.1694C447.749 90.3397 450.432 93.5795 454.075 94.97C459.665 97.0835 466.576 93.5934 468.425 87.7117C470.274 81.8299 466.715 74.6968 461.028 72.8891L461.055 72.8752Z" fill="#0F172A"/>
<path d="M396.44 139.271C396.565 139.271 396.704 139.243 396.815 139.173C397.024 139.048 397.163 138.826 397.177 138.589C397.26 137.338 398.011 136.365 398.817 135.336C399.652 134.251 400.514 133.139 400.764 131.595C401.014 130.093 400.778 128.717 400.556 127.382C400.25 125.519 399.972 123.906 401.07 122.293C405.13 116.314 407.856 109.876 409.163 103.146C410.442 96.5133 409.941 91.1044 407.619 86.5714C406.757 84.8889 405.534 83.2621 404.073 81.8577C404.421 81.1207 404.741 80.356 405.047 79.5356C407.007 82.8032 409.065 85.4034 414.586 87.211C418.882 88.6154 423.415 87.1832 425.543 83.9851C427.517 88.1426 433.093 92.8286 436.944 93.2179C441.032 93.635 442.854 91.8691 444.453 88.3929C445.065 88.9491 445.649 89.5053 446.219 90.0476C448.666 92.3697 450.961 94.5528 453.853 95.6512C456.634 96.708 459.915 96.4994 462.821 95.0811C465.88 93.5933 468.189 90.9792 469.162 87.9202C470.83 82.6085 468.425 76.4487 463.975 73.487C464.74 73.2506 465.491 72.8474 466.2 72.3051C468.189 70.7616 469.454 68.3005 469.496 65.8671C469.579 61.1951 466.186 57.3574 462.78 55.6193C459.79 54.1037 456.439 53.6726 453.199 53.2694C452.754 53.2138 452.309 53.1581 451.864 53.1025C452.852 49.237 451.141 44.5511 447.665 41.8674C444.564 39.4758 440.226 38.4886 435.429 39.0726C432.189 39.4758 429.561 40.4909 427.614 42.0899C425.682 43.6751 424.416 45.9137 424.041 48.3193C420.022 44.0922 414.613 42.1316 409.844 43.2718C404.838 44.4676 400.792 49.9322 399.68 54.7294C396.621 51.42 393.381 49.8349 390.03 50.0157C386.665 50.1964 384.12 51.4896 382.688 53.7561C380.922 56.5509 380.894 60.6806 382.591 65.5056C380.574 64.9772 378.336 65.1302 376.32 65.9784C373.566 67.1464 371.495 69.4407 370.507 72.4719C368.936 77.2691 370.591 84.875 374.053 88.7684C374.609 89.3941 375.36 89.9781 376.292 90.5343C377.627 97.8204 379.253 105.079 381.409 113.324C383.161 120.026 386.15 127.285 389.613 133.25C391.239 136.059 392.574 137.588 396.12 139.243C396.217 139.285 396.329 139.312 396.426 139.312L396.44 139.271ZM404.88 77.0188C404.88 77.0188 404.824 77.0188 404.797 77.0188C404.505 77.0466 404.268 77.2552 404.171 77.5333C403.684 79.0767 403.142 80.4255 402.516 81.6769C402.363 81.9689 402.433 82.3304 402.683 82.5529C404.199 83.9295 405.45 85.5424 406.312 87.2249C408.467 91.452 408.926 96.5551 407.717 102.854C406.451 109.389 403.809 115.646 399.86 121.445C398.442 123.544 398.776 125.602 399.109 127.604C399.318 128.828 399.527 130.08 399.318 131.345C399.123 132.513 398.414 133.445 397.649 134.418C396.94 135.322 396.217 136.267 395.884 137.435C393.325 136.1 392.254 134.793 390.892 132.471C387.499 126.617 384.565 119.498 382.841 112.921C380.672 104.578 379.031 97.2642 377.682 89.8947C377.64 89.6722 377.515 89.4914 377.321 89.3802C376.403 88.8657 375.652 88.2956 375.151 87.7394C372.051 84.2493 370.507 77.1717 371.912 72.8891C372.76 70.275 374.54 68.2866 376.89 67.2993C379.073 66.3816 381.562 66.4094 383.536 67.3828C383.814 67.5218 384.134 67.4662 384.37 67.2576C384.593 67.049 384.662 66.7153 384.551 66.4372C382.479 61.4037 382.271 57.1766 383.953 54.5069C385.135 52.6298 387.207 51.6008 390.127 51.4479C393.367 51.2671 396.551 53.0747 399.61 56.829C399.805 57.0654 400.111 57.1488 400.403 57.0654C400.695 56.982 400.889 56.7317 400.917 56.4258C401.279 52.3656 404.991 45.9137 410.219 44.6623C414.919 43.536 420.37 45.8581 424.11 50.5719C424.305 50.8221 424.639 50.9195 424.945 50.8082C425.237 50.697 425.431 50.405 425.431 50.0852C425.334 47.5128 426.544 44.857 428.574 43.1745C430.298 41.7423 432.676 40.8385 435.637 40.477C440.045 39.9347 443.994 40.8246 446.789 42.9798C450.043 45.4966 451.531 49.9739 450.237 53.4084C450.154 53.617 450.182 53.8534 450.293 54.0481C450.404 54.2427 450.599 54.3679 450.821 54.4096C451.558 54.5208 452.295 54.6042 453.032 54.7016C456.286 55.1187 459.373 55.4942 462.126 56.8985C465.116 58.4281 468.105 61.7652 468.036 65.8115C467.994 67.8138 466.951 69.8439 465.31 71.1093C464.031 72.0965 462.585 72.458 461.236 72.1382C460.847 72.0409 460.457 72.2773 460.36 72.6527C460.249 73.042 460.471 73.4314 460.847 73.5565C466.131 75.2251 469.496 81.9689 467.771 87.4474C466.923 90.131 464.893 92.4114 462.196 93.7324C459.637 94.9699 456.801 95.1646 454.395 94.2469C451.781 93.2596 449.681 91.2573 447.248 88.9491C446.441 88.1844 445.593 87.3779 444.689 86.5853C444.509 86.4324 444.272 86.3628 444.036 86.4184C443.8 86.4741 443.619 86.627 443.521 86.8495C441.978 90.5204 440.685 92.0916 437.111 91.7162C433.343 91.3407 427.239 85.751 426.391 81.9272C426.321 81.6074 426.043 81.371 425.709 81.3571C425.376 81.3293 425.084 81.5379 424.972 81.8438C423.61 85.6954 418.757 86.9885 415.058 85.7788C409.316 83.9017 407.73 81.1624 405.52 77.3803C405.381 77.1578 405.144 77.0188 404.88 77.0188Z" fill="#0F172A"/>
<path d="M454.854 95.818C454.854 95.6094 454.854 95.4008 454.854 95.1783C454.604 95.1088 454.368 95.0254 454.118 94.942C450.461 93.5515 447.777 90.3256 444.203 87.1414C442.577 91.0069 441.061 92.8701 437.029 92.4669C432.996 92.0637 426.572 86.2236 425.654 82.0939C424.208 86.1819 419.105 87.8922 414.823 86.4878C408.941 84.5551 407.231 81.788 404.881 77.7556C403.601 81.788 401.516 86.0846 397.108 89.241C395.495 90.3951 393.743 91.1877 391.935 91.6743C391.866 92.4669 391.796 93.2317 391.713 93.9686C391.407 96.6801 390.698 102.59 391.323 108.555C386.749 104.759 382.953 105.398 380.116 108.263C377.28 111.127 377.502 115.674 380.283 118.511C383.064 121.333 387.945 122.418 392.241 121.5C393.354 128.731 395.008 143.206 400.042 149.602C405.381 156.401 414.823 160.767 424.598 160.92C434.359 161.087 444.189 157.041 450.155 150.422C456.912 142.9 458.428 132.958 457.858 123.641C457.288 114.325 454.896 105.134 454.868 95.7902L454.854 95.818Z" fill="white"/>
<path d="M425.153 161.685C434.956 161.685 444.69 157.597 450.683 150.951C456.62 144.346 459.276 135.155 458.567 123.628C458.316 119.54 457.704 115.424 457.12 111.433C456.37 106.316 455.591 101.032 455.577 95.8181C455.577 95.6095 455.577 95.387 455.577 95.1785C455.577 94.8586 455.355 94.5666 455.049 94.4832C454.826 94.4137 454.59 94.3442 454.367 94.2607C451.753 93.2735 449.654 91.2712 447.22 88.963C446.414 88.1982 445.566 87.3918 444.662 86.5992C444.481 86.4462 444.245 86.3767 444.008 86.4323C443.772 86.488 443.591 86.6409 443.494 86.8634C441.95 90.5343 440.671 92.1055 437.084 91.7301C433.315 91.3546 427.211 85.7649 426.363 81.9411C426.293 81.6213 426.015 81.3849 425.682 81.371C425.348 81.3432 425.056 81.5517 424.945 81.8576C423.582 85.7093 418.729 87.0024 415.031 85.7927C409.288 83.9156 407.703 81.1763 405.492 77.3942C405.339 77.1439 405.061 77.0049 404.769 77.0327C404.477 77.0605 404.24 77.2691 404.143 77.5472C403.128 80.7314 401.251 85.3617 396.635 88.6571C395.175 89.7 393.52 90.4786 391.698 90.9792C391.406 91.0626 391.184 91.3268 391.156 91.6327C391.087 92.5226 391.017 93.2457 390.934 93.8992V94.08C390.628 96.6246 390.044 101.658 390.405 106.998C386.47 104.37 382.66 104.62 379.546 107.776C376.473 110.877 376.556 115.841 379.712 119.053C382.41 121.806 387.096 123.099 391.573 122.39C391.657 122.919 391.74 123.489 391.823 124.087C393.005 132.096 394.771 144.193 399.402 150.089C404.894 157.083 414.516 161.532 424.528 161.685C424.722 161.685 424.917 161.685 425.112 161.685H425.153ZM454.117 95.7207C454.117 95.7207 454.117 95.7903 454.117 95.8181C454.131 101.144 454.923 106.483 455.674 111.642C456.258 115.591 456.856 119.679 457.107 123.711C457.788 134.835 455.257 143.665 449.598 149.949C443.772 156.429 434.191 160.35 424.611 160.197C415.031 160.044 405.839 155.803 400.625 149.157C396.245 143.567 394.424 131.234 393.339 123.85C393.214 122.96 393.089 122.14 392.978 121.403C392.95 121.208 392.839 121.027 392.672 120.902C392.505 120.791 392.296 120.749 392.102 120.791C387.874 121.681 383.342 120.569 380.825 117.996C378.238 115.354 378.155 111.308 380.644 108.791C383.578 105.83 387.012 105.941 390.85 109.125C391.087 109.32 391.406 109.347 391.67 109.208C391.935 109.069 392.088 108.777 392.06 108.485C391.448 102.729 392.102 97 392.421 94.2329V94.0522C392.505 93.5099 392.56 92.9259 392.616 92.2445C394.41 91.6883 396.064 90.8819 397.524 89.839C401.779 86.7939 403.865 82.7476 405.047 79.5077C407.007 82.7615 409.065 85.3756 414.586 87.1832C418.882 88.5876 423.415 87.1554 425.543 83.9573C427.517 88.1148 433.093 92.8007 436.945 93.1901C441.033 93.6072 442.854 91.8413 444.453 88.3651C445.065 88.9213 445.649 89.4775 446.219 90.0198C448.666 92.3419 450.961 94.5249 453.853 95.6234C453.936 95.6512 454.034 95.6929 454.117 95.7207Z" fill="#0F172A"/>
<path d="M446.191 109.347C446.316 108.193 445.44 107.151 444.231 107.025C443.021 106.886 441.922 107.707 441.797 108.861C441.672 110.015 442.548 111.058 443.758 111.183C444.968 111.322 446.066 110.502 446.191 109.347Z" fill="#0F172A"/>
<path d="M415.392 111.016C415.518 109.862 414.642 108.819 413.432 108.694C412.222 108.569 411.124 109.375 410.998 110.529C410.873 111.683 411.749 112.726 412.959 112.851C414.169 112.991 415.267 112.17 415.392 111.016Z" fill="#0F172A"/>
<path d="M424.541 147.113C425.487 147.113 426.446 146.988 427.364 146.751C427.753 146.64 427.99 146.237 427.892 145.848C427.795 145.458 427.378 145.222 426.988 145.319C423.359 146.279 419.285 145.013 416.852 142.163C416.588 141.857 416.115 141.815 415.809 142.079C415.503 142.344 415.461 142.816 415.725 143.122C417.895 145.667 421.218 147.113 424.541 147.113Z" fill="#0F172A"/>
<path d="M429.797 135.544C431.257 135.544 432.814 135.252 434.441 134.668C435.303 134.362 436.277 133.931 436.972 133.125C437.876 132.082 438.196 130.552 437.848 128.925C437.598 127.771 437.083 126.728 436.597 125.727L436.374 125.268C433.718 119.832 432.328 113.755 432.37 107.707C432.37 107.303 432.05 106.97 431.633 106.97C431.229 106.97 430.896 107.303 430.896 107.707C430.868 113.978 432.3 120.291 435.053 125.922L435.276 126.381C435.748 127.34 436.207 128.258 436.416 129.231C436.666 130.385 436.458 131.484 435.874 132.165C435.387 132.721 434.636 133.041 433.955 133.292C431.966 134.001 430.131 134.237 428.476 133.987C426.599 133.695 424.93 132.708 424.027 131.345C423.804 131.011 423.345 130.914 422.998 131.15C422.664 131.373 422.567 131.832 422.803 132.179C423.957 133.903 425.946 135.099 428.254 135.447C428.754 135.53 429.283 135.558 429.811 135.558L429.797 135.544Z" fill="#0F172A"/>
<path d="M391.81 114.061C391.81 114.061 391.879 114.061 391.907 114.061C392.31 114.006 392.588 113.644 392.547 113.227C392.213 110.682 392.088 109.32 391.865 106.872C391.824 106.469 391.476 106.163 391.059 106.205C390.656 106.247 390.35 106.608 390.391 107.011C390.614 109.487 390.739 110.849 391.087 113.422C391.142 113.797 391.448 114.061 391.824 114.061H391.81Z" fill="#0F172A"/>
<path d="M462.766 89.6026C462.766 89.6026 462.891 89.5748 462.946 89.5331C465.032 87.3918 465.797 84.0407 464.851 81.2041C464.81 81.079 464.671 81.0095 464.545 81.0512C464.42 81.0929 464.351 81.2319 464.392 81.3571C465.282 84.0268 464.573 87.1693 462.613 89.1855C462.515 89.2828 462.515 89.4358 462.613 89.5331C462.654 89.5748 462.724 89.6026 462.779 89.6026H462.766Z" fill="#0F172A"/>
<path d="M381.256 86.7243C381.256 86.7243 381.395 86.6965 381.437 86.6409C381.52 86.5436 381.52 86.3767 381.409 86.2933C377.891 83.1925 376.514 77.9226 378.058 73.487C378.099 73.3618 378.03 73.2228 377.905 73.1672C377.78 73.1254 377.641 73.195 377.585 73.3201C375.972 77.9365 377.404 83.415 381.075 86.6548C381.117 86.6965 381.186 86.7104 381.242 86.7104L381.256 86.7243Z" fill="#0F172A"/>
<path d="M574.144 240.498C578.719 217.791 581.111 177.3 587.465 154.691C593.43 148.795 599.618 139.368 602.023 130.803C602.997 127.312 602.969 125.894 600.633 123.558C598.937 121.848 595.947 122.418 594.056 123.586C594.918 121.389 597.004 119.401 594.278 117.176C593.055 116.175 591.317 115.646 589.982 116.508C590.677 112.073 585.713 109.473 582.96 113.741C585.06 108.263 586.978 103.354 589.162 98.2931C590.51 95.1645 591.803 91.4102 589.843 90.1449C587.326 88.518 584.795 92.022 582.001 97.2919C577.245 106.302 575.674 109.306 570.404 117.426C565.454 125.074 561.449 139.145 565.301 144.318C565.064 153.495 544.054 210.922 535.85 223.617C532.861 228.247 536.754 231.251 538.798 236.382C541.259 242.569 550.812 264.191 565.551 253.332C569.723 250.259 573.88 241.846 574.158 240.484L574.144 240.498Z" fill="white"/>
<path d="M557.513 257.086C560.308 257.086 563.145 256.029 565.981 253.943C570.361 250.718 574.561 242.18 574.867 240.65C576.772 231.209 578.287 218.82 579.886 205.694C582.125 187.284 584.447 168.248 588.118 155.08C593.569 149.657 600.159 140.16 602.732 131.011C603.789 127.271 603.705 125.602 601.161 123.044C599.756 121.625 597.573 121.486 595.613 122.084C596.433 120.471 597.128 118.538 594.75 116.606C593.749 115.799 592.234 115.118 590.774 115.41C590.676 113.449 589.578 111.767 587.854 111.099C586.964 110.752 585.837 110.696 584.725 111.183C586.282 107.15 587.965 102.909 589.828 98.585C591.385 94.9837 592.637 91.0764 590.231 89.5191C589.467 89.0185 588.646 88.8795 587.812 89.102C585.893 89.6025 584.016 91.869 581.346 96.9443L581.235 97.1389C576.563 105.996 574.978 108.972 569.777 117.023C564.966 124.462 560.614 138.742 564.535 144.527C563.965 153.843 543.567 210.282 535.21 223.2C532.818 226.899 534.445 229.777 536.156 232.822C536.823 234.018 537.532 235.241 538.074 236.646C540.633 243.098 546.167 254.277 554.385 256.627C555.414 256.919 556.443 257.072 557.486 257.072L557.513 257.086ZM597.768 123.238C598.672 123.238 599.52 123.489 600.118 124.086C602.203 126.186 602.245 127.298 601.314 130.608C598.797 139.576 592.275 148.907 586.95 154.163C586.853 154.246 586.797 154.371 586.755 154.482C583.015 167.761 580.679 186.95 578.426 205.499C576.827 218.584 575.325 230.945 573.434 240.331C573.184 241.554 569.124 249.786 565.119 252.734C561.601 255.32 558.139 256.154 554.83 255.209C547.224 253.026 541.954 242.305 539.493 236.104C538.895 234.616 538.144 233.281 537.477 232.099C535.794 229.109 534.57 226.954 536.475 224.006C544.512 211.576 565.801 154.232 566.051 144.318C566.051 144.151 566.009 143.998 565.912 143.859C562.436 139.201 565.884 125.797 571.043 117.815C576.285 109.723 577.856 106.719 582.556 97.8203L582.667 97.6256C584.155 94.8029 586.352 91.0069 588.201 90.5202C588.632 90.409 589.036 90.4785 589.453 90.7566C591.135 91.8412 589.147 96.4715 588.493 98.001C586.185 103.368 584.141 108.61 582.278 113.477C582.139 113.825 582.292 114.228 582.639 114.395C582.973 114.562 583.39 114.45 583.599 114.145C584.6 112.587 586.004 111.961 587.353 112.476C588.507 112.921 589.606 114.325 589.272 116.383C589.23 116.675 589.355 116.953 589.592 117.12C589.828 117.273 590.148 117.287 590.398 117.12C591.441 116.453 592.873 116.953 593.833 117.746C595.432 119.053 595.015 120.054 594.083 121.876C593.847 122.334 593.596 122.821 593.402 123.322C593.29 123.614 593.374 123.947 593.61 124.156C593.861 124.365 594.194 124.378 594.472 124.225C595.446 123.628 596.669 123.238 597.796 123.238H597.768Z" fill="#0F172A"/>
<path d="M590.411 136.851C591.079 136.851 591.788 136.642 592.428 136.225C593.304 135.655 593.929 134.807 594.486 134.07L597.044 130.636C597.28 130.302 597.225 129.843 596.891 129.607C596.571 129.37 596.098 129.426 595.862 129.76L593.304 133.194C592.803 133.861 592.289 134.557 591.621 134.988C590.995 135.391 590.272 135.488 589.772 135.238C589.174 134.918 588.924 134.112 588.951 133.486C588.993 132.652 589.382 131.845 589.772 131.08C591.232 128.23 591.649 127.743 592.859 126.269C593.318 125.727 593.874 125.032 594.638 124.059C594.889 123.739 594.833 123.28 594.513 123.03C594.194 122.779 593.735 122.835 593.484 123.155C592.734 124.114 592.177 124.796 591.732 125.338C590.481 126.853 590.008 127.424 588.479 130.413C588.034 131.275 587.547 132.304 587.505 133.43C587.45 134.793 588.075 136.017 589.118 136.559C589.522 136.768 589.966 136.865 590.439 136.865L590.411 136.851Z" fill="#0F172A"/>
<path d="M584.211 135.335C585.143 135.335 586.005 134.849 586.756 134.334C587.479 133.848 588.188 133.333 588.883 132.805C589.203 132.554 589.273 132.096 589.022 131.776C588.772 131.456 588.313 131.386 587.993 131.637C587.326 132.151 586.631 132.638 585.935 133.111C585.254 133.57 584.545 133.973 583.933 133.82C583.182 133.625 582.793 132.554 582.793 131.609C582.793 130.135 584.128 126.45 590.413 117.19L590.594 116.925C590.816 116.592 590.733 116.133 590.399 115.897C590.065 115.674 589.606 115.757 589.37 116.091L589.189 116.341C583.891 124.128 581.319 129.106 581.305 131.581C581.305 133.097 581.987 134.821 583.544 135.224C583.766 135.28 583.989 135.308 584.197 135.308L584.211 135.335Z" fill="#0F172A"/>
<path d="M580.109 141.885C580.429 141.885 580.721 141.676 580.818 141.342C581.945 137.352 579.567 134.042 577.829 131.609C577.133 130.636 576.174 129.301 576.383 128.953C577.05 127.827 580.749 126.714 582.515 126.172C583.516 125.866 583.961 125.727 584.211 125.574C586.074 124.49 586.686 123.238 586.867 122.376C587.02 121.625 586.909 120.874 586.547 120.388C586.06 119.706 584.42 118.344 583.335 118.232C581.152 117.996 575.952 119.359 572.837 120.165C572.309 120.304 571.864 120.416 571.516 120.513C570.167 120.847 565.884 123.447 565.745 125.366C565.718 125.769 566.024 126.13 566.427 126.158C566.83 126.186 567.192 125.88 567.219 125.477C567.275 124.684 570.417 122.307 571.877 121.945C572.239 121.862 572.698 121.736 573.212 121.597C576.021 120.86 581.277 119.498 583.182 119.706C583.641 119.762 584.934 120.694 585.351 121.264C585.421 121.375 585.504 121.681 585.421 122.084C585.323 122.543 584.934 123.447 583.474 124.309C583.335 124.378 582.668 124.587 582.084 124.768C579.052 125.685 576.007 126.714 575.117 128.202C574.408 129.384 575.381 130.747 576.619 132.471C578.274 134.779 580.318 137.644 579.386 140.939C579.275 141.328 579.497 141.746 579.901 141.843C579.97 141.857 580.04 141.871 580.095 141.871L580.109 141.885Z" fill="#0F172A"/>
<path d="M579.858 120.012C580.164 120.012 580.456 119.818 580.553 119.498C580.818 118.677 581.833 116.967 582.653 115.591C583.084 114.868 583.487 114.186 583.765 113.672C583.96 113.31 583.821 112.865 583.459 112.671C583.098 112.476 582.653 112.615 582.458 112.976C582.194 113.463 581.805 114.131 581.374 114.84C580.47 116.355 579.455 118.066 579.135 119.053C579.01 119.442 579.218 119.859 579.608 119.984C579.677 120.012 579.761 120.026 579.83 120.026L579.858 120.012Z" fill="#0F172A"/>
<path d="M580.803 133.375C581.193 133.375 581.568 133.291 581.902 133.125C582.263 132.944 582.416 132.499 582.235 132.137C582.055 131.776 581.61 131.623 581.248 131.804C580.873 131.984 580.164 131.915 579.607 131.428C578.773 130.677 578.634 129.301 579.232 127.646C579.371 127.257 579.176 126.84 578.787 126.701C578.398 126.562 577.981 126.756 577.841 127.146C576.701 130.344 578.008 131.97 578.62 132.513C579.232 133.069 580.025 133.361 580.775 133.361L580.803 133.375Z" fill="#0F172A"/>
<path d="M303.138 273.007C308.95 242.472 308.992 209.698 333.59 189.175C345.395 179.316 373.385 175.062 389.793 174.019C390.794 189.898 406.326 193.68 416.268 193.04C432.87 191.97 435.818 188.716 440.045 176.104C443.771 177.592 466.186 178.719 480.744 191.72C507.775 215.858 540.813 213.62 538.533 215.107C536.475 216.442 543.858 250.134 564.465 254.277C575.297 256.446 514.95 265.387 473.569 254.43C475.127 276.08 467.34 339.25 462.849 363.569C419.688 393.673 330.92 359.634 330.92 359.634C330.92 359.634 337.705 339.653 337.705 324.58C337.705 317.099 320.171 333.66 316.695 334.272C315.541 334.48 311.926 331.908 311.467 330.823C308.547 323.996 297.785 301.081 303.124 272.993L303.138 273.007Z" fill="#0F172A"/>
<path d="M414.168 376.723C417.589 376.723 420.884 376.612 424.082 376.375C440.128 375.207 453.324 371.105 463.28 364.167C463.433 364.056 463.544 363.889 463.586 363.694C468.091 339.291 475.6 277.637 474.376 255.39C511.585 264.901 563.005 258.949 566.162 255.654C566.454 255.348 566.551 254.972 566.44 254.611C566.231 253.944 565.397 253.693 564.618 253.54C554.245 251.468 547.71 241.832 544.039 234.115C539.881 225.369 538.505 216.915 539.019 215.65C539.436 215.316 539.381 214.899 539.353 214.774C539.186 214.037 538.588 213.967 535.307 213.592C526.213 212.535 502.046 209.74 481.231 191.163C469.704 180.86 453.644 177.968 445.009 176.424C442.798 176.021 441.046 175.715 440.309 175.409C440.114 175.34 439.906 175.34 439.725 175.423C439.544 175.506 439.405 175.659 439.336 175.854C435.192 188.229 432.564 191.233 416.212 192.29C413.459 192.47 406.367 192.512 400.027 189.064C394.159 185.879 390.961 180.79 390.53 173.963C390.53 173.768 390.433 173.588 390.28 173.462C390.127 173.337 389.932 173.268 389.751 173.282C370.632 174.505 344.324 179.261 333.131 188.619C312.941 205.471 309.048 230.945 305.293 255.57C304.417 261.271 303.528 267.167 302.429 272.882C297.284 299.913 306.795 321.841 310.369 330.1C310.536 330.476 310.675 330.823 310.814 331.129C311.37 332.422 315.277 335.287 316.848 335.009C318.114 334.786 320.477 333.104 324.218 330.378C328.209 327.472 334.897 322.592 336.607 323.481C336.857 323.607 336.996 323.982 336.996 324.594C336.996 339.361 330.322 359.203 330.253 359.411C330.127 359.787 330.322 360.19 330.684 360.343C330.906 360.427 353.265 368.936 380.602 373.636C392.671 375.708 403.92 376.751 414.196 376.751L414.168 376.723ZM462.181 363.124C440.087 378.336 405.783 376.445 380.852 372.148C356.255 367.921 335.731 360.607 331.852 359.175C333.034 355.532 338.456 338.026 338.456 324.566C338.456 323.064 337.817 322.411 337.261 322.147C334.925 320.951 330.016 324.302 323.328 329.169C320.491 331.226 317.571 333.368 316.57 333.535C315.778 333.646 312.524 331.407 312.148 330.517C312.009 330.211 311.87 329.864 311.704 329.488C308.172 321.34 298.8 299.718 303.861 273.132C304.96 267.389 305.864 261.48 306.726 255.765C310.619 230.291 314.29 206.222 334.049 189.731C344.839 180.721 370.271 176.077 389.098 174.783C389.751 181.694 393.269 187.075 399.304 190.357C405.992 193.986 413.403 193.944 416.296 193.764C432.759 192.707 436.263 189.411 440.49 177.022C441.463 177.286 442.909 177.55 444.745 177.87C453.227 179.4 469.023 182.236 480.244 192.262C501.393 211.158 525.907 213.995 535.126 215.052C536.072 215.163 536.975 215.26 537.559 215.358C537.379 216.122 537.351 217.596 537.907 220.489C539.909 230.987 548.002 251.719 564.312 254.986C564.354 254.986 564.396 255 564.437 255.014C557.916 257.753 509.416 263.149 473.764 253.707C473.528 253.652 473.291 253.707 473.111 253.846C472.93 253.999 472.832 254.236 472.846 254.472C474.362 275.607 466.77 338.193 462.195 363.124H462.181Z" fill="#0F172A"/>
<path d="M347.675 300.413C347.981 300.413 348.273 300.219 348.37 299.913C357.172 273.243 362.164 256.363 362.164 219.807C362.164 219.404 361.83 219.07 361.427 219.07C361.024 219.07 360.69 219.404 360.69 219.807C360.69 256.154 355.74 272.924 346.98 299.454C346.855 299.843 347.063 300.26 347.453 300.386C347.536 300.413 347.606 300.427 347.689 300.427L347.675 300.413Z" fill="#0F172A"/>
<path d="M473.569 255.153C473.75 255.153 473.917 255.098 474.056 254.959C474.487 254.569 474.501 254.152 474.584 248.757C474.64 244.753 474.737 238.05 475.113 227.886C475.127 227.483 474.807 227.135 474.404 227.121C473.987 227.093 473.653 227.427 473.639 227.83C473.264 238.023 473.166 244.725 473.111 248.743C473.069 251.635 473.041 253.582 472.944 254.041C472.777 254.305 472.805 254.667 473.027 254.917C473.166 255.084 473.375 255.167 473.583 255.167L473.569 255.153Z" fill="#0F172A"/>
<path d="M427.058 240.261C443.633 240.261 458.678 238.801 466.618 234.755C466.743 234.699 466.784 234.546 466.729 234.421C466.673 234.296 466.52 234.254 466.395 234.31C450.015 242.653 402.947 239.928 375.305 236.048C375.18 236.034 375.04 236.118 375.027 236.257C375.013 236.396 375.096 236.521 375.235 236.535C389.599 238.551 409.205 240.247 427.058 240.247V240.261Z" fill="white"/>
<path d="M409.37 263.538C431.368 263.538 451.474 260.034 466.561 256.349C466.686 256.321 466.77 256.182 466.742 256.057C466.714 255.932 466.575 255.848 466.45 255.876C443.312 261.536 408.286 266.75 372.843 259.505C372.703 259.478 372.578 259.561 372.551 259.7C372.523 259.839 372.606 259.964 372.745 259.992C385.162 262.537 397.537 263.552 409.37 263.552V263.538Z" fill="white"/>
<path d="M305.433 313.442C305.516 313.442 305.6 313.401 305.641 313.317C313.567 299.968 326.471 293.239 338.526 296.172C338.651 296.2 338.79 296.131 338.818 295.992C338.846 295.867 338.776 295.728 338.637 295.7C326.373 292.696 313.247 299.524 305.21 313.067C305.141 313.178 305.182 313.331 305.294 313.401C305.335 313.428 305.377 313.428 305.419 313.428L305.433 313.442Z" fill="white"/>
<path d="M308.547 318.893C308.547 318.893 308.645 318.879 308.7 318.837C310.174 317.725 311.189 316.154 312.177 314.624C312.524 314.096 312.872 313.539 313.247 313.025C315.5 309.855 318.573 307.352 322.146 305.781C322.271 305.725 322.327 305.586 322.271 305.461C322.216 305.336 322.077 305.28 321.952 305.336C318.309 306.935 315.152 309.493 312.858 312.747C312.482 313.275 312.121 313.831 311.773 314.36C310.814 315.848 309.813 317.377 308.408 318.448C308.297 318.531 308.283 318.684 308.367 318.796C308.408 318.865 308.492 318.893 308.561 318.893H308.547Z" fill="white"/>
<path d="M538.519 238.454C538.519 238.454 538.589 238.454 538.617 238.44C538.742 238.384 538.798 238.245 538.756 238.12C536.03 231.459 534.696 224.145 534.89 216.957C534.89 216.818 534.793 216.706 534.654 216.706C534.515 216.706 534.404 216.804 534.404 216.943C534.209 224.201 535.558 231.585 538.311 238.301C538.353 238.398 538.436 238.454 538.533 238.454H538.519Z" fill="white"/>
<path d="M529.23 225.022C529.23 225.022 529.272 225.022 529.286 225.022C529.425 224.994 529.494 224.855 529.467 224.73C528.883 222.171 528.716 219.543 528.98 216.943C528.98 216.804 528.897 216.693 528.757 216.679C528.618 216.665 528.507 216.762 528.493 216.901C528.229 219.571 528.396 222.241 528.98 224.855C529.008 224.966 529.105 225.049 529.216 225.049L529.23 225.022Z" fill="white"/>
<path d="M345.493 301.998C345.812 301.998 346.118 301.776 346.202 301.456C352.167 279.542 356.227 257.003 358.299 234.477C358.341 234.073 358.035 233.712 357.631 233.67C357.228 233.629 356.867 233.934 356.825 234.338C354.767 256.78 350.721 279.236 344.77 301.067C344.658 301.456 344.895 301.859 345.284 301.971C345.354 301.985 345.409 301.998 345.479 301.998H345.493Z" fill="white"/>
<path d="M475.35 259.255C475.753 259.255 476.087 258.908 476.073 258.504L475.697 233.601C475.697 233.198 475.35 232.878 474.947 232.878C474.543 232.878 474.21 233.225 474.223 233.629L474.599 258.532C474.599 258.935 474.933 259.255 475.336 259.255H475.35Z" fill="white"/>
<path d="M342.016 307.769C338.804 304.682 332.7 305.85 328.668 307.769C326.679 308.715 310.744 323.454 316.57 335.787C321.576 346.397 324.886 350.401 351.416 389.613C352.403 391.073 353.432 392.574 354.92 393.506C359.675 396.454 365.891 391.907 367.949 386.693C372.315 375.666 366.503 363.486 361.149 352.904C355.726 342.183 345.228 310.87 342.002 307.783L342.016 307.769Z" fill="white"/>
<path d="M358.188 395.161C359.022 395.161 359.884 395.022 360.76 394.73C364.069 393.631 367.226 390.517 368.63 386.957C373.26 375.235 366.642 362.137 361.803 352.556C359.425 347.843 356.018 339.041 352.723 330.517C347.564 317.169 344.297 308.937 342.517 307.227C339.207 304.043 333.02 304.863 328.334 307.088C325.859 308.27 309.854 323.287 315.889 336.079C319.88 344.519 322.814 348.83 336.927 369.59C340.626 375.027 345.228 381.784 350.79 390.016C351.764 391.462 352.862 393.089 354.517 394.118C355.629 394.813 356.867 395.161 358.174 395.161H358.188ZM336.44 306.601C338.443 306.601 340.25 307.088 341.502 308.284C343.17 309.896 347.328 320.645 351.36 331.046C354.67 339.597 358.09 348.441 360.496 353.21C365.209 362.526 371.661 375.291 367.267 386.401C366.016 389.571 363.207 392.352 360.301 393.325C359.036 393.742 357.145 394.007 355.309 392.866C353.919 392.004 352.918 390.517 352.014 389.196C346.452 380.964 341.849 374.206 338.151 368.769C324.093 348.107 321.159 343.796 317.224 335.467C311.495 323.342 327.708 309.034 328.974 308.436C331.226 307.366 333.965 306.615 336.427 306.615L336.44 306.601Z" fill="#0F172A"/>
<path d="M160.71 230.18C161.016 243.64 152.785 257.392 140.062 261.827C133.137 264.247 125.545 263.899 118.454 265.749C111.362 267.598 104.132 272.937 104.076 280.279C104.048 285.146 106.815 296.2 92.2292 302.666C80.2015 308.005 83.0659 336.886 120.331 349.038C131.747 352.765 124.391 343.393 136.252 341.571C147.974 339.764 158.597 333.145 166.689 324.469C174.768 315.792 180.497 305.169 184.946 294.184C190.077 281.531 193.665 267.556 190.494 254.277C187.324 240.998 175.616 228.998 160.71 230.18Z" fill="#0F172A"/>
<path d="M124.614 350.651C127.075 350.651 127.979 349.317 128.938 347.412C129.953 345.395 131.093 343.115 136.363 342.309C147.431 340.598 158.388 334.452 167.218 324.983C174.393 317.28 180.414 307.296 185.628 294.462C192.163 278.346 193.943 265.526 191.218 254.11C189.563 247.172 185.753 240.831 180.497 236.257C174.727 231.237 167.858 228.873 160.669 229.443C160.279 229.471 159.987 229.805 159.987 230.194C160.307 243.932 151.825 256.947 139.839 261.132C136.057 262.453 131.955 262.94 128.006 263.427C124.794 263.816 121.485 264.219 118.287 265.04C111.14 266.903 103.409 272.479 103.367 280.279C103.367 280.919 103.409 281.642 103.45 282.421C103.742 287.704 104.243 296.548 91.9512 301.999C87.4599 303.987 84.8736 309.104 85.1934 315.333C85.7496 326.137 95.2327 341.627 120.122 349.748C122.055 350.373 123.501 350.651 124.627 350.651H124.614ZM162.741 230.834C176.659 230.834 186.991 242.695 189.785 254.444C192.441 265.554 190.689 278.082 184.265 293.906C179.134 306.573 173.197 316.404 166.147 323.968C157.54 333.201 146.889 339.194 136.141 340.849C130.12 341.78 128.674 344.645 127.617 346.744C126.532 348.899 125.935 350.095 120.553 348.343C96.3729 340.459 87.1679 325.595 86.6395 315.264C86.3475 309.646 88.6001 305.085 92.5212 303.347C105.745 297.479 105.216 287.996 104.897 282.337C104.855 281.545 104.813 280.877 104.813 280.279C104.855 273.257 112.016 268.196 118.635 266.458C121.735 265.651 124.989 265.262 128.159 264.873C132.192 264.386 136.377 263.885 140.312 262.509C152.687 258.198 161.489 244.961 161.461 230.862C161.892 230.834 162.31 230.834 162.727 230.834H162.741Z" fill="#0F172A"/>
<path d="M233.559 199.423C229.638 218.556 225.842 239.149 233.67 257.03C236.215 262.843 239.913 268.14 242.013 274.133C244.502 281.253 244.572 288.998 243.904 296.52C242.625 310.731 238.356 325.303 228.359 335.481C218.361 345.66 201.661 350.095 189.328 342.92C178.51 336.622 173.574 323.078 174.255 310.578C174.936 298.077 180.262 286.356 185.893 275.176C199.409 248.312 215.177 222.588 233.545 199.423H233.559Z" fill="#0F172A"/>
<path d="M205.889 292.752C205.541 282.56 206.793 276.845 207.21 269.211C203.094 267.153 198.645 265.721 194.098 264.984C192.054 264.65 189.76 264.525 188.188 265.763C187.201 266.541 182.543 262.425 182.056 263.552C178.733 271.338 178.455 282.434 175.132 290.221C174.881 290.819 163.243 289.734 162.979 290.346C161.894 292.877 162.798 313.984 163.605 314.527C206.167 342.823 226.677 302.346 226.677 302.346C226.677 302.346 218.96 297.619 205.889 292.752Z" fill="white"/>
<path d="M192.262 325.303C195.335 325.303 198.352 324.914 201.286 324.149C218.597 319.588 227.246 302.847 227.33 302.68C227.496 302.332 227.385 301.915 227.051 301.72C226.968 301.679 219.307 297.007 206.598 292.237C206.403 285.772 206.876 281.086 207.321 276.567C207.557 274.245 207.793 271.839 207.932 269.267C207.946 268.975 207.793 268.697 207.529 268.571C203.33 266.472 198.853 265.026 194.208 264.275C192.178 263.955 189.634 263.76 187.798 265.137C187.353 265.109 186.102 264.372 185.337 263.927C183.71 262.968 182.751 262.439 182 262.69C181.708 262.787 181.485 262.996 181.36 263.274C179.664 267.237 178.746 272.075 177.856 276.761C176.994 281.239 176.118 285.883 174.561 289.651C173.713 289.748 171.071 289.651 169.082 289.568C162.978 289.317 162.575 289.401 162.283 290.082C161.518 291.89 161.741 300.608 161.838 303.236C162.227 314.527 162.895 314.972 163.187 315.166C173.365 321.938 183.112 325.345 192.248 325.345L192.262 325.303ZM225.689 302.61C223.979 305.6 215.719 318.823 200.897 322.717C189.703 325.665 177.356 322.717 164.16 313.998C163.451 311.843 162.77 294.128 163.562 290.916C164.452 290.819 167.066 290.916 169.041 291.014C175.117 291.264 175.52 291.181 175.812 290.499C177.509 286.536 178.426 281.698 179.316 277.012C180.178 272.52 181.054 267.89 182.612 264.122C183.084 264.275 183.974 264.803 184.614 265.179C186.38 266.208 187.77 267.028 188.646 266.333C190.037 265.234 192.234 265.429 193.986 265.707C198.324 266.402 202.51 267.737 206.445 269.656C206.306 272.006 206.097 274.147 205.874 276.414C205.402 281.1 204.929 285.952 205.165 292.78C205.165 293.072 205.36 293.336 205.652 293.447C216.456 297.466 223.659 301.442 225.717 302.624L225.689 302.61Z" fill="#0F172A"/>
<path d="M237.952 204.123C236.701 213.564 234.796 223.478 237.229 232.878C238.564 238.009 238.439 264.08 217.512 271.505C206.513 275.413 193.888 274.606 182.542 267.723C174.852 263.051 165.508 248.562 167.371 234.171C161.003 235.937 154.704 231.64 154.635 225.912C154.593 222.616 158.236 218.472 162.074 218.667C165.049 218.806 165.411 218.848 167.663 220.572C169.207 213.828 170.152 206.945 170.027 199.187C177.258 191.219 188.868 187.145 200.465 185.407C204.303 184.837 208.238 184.475 212.131 184.962C223.269 186.352 239.218 194.431 237.938 204.123H237.952Z" fill="white"/>
<path d="M203.969 274.606C208.585 274.606 213.23 273.814 217.777 272.201C238.675 264.775 239.579 238.968 237.952 232.697C235.839 224.577 237.049 215.983 238.217 207.682C238.383 206.528 238.536 205.374 238.689 204.22C239.051 201.509 238.203 198.797 236.173 196.169C231.209 189.731 220.14 185.212 212.242 184.225C207.946 183.683 203.635 184.183 200.368 184.67C190.787 186.102 177.647 189.703 169.485 198.686C169.36 198.825 169.29 199.006 169.29 199.2C169.402 205.861 168.734 212.285 167.191 219.307C165.536 218.153 164.799 218.069 162.102 217.93C160.211 217.833 158.194 218.681 156.581 220.252C154.899 221.879 153.87 224.048 153.898 225.925C153.94 228.692 155.316 231.307 157.708 233.1C160.183 234.964 163.409 235.687 166.523 235.13C165.147 249.8 174.588 263.774 182.166 268.363C189.007 272.507 196.46 274.62 203.969 274.62V274.606ZM237.229 204.025C237.076 205.166 236.91 206.32 236.757 207.474C235.575 215.928 234.351 224.66 236.534 233.059C237.452 236.59 238.606 263.232 217.29 270.796C205.818 274.87 193.61 273.549 182.945 267.084C175.715 262.704 166.273 248.493 168.122 234.254C168.15 234.004 168.067 233.768 167.872 233.601C167.691 233.434 167.427 233.378 167.191 233.448C164.215 234.282 161.003 233.698 158.612 231.904C156.595 230.389 155.427 228.206 155.386 225.898C155.372 224.41 156.22 222.658 157.624 221.309C158.959 220.016 160.572 219.335 162.06 219.404C164.966 219.543 165.147 219.557 167.246 221.156C167.441 221.309 167.705 221.351 167.942 221.267C168.178 221.184 168.359 220.989 168.414 220.739C170.125 213.258 170.89 206.486 170.792 199.465C178.662 190.955 191.33 187.52 200.604 186.13C203.774 185.657 207.946 185.17 212.076 185.685C219.668 186.63 230.291 190.941 235.018 197.059C236.798 199.367 237.549 201.703 237.243 204.011L237.229 204.025Z" fill="#0F172A"/>
<path d="M192.274 242.291C195.32 242.291 198.281 241.165 200.756 239.051C203.635 236.59 205.498 233.058 206.012 229.123C207.069 220.961 201.897 213.55 194.499 212.604C190.898 212.146 187.324 213.244 184.418 215.733C181.54 218.194 179.677 221.726 179.162 225.661C178.648 229.596 179.565 233.476 181.721 236.59C183.89 239.733 187.074 241.707 190.675 242.18C191.218 242.249 191.746 242.277 192.274 242.277V242.291ZM192.886 213.981C193.359 213.981 193.818 214.009 194.291 214.078C200.882 214.927 205.47 221.601 204.525 228.943C204.066 232.516 202.383 235.714 199.783 237.939C197.197 240.15 194.026 241.137 190.856 240.734C187.672 240.317 184.863 238.565 182.93 235.77C180.984 232.961 180.163 229.443 180.622 225.87C181.081 222.296 182.764 219.098 185.364 216.873C187.561 214.996 190.189 213.995 192.886 213.995V213.981Z" fill="#0F172A"/>
<path d="M230.068 244.03C236.84 244.03 242.833 238.44 243.82 230.876C244.877 222.713 239.704 215.302 232.307 214.357C224.909 213.397 218.027 219.265 216.97 227.413C215.913 235.575 221.086 242.987 228.483 243.932C229.011 244.002 229.54 244.03 230.068 244.03ZM230.722 215.719C231.181 215.719 231.653 215.747 232.112 215.803C238.703 216.651 243.306 223.325 242.346 230.681C241.401 238.023 235.255 243.32 228.664 242.458C222.073 241.61 217.484 234.936 218.43 227.58C219.306 220.753 224.673 215.705 230.708 215.705L230.722 215.719Z" fill="#0F172A"/>
<path d="M182.04 177.481C168.747 177.481 157.971 166.705 157.971 153.412C157.971 140.119 168.747 129.343 182.04 129.343C195.333 129.343 206.109 140.119 206.109 153.412C206.109 166.705 195.333 177.481 182.04 177.481Z" fill="#0F172A"/>
<path d="M168.512 221.559C174.616 212.09 178.357 205.263 180.359 193.736C202.899 207.084 224.312 209.156 245.892 208.336C246.351 204.665 245.573 196.545 244.057 193.054C240.317 184.517 235.645 177.133 222.616 171.307C213.48 167.219 201.188 164.508 191.302 165.94C181.485 167.358 173.031 172.67 166.162 179.038C160.698 184.114 156.067 192.429 154.441 200.66C153.05 207.71 154.774 212.897 157.931 220.071C159.697 219.112 161.365 218.153 163.423 218.542C165.481 218.931 166.802 219.988 168.512 221.545V221.559Z" fill="#0F172A"/>
<path d="M201.215 257.642C202.828 257.642 204.316 257.142 205.484 256.168C205.804 255.904 205.846 255.445 205.581 255.126C205.317 254.806 204.858 254.764 204.539 255.028C202.981 256.335 200.645 256.516 198.309 255.543C195.709 254.458 193.568 252.358 192.288 249.619C192.122 249.244 191.677 249.091 191.301 249.258C190.926 249.425 190.773 249.87 190.94 250.245C192.372 253.304 194.791 255.668 197.725 256.891C198.893 257.378 200.075 257.628 201.201 257.628L201.215 257.642Z" fill="#0F172A"/>
<path d="M193.22 228.039C193.373 226.857 194.513 226.037 195.75 226.19C197.002 226.356 197.878 227.441 197.725 228.623C197.572 229.805 196.432 230.625 195.194 230.472C193.957 230.319 193.067 229.221 193.22 228.039Z" fill="#0F172A"/>
<path d="M226.898 229.819C227.051 228.637 228.191 227.816 229.428 227.969C230.666 228.122 231.556 229.221 231.403 230.403C231.25 231.585 230.11 232.419 228.872 232.252C227.635 232.085 226.745 231.001 226.898 229.819Z" fill="#0F172A"/>
<path d="M214.258 243.515C214.342 243.515 214.439 243.501 214.522 243.473L217.595 242.305C217.957 242.166 218.638 241.902 218.902 241.235C219.222 240.414 218.68 239.691 218.374 239.288C216.052 236.173 215.273 232.127 216.302 228.47C216.413 228.081 216.177 227.663 215.788 227.566C215.398 227.455 214.981 227.691 214.884 228.081C213.73 232.169 214.592 236.688 217.192 240.178C217.401 240.47 217.512 240.651 217.512 240.734C217.498 240.734 217.387 240.817 217.067 240.943L213.994 242.111C213.619 242.25 213.424 242.681 213.563 243.056C213.674 243.348 213.952 243.529 214.258 243.529V243.515Z" fill="#0F172A"/>
<path d="M218.249 225.202C218.652 225.202 218.986 224.883 218.986 224.479C219.027 222.407 216.997 220.961 214.967 220.447C211.658 219.599 207.89 220.475 205.387 222.658C205.081 222.922 205.053 223.395 205.317 223.701C205.581 224.007 206.054 224.034 206.36 223.77C208.515 221.893 211.755 221.156 214.606 221.879C216.066 222.255 217.526 223.256 217.512 224.465C217.512 224.869 217.832 225.202 218.235 225.216L218.249 225.202Z" fill="#0F172A"/>
<path d="M180.692 221.615C181.095 221.615 181.429 221.281 181.429 220.878C181.429 220.475 181.095 220.141 180.692 220.141L169.554 220.113C169.151 220.113 168.817 220.447 168.817 220.85C168.817 221.253 169.151 221.587 169.554 221.587L180.692 221.615Z" fill="#0F172A"/>
<path d="M167.524 229.332C167.927 229.332 168.261 228.998 168.247 228.581C168.219 225.856 168.762 223.089 169.832 220.572C169.985 220.197 169.818 219.766 169.443 219.599C169.067 219.446 168.636 219.613 168.47 219.988C167.329 222.686 166.745 225.661 166.773 228.581C166.773 228.984 167.107 229.318 167.51 229.318L167.524 229.332Z" fill="#0F172A"/>
<path d="M85.8888 379.824C95.7334 352.89 101.184 326.318 124.419 306.921C135.571 297.605 149.031 291 164.534 290.013C165.48 305.03 182.917 314.916 192.275 316.028C197.364 316.64 216.26 319.157 216.26 296.868C222.42 299.329 242.944 301.845 251.161 327.124C254.526 337.456 260.547 377.029 280.417 399.958C285.103 405.367 289.441 369.339 296.199 371.731C302.818 374.081 310.452 378.03 310.952 385.038C311.341 390.503 306.836 395.258 301.803 397.427C290.985 402.071 286.938 424.597 275.272 426.238C263.147 427.948 243.806 432.412 229.15 386.609C221.669 394.09 216.83 402.141 208.432 406.66C184.224 419.703 103.687 434.358 90.5748 436.68C89.4902 436.875 87.0151 435.985 86.5702 434.97C83.817 428.518 76.6004 405.186 85.8749 379.81L85.8888 379.824Z" fill="#0F172A"/>
<path d="M90.2547 437.459C90.4216 437.459 90.5606 437.459 90.6996 437.417C106.19 434.664 184.696 420.301 208.779 407.314C214.591 404.185 218.721 399.402 223.087 394.354C224.895 392.269 226.758 390.099 228.816 387.986C235.059 407.035 242.637 418.952 251.968 424.403C260.116 429.172 267.903 428.032 274.146 427.128C274.563 427.072 274.966 427.003 275.369 426.947C281.96 426.016 286.187 418.868 290.275 411.958C293.71 406.146 297.269 400.153 302.081 398.081C307.17 395.898 312.106 390.989 311.675 384.969C311.258 379.073 306.266 374.512 296.435 371.022C295.726 370.772 295.003 370.813 294.294 371.175C291.193 372.718 288.815 380.338 286.521 387.708C284.978 392.672 282.85 399.457 281.432 399.749C281.293 399.777 281.098 399.61 280.973 399.457C265.149 381.186 258.072 351.875 254.262 336.121C253.289 332.116 252.524 328.946 251.856 326.874C244.654 304.738 227.857 299.676 219.792 297.229C218.485 296.84 217.345 296.492 216.524 296.159C216.302 296.061 216.038 296.103 215.843 296.228C215.634 296.367 215.523 296.59 215.523 296.84C215.523 303.598 213.743 308.603 210.225 311.718C204.58 316.724 195.834 315.681 192.538 315.278H192.372C183.417 314.193 166.217 304.543 165.285 289.929C165.285 289.735 165.188 289.554 165.035 289.429C164.882 289.303 164.701 289.234 164.506 289.248C150.073 290.179 136.433 295.922 123.96 306.337C104.618 322.48 97.5686 343.379 90.0878 365.502C88.5305 370.09 86.9314 374.846 85.2072 379.546C76.7948 402.544 81.6893 425.376 85.9164 435.248C86.4586 436.514 88.8364 437.431 90.2825 437.431L90.2547 437.459ZM229.136 385.872C228.941 385.872 228.76 385.942 228.608 386.095C226.174 388.528 224.033 391.003 221.961 393.395C217.678 398.345 213.646 403.017 208.07 406.02C184.182 418.896 105.884 433.232 90.4354 435.971C89.5594 436.124 87.5015 435.304 87.2513 434.692C86.7924 433.635 76.2386 408.329 86.5838 380.074C88.308 375.346 89.9209 370.591 91.4783 365.988C98.8896 344.061 105.884 323.356 124.905 307.477C136.919 297.452 150.031 291.834 163.881 290.777C164.701 299.106 170.235 305.155 174.81 308.784C180.094 312.983 186.921 316.112 192.191 316.738H192.358C195.834 317.169 205.053 318.281 211.199 312.83C214.856 309.591 216.802 304.557 216.983 297.897C217.678 298.133 218.485 298.383 219.375 298.647C227.801 301.192 243.5 305.934 250.466 327.333C251.119 329.349 251.884 332.492 252.844 336.469C256.681 352.334 263.815 381.882 279.875 400.417C280.584 401.237 281.293 401.293 281.752 401.195C283.907 400.75 285.436 396.176 287.939 388.153C289.942 381.743 292.431 373.761 294.975 372.496C295.323 372.329 295.629 372.301 295.962 372.412C305.181 375.694 309.853 379.838 310.229 385.08C310.604 390.364 305.974 394.827 301.524 396.732C296.268 398.985 292.597 405.2 289.038 411.207C284.936 418.118 281.07 424.653 275.189 425.487C274.785 425.543 274.368 425.598 273.951 425.668C261.965 427.42 243.847 430.048 229.873 386.373C229.789 386.123 229.595 385.942 229.345 385.886C229.289 385.886 229.233 385.872 229.178 385.872H229.136Z" fill="#0F172A"/>
<path d="M114.783 405.798C136.891 404.561 159.125 403.045 181.373 401.515C183.361 401.182 193.262 399.777 195.695 399.416C197.767 399.11 199.741 398.345 201.632 397.469C208.251 394.41 222.448 388.417 225.604 390.197C232.904 392.338 239.509 397.608 244.682 404.282C247.588 408.023 249.965 414.224 248.756 415.295C247.991 415.976 246.837 416.254 245.989 415.545C242.554 408.176 236.422 402.099 229.011 398.721C232.459 400.667 235.657 403.031 238.536 405.729C241.456 408.468 244.139 411.777 244.793 415.74C244.848 416.046 244.876 416.38 244.709 416.658C244.306 417.311 243.305 416.936 242.693 416.463C241.511 415.545 226.299 403.184 223.463 403.518C227.245 404.95 240.719 415.879 240.774 417.033C240.802 417.589 240.691 418.173 240.343 418.604C239.871 419.202 239.022 419.383 238.271 419.258C237.521 419.133 236.839 418.743 236.2 418.354C231.847 415.712 227.871 412.403 223.171 410.442C220.821 409.469 217.957 408.899 215.871 410.359C220.056 411.944 223.977 414.252 227.273 417.283C227.801 417.77 228.232 418.34 228.58 418.952C229.094 419.884 229.678 421.219 228.955 421.983C227.787 423.235 226.786 422.609 225.785 422.011C221.753 419.355 217.637 417.158 213.326 415.448C211.991 414.92 210.392 414.447 209.183 415.226C208.14 415.893 203.064 419.049 192.636 419.592C189.076 419.772 185.642 420.704 181.192 421.928C122.583 438.085 105.077 444.523 90.8666 438.419C88.0856 437.223 87.154 435.763 88.0717 430.994C90.5468 418.257 92.9662 411.012 114.741 405.812L114.783 405.798Z" fill="white"/>
<path d="M102.811 441.45C114.032 441.45 130.023 436.973 160.099 428.574C166.44 426.808 173.615 424.792 181.429 422.637C185.573 421.497 189.146 420.509 192.706 420.329C202.453 419.828 207.779 417.033 209.614 415.851C210.546 415.253 211.964 415.684 213.09 416.143C217.29 417.812 221.322 419.939 225.41 422.637L225.521 422.706C226.495 423.276 227.982 424.152 229.526 422.498C230.722 421.232 229.609 419.258 229.248 418.604C228.858 417.895 228.358 417.27 227.788 416.755C224.923 414.127 221.572 411.986 217.79 410.345C219.473 409.983 221.419 410.526 222.907 411.138C225.966 412.417 228.803 414.336 231.542 416.185C232.932 417.13 234.379 418.104 235.839 418.994C236.548 419.425 237.299 419.856 238.175 419.995C239.273 420.176 240.344 419.828 240.942 419.077C241.373 418.549 241.567 417.826 241.54 417.005C241.54 416.797 241.359 416.477 241.025 416.046C241.261 416.241 241.512 416.435 241.762 416.63C242.012 416.825 242.193 416.964 242.277 417.047C242.805 417.464 243.639 417.854 244.39 417.728C244.807 417.645 245.155 417.422 245.377 417.047C245.558 416.755 245.6 416.449 245.6 416.171C246.629 416.978 248.13 416.852 249.257 415.851C251.189 414.141 247.727 406.994 245.266 403.837C239.621 396.565 232.932 391.615 225.883 389.516C222.101 387.611 207.473 393.965 201.327 396.802C199.783 397.511 197.739 398.373 195.584 398.679C194.945 398.776 193.777 398.943 192.358 399.152C188.548 399.708 182.806 400.528 181.276 400.778C159.543 402.266 137.073 403.81 114.728 405.061C114.686 405.061 114.644 405.061 114.603 405.075C92.3827 410.373 89.8937 417.937 87.3909 430.827C86.4592 435.624 87.2379 437.626 90.6168 439.072C94.3015 440.657 98.1393 441.436 102.797 441.436L102.811 441.45ZM210.74 414.071C210.087 414.071 209.433 414.211 208.835 414.6C207.097 415.712 202.036 418.354 192.636 418.841C188.91 419.035 185.267 420.037 181.04 421.205C173.225 423.36 166.036 425.362 159.696 427.142C117.481 438.947 103.27 442.924 91.2008 437.737C88.9204 436.75 87.9331 435.777 88.8369 431.133C91.2981 418.493 93.5646 411.652 114.881 406.549C137.226 405.298 159.682 403.754 181.415 402.266C181.443 402.266 181.457 402.266 181.485 402.266C182.945 402.03 188.743 401.182 192.581 400.639C193.985 400.431 195.153 400.264 195.807 400.167C198.157 399.819 200.326 398.915 201.953 398.164C211.867 393.59 222.921 389.557 225.257 390.864C225.299 390.892 225.354 390.906 225.41 390.934C232.084 392.894 238.731 397.803 244.112 404.755C247.171 408.704 248.826 414.03 248.269 414.767C247.825 415.156 247.129 415.406 246.587 415.073C243.069 407.661 236.798 401.46 229.331 398.067C228.97 397.9 228.552 398.053 228.372 398.401C228.191 398.748 228.316 399.179 228.664 399.374C232.056 401.293 235.213 403.615 238.049 406.285C241.637 409.664 243.556 412.709 244.084 415.879C244.14 416.185 244.112 416.268 244.098 416.282C244.015 416.31 243.584 416.213 243.166 415.879C243.083 415.81 242.902 415.67 242.666 415.476C226.328 402.447 224.131 402.697 223.408 402.781C223.074 402.822 222.796 403.087 222.754 403.42C222.712 403.754 222.907 404.088 223.227 404.199C226.8 405.548 239.078 415.504 240.052 417.172C240.052 417.575 239.954 417.923 239.788 418.146C239.482 418.521 238.87 418.618 238.411 418.535C237.799 418.438 237.201 418.09 236.589 417.728C235.157 416.852 233.739 415.893 232.362 414.961C229.568 413.07 226.675 411.096 223.463 409.775C221.169 408.815 217.929 408.051 215.468 409.775C215.246 409.928 215.12 410.206 215.162 410.47C215.19 410.748 215.371 410.971 215.635 411.068C219.918 412.695 223.672 414.975 226.8 417.84C227.259 418.257 227.649 418.757 227.968 419.327C228.566 420.398 228.747 421.177 228.455 421.497C227.746 422.261 227.301 422.039 226.272 421.441L226.203 421.399C222.059 418.674 217.943 416.491 213.647 414.781C212.771 414.433 211.742 414.099 210.74 414.099V414.071Z" fill="#0F172A"/>
<path d="M261.117 434.344C242.777 434.734 224.423 435.137 206.082 435.526L206.013 426.182L267.277 424.681L261.131 434.344H261.117Z" fill="#0F172A"/>
<path d="M417.505 348.983L297.854 349.65L256.626 434.344L375.151 434.052L417.505 348.983Z" fill="white"/>
<path d="M256.627 435.081L375.151 434.789C375.429 434.789 375.68 434.636 375.805 434.386L418.173 349.33C418.284 349.094 418.27 348.83 418.145 348.607C418.006 348.385 417.769 348.26 417.519 348.26L297.868 348.913C297.59 348.913 297.326 349.08 297.215 349.33L255.973 434.025C255.862 434.247 255.876 434.525 256.015 434.734C256.154 434.942 256.39 435.081 256.64 435.081H256.627ZM374.692 433.302L257.808 433.594L298.327 350.373L416.323 349.72L374.692 433.302Z" fill="#0F172A"/>
<path d="M341.835 383.508C345.228 383.175 348.94 384.079 350.331 387.207C351.721 390.336 350.651 394.243 348.134 396.537C345.617 398.832 341.891 399.582 338.554 398.832C336.76 398.428 334.98 397.552 333.937 396.023C333.214 394.966 332.908 393.659 332.908 392.38C332.88 388.181 334.799 384.19 341.835 383.508Z" fill="white"/>
<path d="M341.098 399.833C343.934 399.833 346.66 398.859 348.62 397.066C351.457 394.479 352.458 390.197 350.998 386.887C349.663 383.87 346.201 382.327 341.765 382.758C333.784 383.536 332.143 388.417 332.171 392.38C332.171 393.923 332.588 395.328 333.325 396.426C334.632 398.345 336.801 399.179 338.386 399.541C339.29 399.749 340.194 399.847 341.098 399.847V399.833ZM343.114 384.176C345.102 384.176 348.384 384.635 349.649 387.499C350.859 390.238 350.011 393.812 347.633 395.981C345.394 398.025 341.974 398.832 338.72 398.095C336.843 397.678 335.355 396.788 334.549 395.592C333.812 394.507 333.645 393.242 333.645 392.366C333.617 387.444 336.315 384.774 341.904 384.232C342.196 384.204 342.614 384.176 343.114 384.176Z" fill="#0F172A"/>
<path d="M127.979 405.77C128.285 405.77 128.577 405.575 128.674 405.27C137.003 380.06 141.703 364.111 141.703 329.558C141.703 329.155 141.369 328.821 140.966 328.821C140.563 328.821 140.229 329.155 140.229 329.558C140.229 363.903 135.543 379.754 127.27 404.811C127.145 405.2 127.353 405.617 127.743 405.742C127.826 405.77 127.896 405.784 127.979 405.784V405.77Z" fill="#0F172A"/>
<path d="M229.151 387.36C229.387 387.36 229.609 387.249 229.762 387.04C240.483 371.606 237.591 360.301 234.782 349.372C233.378 343.894 231.918 338.235 232.154 332.047C232.168 331.644 231.848 331.296 231.445 331.282C231.028 331.254 230.694 331.588 230.68 331.991C230.444 338.401 231.918 344.158 233.35 349.734C236.2 360.83 238.884 371.314 228.553 386.192C228.316 386.526 228.4 386.985 228.733 387.221C228.859 387.305 229.011 387.36 229.151 387.36Z" fill="#0F172A"/>
<path d="M194.167 349.4C205.026 349.4 215.9 348.413 226.454 345.771C226.579 345.743 226.662 345.604 226.634 345.479C226.606 345.354 226.467 345.27 226.342 345.298C199.562 352.014 170.654 347.968 145.166 344.394C145.041 344.38 144.902 344.464 144.888 344.603C144.874 344.742 144.957 344.867 145.097 344.881C160.6 347.05 177.37 349.4 194.167 349.4Z" fill="#0F172A"/>
<path d="M184.378 370.285C200.34 370.285 216.303 368.394 231.751 364.612C231.877 364.584 231.96 364.445 231.932 364.32C231.904 364.195 231.765 364.111 231.64 364.139C203.288 371.064 173.17 371.648 144.582 365.794C144.443 365.766 144.318 365.849 144.29 365.989C144.262 366.128 144.346 366.253 144.485 366.281C157.569 368.964 170.973 370.299 184.378 370.299V370.285Z" fill="#0F172A"/>
<path d="M84.0538 412.681C84.0538 412.681 84.1928 412.653 84.2345 412.597C94.2599 400.792 110.598 394.855 125.866 397.455C125.991 397.483 126.13 397.386 126.144 397.26C126.171 397.121 126.074 396.996 125.949 396.982C110.515 394.354 93.9958 400.361 83.8731 412.292C83.7896 412.389 83.8035 412.556 83.9008 412.639C83.9426 412.681 83.9982 412.695 84.0538 412.695V412.681Z" fill="#0F172A"/>
<path d="M85.8889 401.793C85.8889 401.793 85.9446 401.793 85.9863 401.779C87.6131 401.126 88.9341 399.944 90.1994 398.804C90.6444 398.401 91.1032 397.997 91.576 397.608C94.4265 395.272 97.8471 393.756 101.49 393.228C101.629 393.214 101.713 393.089 101.699 392.95C101.685 392.811 101.546 392.727 101.421 392.741C97.6941 393.298 94.1901 394.841 91.2701 397.233C90.7973 397.622 90.3385 398.039 89.8796 398.442C88.6282 399.555 87.3489 400.709 85.8055 401.321C85.6804 401.376 85.6247 401.515 85.6664 401.64C85.7082 401.738 85.7916 401.793 85.8889 401.793Z" fill="#0F172A"/>
<path d="M455.577 434.692C455.577 434.692 455.618 434.692 455.632 434.692C456.036 434.664 456.341 434.303 456.314 433.9C455.354 421.413 456.884 402.211 458.372 383.634C459.053 375.054 459.706 366.962 460.11 359.564C460.137 359.161 459.818 358.814 459.414 358.786C459.011 358.758 458.664 359.078 458.636 359.481C458.232 366.864 457.579 374.943 456.898 383.522C455.41 402.155 453.88 421.427 454.84 434.011C454.868 434.4 455.187 434.692 455.577 434.692Z" fill="#0F172A"/>
<path d="M84.4849 203.747C90.9784 202.899 97.2356 199.993 102.227 195.015C114.227 183.015 114.227 163.548 102.227 151.549C91.1731 140.494 73.7921 139.632 61.7366 148.934L51.5444 138.742C69.2452 123.878 95.6922 124.754 112.35 141.412C129.954 159.015 129.954 187.548 112.35 205.138C104.563 212.924 94.6493 217.263 84.4849 218.153V203.747Z" fill="white"/>
<path d="M84.4851 218.889C84.4851 218.889 84.5268 218.889 84.5547 218.889C95.2335 217.944 105.287 213.244 112.879 205.652C121.528 197.003 126.297 185.504 126.297 173.268C126.297 161.032 121.528 149.532 112.879 140.884C104.731 132.735 93.8987 127.98 82.3716 127.507C70.914 127.048 59.8041 130.83 51.0719 138.158C50.9189 138.297 50.8216 138.478 50.8077 138.687C50.8077 138.895 50.8772 139.09 51.0301 139.243L61.2224 149.435C61.4866 149.699 61.9037 149.727 62.1957 149.491C74.0843 140.313 91.076 141.398 101.713 152.035C107.386 157.708 110.501 165.231 110.501 173.254C110.501 181.277 107.386 188.799 101.713 194.473C96.9995 199.186 91.0065 202.134 84.4017 202.996C84.0402 203.038 83.7621 203.358 83.7621 203.733V218.139C83.7621 218.347 83.8455 218.542 83.9985 218.681C84.1375 218.806 84.3183 218.876 84.499 218.876L84.4851 218.889ZM80.4388 129.037C91.8686 129.037 103.284 133.375 111.836 141.926C120.207 150.297 124.823 161.435 124.823 173.268C124.823 185.101 120.207 196.239 111.836 204.609C104.689 211.756 95.2613 216.261 85.2221 217.332V204.373C91.8964 203.372 97.945 200.313 102.742 195.515C108.693 189.564 111.961 181.666 111.961 173.254C111.961 164.841 108.693 156.944 102.742 150.992C91.7434 139.98 74.2512 138.714 61.7925 147.933L52.6292 138.77C60.694 132.249 70.5664 129.023 80.4249 129.023L80.4388 129.037Z" fill="#0F172A"/>
<path d="M56.1328 154.524C51.8501 160.072 49.7227 166.733 49.7505 173.407L35.4564 175.048C35.0392 164.174 38.5293 153.175 45.9406 144.346L56.1328 154.538V154.524Z" fill="#0F172A"/>
<path d="M35.4559 175.771C35.4559 175.771 35.5115 175.771 35.5393 175.771L49.8335 174.13C50.2089 174.088 50.487 173.768 50.487 173.393C50.4592 166.76 52.67 160.211 56.7163 154.969C56.9388 154.677 56.911 154.26 56.6607 153.996L46.4685 143.804C46.3294 143.651 46.1348 143.581 45.9123 143.595C45.7037 143.595 45.5091 143.692 45.3839 143.859C38.07 152.577 34.274 163.66 34.7189 175.062C34.7189 175.27 34.8163 175.465 34.9692 175.59C35.1083 175.701 35.2751 175.771 35.4559 175.771ZM49.0131 172.739L36.1789 174.213C35.9565 163.715 39.4327 153.551 46.0096 145.43L55.1729 154.594C51.3074 159.822 49.1382 166.218 49.027 172.739H49.0131Z" fill="#0F172A"/>
<path d="M50.7937 181.235C52.1425 186.283 54.7844 191.052 58.7473 195.001C63.753 200.007 70.0519 202.913 76.5732 203.747V218.153C66.381 217.263 56.4252 212.924 48.6246 205.124C42.284 198.783 38.2238 191.024 36.4579 182.876L50.8076 181.235H50.7937Z" fill="#F85A40"/>
<path d="M76.5736 218.903C76.7544 218.903 76.9351 218.834 77.0741 218.709C77.2271 218.57 77.3105 218.375 77.3105 218.166V203.761C77.3105 203.386 77.0324 203.08 76.6709 203.024C70.0244 202.176 64.0175 199.228 59.276 194.486C55.5634 190.76 52.8798 186.116 51.5171 181.041C51.4198 180.693 51.086 180.457 50.7245 180.498L36.3748 182.139C36.1662 182.167 35.9854 182.278 35.8603 182.445C35.7351 182.612 35.6934 182.82 35.7351 183.029C37.5984 191.594 41.8672 199.423 48.0965 205.638C55.7025 213.244 65.7973 217.944 76.504 218.876C76.5319 218.876 76.5458 218.876 76.5736 218.876V218.903ZM75.8366 204.401V217.346C65.7695 216.289 56.3143 211.784 49.1533 204.609C43.3133 198.769 39.2531 191.497 37.362 183.516L50.2657 182.042C51.7396 187.131 54.4788 191.775 58.2331 195.529C63.0442 200.34 69.1206 203.399 75.8366 204.401Z" fill="#0F172A"/>
<path d="M626.532 116.931L639.409 119.937L638.009 125.935L625.132 122.929L626.532 116.931Z" fill="#0F172A"/>
<path d="M637.994 126.659C638.328 126.659 638.634 126.423 638.717 126.089L640.122 120.096C640.163 119.901 640.122 119.706 640.024 119.54C639.927 119.373 639.76 119.262 639.565 119.206L626.69 116.202C626.3 116.119 625.897 116.355 625.8 116.759L624.395 122.752C624.354 122.946 624.395 123.141 624.493 123.308C624.59 123.475 624.757 123.586 624.951 123.642L637.827 126.645C637.827 126.645 637.939 126.659 637.994 126.659ZM638.509 120.485L637.438 125.046L625.994 122.376L627.065 117.815L638.509 120.485Z" fill="#0F172A"/>
<path d="M613.883 51.8371C618.18 33.4411 636.771 22.1226 655.167 26.878C672.395 31.3275 683.282 48.7086 679.751 66.1591C677.818 75.6978 672.089 83.4289 664.469 88.1565C656.126 93.3291 649.98 96.555 647.756 106.108L625.119 100.824C627.329 91.3824 623.464 85.7927 618.264 77.6166C613.564 70.2332 611.728 61.0421 613.87 51.851L613.883 51.8371Z" fill="white"/>
<path d="M647.769 106.831C648.103 106.831 648.409 106.594 648.492 106.261C650.508 97.6257 655.876 94.3164 663.287 89.7556C663.801 89.4358 664.33 89.116 664.872 88.7823C673.034 83.7209 678.582 75.7396 680.487 66.3121C682.225 57.6911 680.585 48.7921 675.871 41.2696C671.157 33.7471 663.871 28.3798 655.347 26.1828C646.281 23.8329 636.882 25.2095 628.873 30.0623C620.863 34.9011 615.288 42.5905 613.16 51.6982C611.033 60.7919 612.632 70.1498 617.651 78.02L618.18 78.8403C623.172 86.6687 626.467 91.8413 624.409 100.657C624.367 100.852 624.409 101.046 624.506 101.213C624.604 101.38 624.771 101.491 624.965 101.547L647.602 106.831C647.602 106.831 647.714 106.845 647.769 106.845V106.831ZM646.643 26.5165C649.424 26.5165 652.219 26.8642 654.986 27.5872C671.936 31.9672 682.503 48.8477 679.041 66.0062C677.22 75.0304 671.908 82.6781 664.093 87.5169C663.551 87.8507 663.023 88.1705 662.508 88.4903C655.264 92.9398 649.507 96.4855 647.227 105.204L626.008 100.254C627.858 91.2573 624.298 85.6815 619.417 78.0339L618.889 77.2135C614.092 69.6632 612.562 60.7224 614.592 52.018C616.622 43.2997 621.976 35.944 629.637 31.2998C634.852 28.1434 640.692 26.5305 646.643 26.5305V26.5165Z" fill="#0F172A"/>
<path d="M648.784 111.155L651.245 100.587L624.451 94.3302L621.989 104.898C620.265 112.295 624.854 119.693 632.265 121.431C639.662 123.155 647.06 118.566 648.798 111.155H648.784Z" fill="#F85A40"/>
<path d="M637.91 123.196C642.958 123.196 647.533 119.734 648.728 114.617L651.968 100.754C652.066 100.351 651.815 99.9615 651.412 99.8642L624.617 93.607C624.423 93.5653 624.228 93.607 624.061 93.7044C623.894 93.8017 623.783 93.9686 623.728 94.1632L620.488 108.026C619.097 113.992 622.81 119.971 628.775 121.375L635.38 122.918C636.228 123.113 637.076 123.21 637.91 123.21V123.196ZM647.296 114.284C646.712 116.786 645.183 118.914 643 120.276C640.817 121.639 638.23 122.056 635.727 121.472L629.123 119.929C623.95 118.719 620.724 113.533 621.934 108.36L625.007 95.22L650.369 101.143L647.296 114.284Z" fill="#0F172A"/>
<path d="M647.06 104.953C647.171 104.953 647.269 104.87 647.296 104.759C647.324 104.62 647.241 104.495 647.116 104.467L626.453 99.6418C626.314 99.614 626.189 99.6974 626.161 99.8226C626.133 99.9616 626.217 100.087 626.342 100.115L647.004 104.94C647.004 104.94 647.046 104.94 647.06 104.94V104.953Z" fill="#0F172A"/>
<path d="M654.471 73.2088C654.582 73.2088 654.68 73.1254 654.708 73.0142C654.735 72.8751 654.652 72.75 654.527 72.7222L633.864 67.8972C633.739 67.8694 633.6 67.9528 633.572 68.078C633.544 68.217 633.628 68.3422 633.753 68.37L654.416 73.1949C654.416 73.1949 654.457 73.1949 654.471 73.1949V73.2088Z" fill="#0F172A"/>
<path d="M657.474 14.1828C657.808 14.1828 658.114 13.9464 658.197 13.6127L661.159 0.903714C661.256 0.500475 661.006 0.11114 660.602 0.0138062C660.213 -0.0835275 659.81 0.166759 659.713 0.569999L656.751 13.279C656.654 13.6822 656.904 14.0716 657.307 14.1689C657.363 14.1689 657.418 14.1828 657.474 14.1828Z" fill="#0F172A"/>
<path d="M618.903 18.2291C619.042 18.2291 619.167 18.1874 619.292 18.1179C619.64 17.9093 619.751 17.4505 619.528 17.1028L612.646 6.02071C612.437 5.67309 611.978 5.56185 611.63 5.78432C611.283 5.9929 611.172 6.45176 611.394 6.79938L618.277 17.8815C618.416 18.104 618.652 18.2291 618.903 18.2291Z" fill="#0F172A"/>
<path d="M598.311 46.5115C598.644 46.5115 598.95 46.2751 599.034 45.9414C599.131 45.5381 598.881 45.1488 598.477 45.0515L585.768 42.0897C585.379 41.9924 584.976 42.2427 584.879 42.6459C584.781 43.0492 585.032 43.4385 585.435 43.5358L598.144 46.4976C598.144 46.4976 598.255 46.5115 598.311 46.5115Z" fill="#0F172A"/>
<path d="M688.274 34.4282C688.413 34.4282 688.538 34.3865 688.663 34.317L699.745 27.4341C700.093 27.2255 700.204 26.7666 699.982 26.419C699.773 26.0714 699.314 25.9602 698.966 26.1826L687.884 33.0655C687.537 33.2741 687.426 33.733 687.648 34.0806C687.787 34.303 688.023 34.4282 688.274 34.4282Z" fill="#0F172A"/>
<path d="M706.92 71.8739C707.254 71.8739 707.56 71.6375 707.643 71.3038C707.74 70.9006 707.49 70.5112 707.087 70.4139L694.378 67.4522C693.989 67.3548 693.585 67.6051 693.488 68.0084C693.391 68.4116 693.641 68.8009 694.044 68.8983L706.753 71.86C706.753 71.86 706.864 71.8739 706.92 71.8739Z" fill="#0F172A"/>
<path d="M642.777 98.7104C643.097 98.7104 643.403 98.5018 643.487 98.1681C643.556 97.9317 650.091 74.9332 663.106 67.6192C663.468 67.4246 663.593 66.9657 663.384 66.6181C663.19 66.2565 662.731 66.1314 662.383 66.34C648.826 73.9459 642.333 96.8054 642.068 97.7787C641.957 98.1681 642.193 98.5713 642.583 98.6826C642.652 98.6965 642.722 98.7104 642.777 98.7104Z" fill="#0F172A"/>
<path d="M633.21 96.4716C633.558 96.4716 633.864 96.2213 633.934 95.8737C634.114 94.8865 638.425 71.5125 629.637 58.6922C629.401 58.3585 628.942 58.2751 628.608 58.4976C628.274 58.734 628.191 59.1928 628.413 59.5265C636.854 71.8462 632.529 95.3731 632.473 95.6095C632.404 96.0128 632.654 96.4021 633.057 96.4716C633.099 96.4716 633.155 96.4716 633.197 96.4716H633.21Z" fill="#0F172A"/>
<path d="M662.814 67.4104C663.147 67.4104 663.453 67.174 663.537 66.8403C663.634 66.4371 663.384 66.0477 662.98 65.9504C661.882 65.6862 661.479 65.0327 660.964 64.1984C660.422 63.2946 659.741 62.1683 658.03 61.765C656.32 61.3618 655.208 62.071 654.318 62.6411C653.497 63.1694 652.844 63.5866 651.731 63.3224C650.633 63.0582 650.23 62.4047 649.715 61.5704C649.173 60.6666 648.492 59.5403 646.781 59.137C645.071 58.7338 643.959 59.4429 643.069 60.013C642.248 60.5414 641.595 60.9586 640.482 60.6944C639.384 60.4441 638.981 59.7767 638.466 58.9424C637.924 58.0386 637.243 56.9123 635.532 56.509C633.822 56.1058 632.71 56.8149 631.82 57.385C630.999 57.9134 630.346 58.3306 629.247 58.0664C628.858 57.969 628.455 58.2193 628.357 58.6226C628.26 59.0258 628.51 59.4151 628.914 59.5125C630.624 59.9157 631.736 59.2066 632.626 58.6365C633.447 58.1081 634.1 57.6909 635.199 57.9551C636.297 58.2054 636.7 58.8728 637.215 59.7071C637.757 60.6109 638.438 61.7372 640.149 62.1405C641.859 62.5437 642.971 61.8346 643.861 61.2645C644.682 60.7361 645.335 60.3189 646.448 60.5831C647.546 60.8473 647.949 61.5009 648.464 62.3352C649.006 63.239 649.687 64.3653 651.398 64.7685C653.108 65.1717 654.22 64.4626 655.11 63.8925C655.931 63.3641 656.584 62.947 657.697 63.2111C658.795 63.4753 659.198 64.1289 659.713 64.9632C660.255 65.867 660.936 66.9933 662.647 67.3965C662.702 67.3965 662.758 67.4104 662.814 67.4104Z" fill="#0F172A"/>
<path d="M249.258 140.494L253.777 137.95C256.808 138.84 258.463 139.326 261.494 140.216L263.913 144.791C269.572 143.428 268.836 143.595 274.495 142.232L274.55 137.06C276.831 134.877 278.082 133.695 280.376 131.512L285.549 131.706C287.19 126.117 286.981 126.854 288.622 121.264L284.159 118.622C283.422 115.549 283.005 113.88 282.268 110.807L285.021 106.427C281.002 102.214 281.531 102.77 277.512 98.5434L272.993 101.088C269.962 100.198 268.307 99.7114 265.276 98.8215L262.856 94.2468C257.197 95.6095 257.934 95.4426 252.275 96.8053L252.219 101.978C249.939 104.161 248.687 105.343 246.393 107.526L241.221 107.331C239.58 112.921 239.788 112.184 238.148 117.774L242.611 120.416C243.348 123.489 243.765 125.157 244.502 128.23L241.749 132.61C245.767 136.823 245.239 136.267 249.258 140.494Z" fill="white"/>
<path d="M263.913 145.556C263.913 145.556 264.024 145.555 264.079 145.542L274.661 142.983C274.995 142.9 275.217 142.608 275.231 142.274L275.287 137.407L280.654 132.29L285.521 132.471C285.882 132.471 286.16 132.263 286.258 131.943L289.33 121.5C289.428 121.18 289.289 120.833 288.997 120.652L284.811 118.177L283.059 110.96L285.646 106.845C285.826 106.553 285.785 106.191 285.562 105.941L278.054 98.0567C277.817 97.8064 277.456 97.7508 277.164 97.9176L272.923 100.309L265.804 98.2096L263.523 93.8991C263.37 93.6071 263.023 93.4542 262.703 93.5237L252.121 96.0822C251.788 96.1656 251.565 96.4576 251.551 96.7913L251.496 101.658L246.128 106.775L241.262 106.594C240.928 106.594 240.622 106.803 240.525 107.123L237.452 117.565C237.354 117.885 237.493 118.233 237.785 118.413L241.971 120.888L243.723 128.105L241.136 132.221C240.956 132.513 240.997 132.874 241.22 133.125L248.728 141.009C248.965 141.259 249.326 141.315 249.618 141.148L253.859 138.756L260.979 140.856L263.259 145.166C263.384 145.416 263.648 145.556 263.913 145.556ZM273.757 141.676L264.302 143.97L262.147 139.896C262.049 139.715 261.896 139.59 261.702 139.535L253.984 137.268C253.79 137.213 253.581 137.24 253.414 137.338L249.396 139.59L242.68 132.541L245.127 128.647C245.238 128.48 245.266 128.272 245.224 128.077L243.333 120.263C243.292 120.068 243.167 119.901 242.986 119.804L239.023 117.454L241.776 108.11L246.379 108.277C246.587 108.277 246.768 108.207 246.921 108.068L252.747 102.52C252.886 102.381 252.969 102.186 252.969 101.992L253.025 97.3892L262.48 95.0949L264.636 99.1691C264.733 99.3498 264.886 99.475 265.081 99.5306L272.798 101.797C272.992 101.853 273.201 101.825 273.368 101.728L277.386 99.475L284.102 106.525L281.655 110.418C281.544 110.585 281.516 110.793 281.558 110.988L283.449 118.803C283.491 118.997 283.616 119.164 283.796 119.262L287.759 121.611L285.006 130.955L280.404 130.789C280.209 130.789 280.014 130.858 279.861 130.997L274.035 136.545C273.896 136.684 273.813 136.879 273.813 137.074L273.757 141.676Z" fill="#0F172A"/>
<path d="M263.398 129.704C257.777 129.704 253.22 125.147 253.22 119.526C253.22 113.904 257.777 109.347 263.398 109.347C269.019 109.347 273.576 113.904 273.576 119.526C273.576 125.147 269.019 129.704 263.398 129.704Z" fill="white"/>
<path d="M263.398 130.455C269.419 130.455 274.313 125.56 274.313 119.54C274.313 113.519 269.419 108.624 263.398 108.624C257.377 108.624 252.483 113.519 252.483 119.54C252.483 125.56 257.377 130.455 263.398 130.455ZM263.398 110.084C268.612 110.084 272.84 114.325 272.84 119.526C272.84 124.726 268.599 128.967 263.398 128.967C258.198 128.967 253.957 124.726 253.957 119.526C253.957 114.325 258.198 110.084 263.398 110.084Z" fill="#0F172A"/>
<path d="M315.291 145.625C312.816 145.625 310.814 147.627 310.814 150.102C310.814 152.577 312.816 154.58 315.291 154.58C317.766 154.58 319.769 152.577 319.769 150.102C319.769 147.627 317.766 145.625 315.291 145.625Z" fill="#0F172A"/>
<path d="M315.291 155.317C318.169 155.317 320.505 152.981 320.505 150.102C320.505 147.224 318.169 144.888 315.291 144.888C312.412 144.888 310.076 147.224 310.076 150.102C310.076 152.981 312.412 155.317 315.291 155.317ZM315.291 146.362C317.348 146.362 319.031 148.044 319.031 150.102C319.031 152.16 317.348 153.843 315.291 153.843C313.233 153.843 311.55 152.16 311.55 150.102C311.55 148.044 313.233 146.362 315.291 146.362Z" fill="#0F172A"/>
<path d="M85.4318 403.963C82.9568 403.963 80.9545 405.965 80.9545 408.44C80.9545 410.915 82.9568 412.917 85.4318 412.917C87.9069 412.917 89.9092 410.915 89.9092 408.44C89.9092 405.965 87.9069 403.963 85.4318 403.963Z" fill="#0F172A"/>
<path d="M85.4312 413.654C88.3095 413.654 90.6455 411.318 90.6455 408.44C90.6455 405.562 88.3095 403.226 85.4312 403.226C82.5529 403.226 80.2169 405.562 80.2169 408.44C80.2169 411.318 82.5529 413.654 85.4312 413.654ZM85.4312 404.699C87.4891 404.699 89.1716 406.382 89.1716 408.44C89.1716 410.498 87.4891 412.18 85.4312 412.18C83.3733 412.18 81.6908 410.498 81.6908 408.44C81.6908 406.382 83.3733 404.699 85.4312 404.699Z" fill="#0F172A"/>
<path d="M531.039 90.0894C529.843 90.0894 528.87 91.0627 528.87 92.2585C528.87 93.4543 529.843 94.4277 531.039 94.4277C532.235 94.4277 533.208 93.4543 533.208 92.2585C533.208 91.0627 532.235 90.0894 531.039 90.0894Z" fill="#0F172A"/>
<path d="M531.038 95.1784C532.637 95.1784 533.944 93.8714 533.944 92.2723C533.944 90.6733 532.637 89.3662 531.038 89.3662C529.439 89.3662 528.132 90.6733 528.132 92.2723C528.132 93.8714 529.439 95.1784 531.038 95.1784ZM531.038 90.8262C531.831 90.8262 532.47 91.4658 532.47 92.2584C532.47 93.051 531.831 93.6906 531.038 93.6906C530.246 93.6906 529.606 93.051 529.606 92.2584C529.606 91.4658 530.246 90.8262 531.038 90.8262Z" fill="#0F172A"/>
<path d="M613.662 225.411C612.466 225.411 611.493 226.384 611.493 227.58C611.493 228.776 612.466 229.749 613.662 229.749C614.858 229.749 615.831 228.776 615.831 227.58C615.831 226.384 614.858 225.411 613.662 225.411Z" fill="#0F172A"/>
<path d="M613.661 230.486C615.26 230.486 616.567 229.179 616.567 227.58C616.567 225.981 615.26 224.674 613.661 224.674C612.062 224.674 610.755 225.981 610.755 227.58C610.755 229.179 612.062 230.486 613.661 230.486ZM613.661 226.134C614.454 226.134 615.093 226.773 615.093 227.566C615.093 228.359 614.454 228.998 613.661 228.998C612.869 228.998 612.229 228.359 612.229 227.566C612.229 226.773 612.869 226.134 613.661 226.134Z" fill="#0F172A"/>
<path d="M519.803 165.759C516.448 165.759 513.727 163.039 513.727 159.683C513.727 156.327 516.448 153.606 519.803 153.606C523.159 153.606 525.88 156.327 525.88 159.683C525.88 163.039 523.159 165.759 519.803 165.759Z" fill="white"/>
<path d="M519.803 166.496C523.557 166.496 526.616 163.437 526.616 159.683C526.616 155.928 523.557 152.869 519.803 152.869C516.049 152.869 512.989 155.928 512.989 159.683C512.989 163.437 516.049 166.496 519.803 166.496ZM519.803 154.343C522.751 154.343 525.142 156.735 525.142 159.683C525.142 162.631 522.751 165.022 519.803 165.022C516.855 165.022 514.463 162.631 514.463 159.683C514.463 156.735 516.855 154.343 519.803 154.343Z" fill="#0F172A"/>
<path d="M68.3564 355.24C68.3564 351.889 65.6311 349.164 62.28 349.164C58.9289 349.164 56.2036 351.889 56.2036 355.24C56.2036 358.591 58.9289 361.316 62.28 361.316C65.6311 361.316 68.3564 358.591 68.3564 355.24Z" fill="white"/>
<path d="M62.2794 362.053C66.0337 362.053 69.0928 358.994 69.0928 355.24C69.0928 351.486 66.0337 348.427 62.2794 348.427C58.5251 348.427 55.466 351.486 55.466 355.24C55.466 358.994 58.5251 362.053 62.2794 362.053ZM62.2794 349.901C65.2272 349.901 67.6189 352.292 67.6189 355.24C67.6189 358.188 65.2272 360.58 62.2794 360.58C59.3316 360.58 56.9399 358.188 56.9399 355.24C56.9399 352.292 59.3316 349.901 62.2794 349.901Z" fill="#0F172A"/>
<path d="M21.1766 297.187C21.5659 297.187 21.8996 296.882 21.9135 296.478C21.9274 296.075 21.6076 295.727 21.2044 295.714C19.2994 295.63 17.4223 295.296 15.6146 294.712C15.2253 294.587 14.8082 294.796 14.683 295.185C14.5579 295.575 14.7665 295.992 15.1558 296.117C17.0886 296.743 19.1047 297.104 21.1488 297.187C21.1488 297.187 21.1626 297.187 21.1766 297.187ZM27.0305 296.631C27.0305 296.631 27.1417 296.631 27.1974 296.617C29.1857 296.145 31.0907 295.408 32.8705 294.407C33.232 294.212 33.3572 293.753 33.1486 293.405C32.9539 293.044 32.4951 292.919 32.1475 293.127C30.4789 294.059 28.6991 294.754 26.8497 295.185C26.4604 295.283 26.2101 295.672 26.3074 296.075C26.3909 296.409 26.6968 296.645 27.0305 296.645V296.631ZM10.1083 293.572C10.3447 293.572 10.5811 293.461 10.7201 293.252C10.9426 292.919 10.8592 292.46 10.5255 292.223C8.95426 291.167 7.52204 289.887 6.28451 288.441C6.02032 288.135 5.56146 288.094 5.24165 288.358C4.93575 288.622 4.89404 289.081 5.15823 289.401C6.47918 290.958 8.0087 292.307 9.70509 293.447C9.83023 293.53 9.9693 293.572 10.1223 293.572H10.1083ZM37.2088 290.944C37.4035 290.944 37.5843 290.875 37.7233 290.736C39.1694 289.29 40.4069 287.663 41.4081 285.897C41.6027 285.535 41.4776 285.09 41.13 284.896C40.7823 284.701 40.3235 284.826 40.1288 285.174C39.1972 286.828 38.0431 288.344 36.6943 289.693C36.4023 289.985 36.4023 290.444 36.6943 290.736C36.8334 290.875 37.028 290.958 37.2227 290.958L37.2088 290.944ZM2.54412 284.701C2.64145 284.701 2.75269 284.673 2.85003 284.631C3.22545 284.465 3.37842 284.02 3.21156 283.658C2.41899 281.934 1.8628 280.098 1.5708 278.221C1.50128 277.818 1.12583 277.554 0.722591 277.609C0.319351 277.679 0.0412521 278.054 0.110775 278.458C0.430584 280.474 1.0146 282.434 1.86279 284.284C1.98794 284.548 2.25214 284.715 2.53024 284.715L2.54412 284.701ZM42.9237 280.794C43.2574 280.794 43.5633 280.571 43.6467 280.224C44.0639 278.527 44.2725 276.761 44.2725 274.995C44.2725 272.951 43.9944 270.921 43.4521 268.975C43.3408 268.585 42.9376 268.349 42.5483 268.46C42.1589 268.571 41.9225 268.975 42.0338 269.364C42.5482 271.185 42.8124 273.077 42.8124 274.995C42.8124 276.65 42.6178 278.291 42.2285 279.876C42.1311 280.265 42.3814 280.669 42.7707 280.766C42.8263 280.78 42.882 280.78 42.9376 280.78L42.9237 280.794ZM0.736507 273.188C1.11194 273.188 1.41784 272.91 1.47346 272.534C1.69594 270.643 2.18261 268.794 2.90565 267.042C3.05861 266.666 2.87783 266.235 2.5024 266.082C2.12697 265.929 1.69592 266.11 1.54297 266.486C0.764297 268.363 0.24984 270.351 -0.00044632 272.367C-0.04216 272.771 0.235924 273.132 0.639164 273.188C0.666973 273.188 0.694778 273.188 0.722591 273.188H0.736507ZM40.3652 264.525C40.4904 264.525 40.6294 264.483 40.7545 264.414C41.1022 264.205 41.2134 263.746 40.9909 263.399C39.9202 261.661 38.6271 260.089 37.1254 258.699C36.8334 258.421 36.3606 258.435 36.0825 258.741C35.8044 259.033 35.8183 259.505 36.1242 259.784C37.5286 261.077 38.7384 262.551 39.7256 264.177C39.8647 264.4 40.101 264.525 40.3513 264.525H40.3652ZM5.21386 262.439C5.43634 262.439 5.64488 262.342 5.79784 262.161C6.97974 260.673 8.35634 259.339 9.89977 258.226C10.2335 257.99 10.303 257.531 10.0666 257.197C9.83024 256.864 9.3714 256.794 9.03768 257.03C7.39691 258.226 5.90909 259.644 4.64376 261.244C4.39347 261.563 4.44909 262.022 4.76889 262.286C4.90794 262.398 5.06087 262.439 5.22773 262.439H5.21386ZM31.8138 256.613C32.078 256.613 32.3421 256.46 32.4673 256.21C32.6481 255.848 32.509 255.404 32.1475 255.223C30.3259 254.291 28.3932 253.624 26.4048 253.22C26.0015 253.137 25.6122 253.401 25.5427 253.804C25.4593 254.208 25.7234 254.597 26.1267 254.667C27.9899 255.042 29.7976 255.668 31.4939 256.53C31.6052 256.585 31.7164 256.613 31.8276 256.613H31.8138ZM14.6413 255.584C14.7247 255.584 14.8082 255.57 14.8916 255.543C16.6714 254.889 18.5346 254.486 20.4396 254.333C20.8428 254.305 21.1488 253.944 21.121 253.54C21.0932 253.137 20.7316 252.817 20.3284 252.859C18.2983 253.012 16.296 253.457 14.391 254.152C14.0156 254.291 13.807 254.722 13.96 255.098C14.0712 255.39 14.3493 255.584 14.6552 255.584H14.6413Z" fill="#0F172A"/>
<path d="M505.676 416.602H505.69C507.442 416.602 509.194 416.171 510.752 415.364C511.113 415.17 511.252 414.725 511.071 414.363C510.891 414.002 510.446 413.863 510.07 414.043C508.708 414.753 507.22 415.128 505.676 415.114C505.37 415.114 505.065 415.1 504.759 415.072C504.355 415.031 503.994 415.337 503.952 415.74C503.91 416.143 504.216 416.505 504.62 416.546C504.967 416.574 505.329 416.602 505.676 416.602ZM499.308 414.363C499.53 414.363 499.739 414.266 499.878 414.085C500.128 413.765 500.087 413.307 499.767 413.042C498.321 411.888 497.264 410.359 496.68 408.607C496.555 408.217 496.138 408.009 495.748 408.134C495.359 408.259 495.15 408.676 495.276 409.066C495.943 411.082 497.181 412.848 498.835 414.183C498.974 414.294 499.127 414.349 499.294 414.349L499.308 414.363ZM514.603 411.415C514.854 411.415 515.104 411.276 515.243 411.04C516.174 409.399 516.661 407.536 516.661 405.645C516.661 403.518 516.049 401.446 514.881 399.666C514.659 399.318 514.2 399.235 513.866 399.457C513.519 399.68 513.435 400.139 513.658 400.472C514.659 402.016 515.187 403.796 515.187 405.645C515.187 407.286 514.756 408.899 513.964 410.317C513.769 410.665 513.894 411.123 514.242 411.318C514.353 411.388 514.478 411.415 514.603 411.415ZM495.804 403.782C496.138 403.782 496.43 403.559 496.513 403.226C496.986 401.446 497.945 399.861 499.322 398.609C499.628 398.331 499.642 397.872 499.377 397.566C499.099 397.26 498.641 397.246 498.335 397.511C496.749 398.943 495.637 400.792 495.095 402.836C494.997 403.226 495.22 403.629 495.623 403.74C495.679 403.754 495.748 403.768 495.804 403.768V403.782ZM509.834 397.038C510.112 397.038 510.39 396.871 510.515 396.593C510.682 396.218 510.515 395.786 510.14 395.62C508.735 394.994 507.248 394.688 505.704 394.688C505.12 394.688 504.536 394.73 503.966 394.827C503.563 394.897 503.285 395.272 503.354 395.675C503.424 396.078 503.799 396.357 504.202 396.287C504.703 396.204 505.204 396.162 505.718 396.162C507.053 396.162 508.346 396.44 509.556 396.968C509.653 397.01 509.75 397.038 509.848 397.038H509.834Z" fill="#0F172A"/>
</g>
<defs>
<clipPath id="clip0_16_3720">
<rect width="707.657" height="441.45" fill="white" transform="matrix(-1 0 0 1 707.657 0)"/>
</clipPath>
</defs>
</svg>
